<svg xmlns="http://www.w3.org/2000/svg" width="21.9" height="20.105" viewBox="0 0 21.9 20.105">
    <g data-name="Group 6203">
        <path data-name="Path 9056" d="M20.9-.25a.75.75 0 0 1 .75.75v16.9a.75.75 0 0 1-.959.72L11.7 15.513 6.052 13.9.291 12.222A.75.75 0 0 1-.25 11.5V6.384a.75.75 0 0 1 .542-.721L6.051 4 20.692-.221A.75.75 0 0 1 20.9-.25zm-.75 16.65V1.5L1.25 6.949v3.99l5.218 1.516 5.645 1.617z" transform="translate(.25 .25)" style="fill:#f59600"/>
        <path data-name="Path 9057" d="m2.4 8.162 9.2 2.656v1.022a4.6 4.6 0 1 1-9.2 0zm7.7 3.784-6.2-1.79v1.683a3.1 3.1 0 0 0 6.2.106z" transform="translate(1.296 3.665)" style="fill:#f59600"/>
    </g>
</svg>
