<svg xmlns="http://www.w3.org/2000/svg" width="16.367" height="16.786" viewBox="0 0 16.367 16.786">
    <g data-name="Group 5248">
        <path data-name="Path 8241" d="M15.469 3.509h1.888a1.259 1.259 0 0 1 1.259 1.259v3.147H2.25V4.768a1.259 1.259 0 0 1 1.259-1.259H5.4V2.25h1.256v1.259h7.554V2.25h1.259z" transform="translate(-2.25 -2.25)" style="fill-rule:evenodd;fill:#f59600"/>
        <path data-name="Path 8233 - Outline" d="M6.176 1.35A4.826 4.826 0 1 1 1.35 6.176 4.831 4.831 0 0 1 6.176 1.35zm0 8.68a3.854 3.854 0 1 0-3.854-3.854 3.858 3.858 0 0 0 3.854 3.854zM5.69 3.467h.972v2.388l1.7.757-.382.893L5.69 6.5z" transform="translate(5.365 5.784)" style="fill:#f59600"/>
        <path data-name="Path 8233 - Outline - Outline" d="M6.076 1.25A4.826 4.826 0 1 1 1.25 6.076 4.831 4.831 0 0 1 6.076 1.25zm0 8.531A3.706 3.706 0 1 0 2.37 6.076a3.71 3.71 0 0 0 3.706 3.705zm-.56-6.45h1.12v2.376l1.7.755-.436 1.03-2.384-1.048z" transform="translate(5.381 5.884)" style="fill:#f59600"/>
        <path data-name="Path 8240" d="M1380.954 871.892h-5.516a.629.629 0 0 1-.629-.63v-9.022h1.259v8.393h4.887z" transform="translate(-1374.809 -855.106)" style="fill:#f59600"/>
    </g>
</svg>
