<svg width="11" height="14" viewBox="0 0 11 14" fill="none" xmlns="http://www.w3.org/2000/svg">
<path fill-rule="evenodd" clip-rule="evenodd" d="M1.56006 12.98V3.64001H0.560059V13.48C0.560059 13.7562 0.783916 13.98 1.06006 13.98H9.80006C10.0762 13.98 10.3001 13.7562 10.3001 13.48V3.64001H9.30006V12.98H1.56006Z" fill="#F59600"/>
<path fill-rule="evenodd" clip-rule="evenodd" d="M10.86 2.75H0V1.75H10.86V2.75Z" fill="#F59600"/>
<path fill-rule="evenodd" clip-rule="evenodd" d="M3.28003 0.5C3.28003 0.223858 3.50389 0 3.78003 0H7.08003C7.35617 0 7.58003 0.223858 7.58003 0.5V2.25C7.58003 2.52614 7.35617 2.75 7.08003 2.75H3.78003C3.50389 2.75 3.28003 2.52614 3.28003 2.25V0.5ZM4.28003 1V1.75H6.58003V1H4.28003Z" fill="#F59600"/>
<path fill-rule="evenodd" clip-rule="evenodd" d="M3.69995 10.87V6.26001H4.69995V10.87H3.69995Z" fill="#F59600"/>
<path fill-rule="evenodd" clip-rule="evenodd" d="M6.16016 10.87V6.26001H7.16016V10.87H6.16016Z" fill="#F59600"/>
</svg>
