<svg xmlns="http://www.w3.org/2000/svg" width="21.124" height="19.615" viewBox="0 0 21.124 19.615">
    <path data-name="Path 74916" d="M1 12.062 11.562 1.5l10.562 10.562h-3.018v7.544a1.509 1.509 0 0 1-1.506 1.509h-1.511v-1.509H17.6v-9.053h.883l-6.919-6.92-6.92 6.92h.884v9.053h1.507v1.509H5.527a1.509 1.509 0 0 1-1.509-1.509v-7.544zm12.071 3.018v4.527h-3.018V15.08zm-3.018-1.509h3.018a1.509 1.509 0 0 1 1.509 1.509v6.035H8.544V15.08a1.509 1.509 0 0 1 1.509-1.509z" transform="translate(-1 -1.5)" style="fill:#f59600;fill-rule:evenodd"/>
</svg>
