<svg data-name="Group 25266" xmlns="http://www.w3.org/2000/svg" width="31.071" height="30.498" viewBox="0 0 31.071 30.498">
    <path data-name="Path 74917" d="M113.805 11.573a3.364 3.364 0 0 0-.866.106v.042h.041a7.144 7.144 0 0 0 .676.867c.17.338.318.675.487 1.013l.042-.042a1.187 1.187 0 0 0 .445-1.056 4.734 4.734 0 0 1-.254-.444c-.127-.211-.4-.316-.571-.486" transform="translate(-106.741 -6.345)" style="fill:#f29111;fill-rule:evenodd"/>
    <path data-name="Path 74918" d="M127.832 23.588a9.766 9.766 0 0 0-4.1.592c-.317.126-.823.126-.867.528.17.169.191.443.34.677a4.932 4.932 0 0 0 1.1 1.289c.443.338.887.675 1.353.971.823.509 1.753.8 2.555 1.312.466.3.93.675 1.4.993.231.169.378.444.675.549v-.064c-.149-.19-.191-.464-.337-.677-.211-.21-.423-.4-.635-.611a10.065 10.065 0 0 0-2.2-2.134c-.677-.466-2.157-1.1-2.431-1.879l-.042-.043a8.425 8.425 0 0 0 1.458-.34c.717-.19 1.373-.147 2.112-.336.339-.085.677-.191 1.016-.3v-.191c-.382-.38-.656-.888-1.057-1.247a28.3 28.3 0 0 0-3.487-2.6c-.656-.423-1.5-.7-2.2-1.056-.252-.127-.675-.19-.823-.4a8.488 8.488 0 0 1-.867-1.627 52.701 52.701 0 0 1-1.733-3.677 22.594 22.594 0 0 0-1.078-2.408 21.3 21.3 0 0 0-8.178-7.9 10.115 10.115 0 0 0-2.7-.867c-.529-.023-1.057-.063-1.585-.084a8.407 8.407 0 0 1-.973-.741c-1.205-.76-4.31-2.408-5.2-.232-.57 1.374.845 2.726 1.332 3.424a9.891 9.891 0 0 1 1.077 1.585c.148.359.191.74.339 1.12a25.115 25.115 0 0 0 1.1 2.832 9.954 9.954 0 0 0 .781 1.309c.171.234.466.338.529.72a6.052 6.052 0 0 0-.487 1.584 9.308 9.308 0 0 0 .613 7.1c.337.528 1.141 1.691 2.219 1.246.951-.38.74-1.584 1.015-2.64.063-.256.02-.423.147-.592v.043c.3.591.592 1.16.867 1.754a12.05 12.05 0 0 0 2.748 2.83c.506.382.907 1.036 1.541 1.269V24.6h-.042a2.316 2.316 0 0 0-.486-.422 10.376 10.376 0 0 1-1.1-1.268 27.017 27.017 0 0 1-2.366-3.846c-.339-.656-.634-1.374-.909-2.029-.126-.252-.126-.634-.338-.76a7.941 7.941 0 0 0-1.014 1.435 11.951 11.951 0 0 0-.592 3.192c-.084.022-.042 0-.084.042-.675-.169-.908-.865-1.162-1.456a9.14 9.14 0 0 1-.19-5.644c.147-.443.783-1.837.528-2.26-.127-.4-.55-.633-.782-.952a8.407 8.407 0 0 1-.76-1.352c-.508-1.183-.763-2.494-1.31-3.677a11.289 11.289 0 0 0-1.062-1.624 10.455 10.455 0 0 1-1.164-1.647c-.1-.233-.253-.613-.084-.866a.338.338 0 0 1 .3-.276c.274-.232 1.056.063 1.33.19a10.7 10.7 0 0 1 2.092 1.056c.3.212.614.613.993.72h.445c.676.146 1.437.041 2.072.232a13.545 13.545 0 0 1 3.042 1.458 18.756 18.756 0 0 1 6.592 7.227c.254.485.36.929.592 1.435.444 1.038.994 2.094 1.437 3.108a13.886 13.886 0 0 0 1.5 2.832c.316.443 1.585.675 2.155.908a15.2 15.2 0 0 1 1.458.591 36.3 36.3 0 0 1 2.113 1.438c.337.254 1.394.782 1.458 1.2" transform="translate(-99.213)" style="fill:#f29111;fill-rule:evenodd"/>
</svg>
