<svg id="Group_6060" data-name="Group 6060" xmlns="http://www.w3.org/2000/svg" xmlns:xlink="http://www.w3.org/1999/xlink" width="93.249" height="63.33" viewBox="0 0 93.249 63.33">
  <defs>
    <style>
      .cls-1 {
        fill: none;
      }

      .cls-2 {
        clip-path: url(#clip-path);
      }

      .cls-3 {
        fill: #5d87a1;
      }

      .cls-3, .cls-6, .cls-7 {
        fill-rule: evenodd;
      }

      .cls-4, .cls-7 {
        fill: #00758f;
      }

      .cls-5, .cls-6 {
        fill: #f29111;
      }
    </style>
    <clipPath id="clip-path">
      <rect id="Rectangle_4134" data-name="Rectangle 4134" class="cls-1" width="93.249" height="63.33"/>
    </clipPath>
  </defs>
  <g id="Group_6059" data-name="Group 6059" class="cls-2">
    <path id="Path_9103" data-name="Path 9103" class="cls-3" d="M114,11.573a4.136,4.136,0,0,0-1.065.13v.052h.051a8.777,8.777,0,0,0,.831,1.066c.209.416.391.83.6,1.245.026-.025.051-.052.051-.052a1.459,1.459,0,0,0,.547-1.3,5.817,5.817,0,0,1-.312-.546c-.156-.259-.494-.389-.7-.6" transform="translate(-50.261 -5.15)"/>
    <path id="Path_9104" data-name="Path 9104" class="cls-4" d="M22.419,86.72h-3.6q-.191-9.109-1.051-17.133h-.032L12.26,86.72H9.521L4.076,69.587H4.044Q3.438,77.294,3.28,86.72H0q.318-11.465,1.592-21.5H6.051l5.191,15.8h.032l5.223-15.8h4.267q1.4,11.75,1.655,21.5" transform="translate(0 -29.026)"/>
    <path id="Path_9105" data-name="Path 9105" class="cls-4" d="M57.177,75.38q-2.2,11.924-5.8,17.331-2.8,4.165-6.147,4.165a6.059,6.059,0,0,1-2.2-.534V94.425a10.379,10.379,0,0,0,1.5.1,3.618,3.618,0,0,0,2.516-.861A3.139,3.139,0,0,0,48.2,91.3a15.709,15.709,0,0,0-.891-3.661L43.356,75.38h3.535l2.834,9.17a12.381,12.381,0,0,1,.8,4.365A59.868,59.868,0,0,0,53.77,75.38Z" transform="translate(-19.153 -33.546)"/>
    <path id="Path_9106" data-name="Path 9106" class="cls-5" d="M146.623,86.719H136.4v-21.5h3.44V84.075h6.783Z" transform="translate(-60.702 -29.026)"/>
    <path id="Path_9107" data-name="Path 9107" class="cls-6" d="M117.356,86.983l-3.951-1.948a7.4,7.4,0,0,0,.989-.961q2.516-2.958,2.517-8.756,0-10.667-8.376-10.669a7.931,7.931,0,0,0-6.4,2.708q-2.517,2.962-2.516,8.726,0,5.669,2.228,8.312,2.039,2.387,6.147,2.388a9.913,9.913,0,0,0,2.815-.377l5.145,2.994Zm-12.8-4.819q-1.306-2.1-1.306-6.75,0-8.121,4.936-8.122a4.145,4.145,0,0,1,3.79,1.942q1.305,2.1,1.306,6.688,0,8.185-4.936,8.186a4.138,4.138,0,0,1-3.789-1.944" transform="translate(-44.333 -28.77)"/>
    <path id="Path_9108" data-name="Path 9108" class="cls-5" d="M86.091,80.53a5.708,5.708,0,0,1-2.005,4.491,7.9,7.9,0,0,1-5.38,1.75,10.786,10.786,0,0,1-6.114-2.007l.923-1.846a10.481,10.481,0,0,0,4.616,1.273,4.845,4.845,0,0,0,3.041-.857,2.927,2.927,0,0,0,1.17-2.387c0-1.277-.89-2.368-2.523-3.283-1.508-.827-4.521-2.555-4.521-2.555a5.149,5.149,0,0,1-2.451-4.575,5.346,5.346,0,0,1,1.83-4.219A6.9,6.9,0,0,1,79.4,64.7,9.787,9.787,0,0,1,84.85,66.3l-.83,1.845a10.54,10.54,0,0,0-4.138-.891,3.685,3.685,0,0,0-2.546.8,2.661,2.661,0,0,0-.965,2.037c0,1.273.91,2.377,2.588,3.31,1.527.828,4.615,2.589,4.615,2.589a5.078,5.078,0,0,1,2.516,4.544" transform="translate(-32.305 -28.795)"/>
    <path id="Path_9109" data-name="Path 9109" class="cls-7" d="M134.39,29a12,12,0,0,0-5.039.728c-.39.155-1.012.155-1.066.649.209.208.234.545.417.832a6.064,6.064,0,0,0,1.35,1.584c.545.416,1.091.83,1.663,1.193,1.012.626,2.155.988,3.141,1.612.573.363,1.143.83,1.717,1.221.284.208.465.546.83.674V37.41c-.183-.233-.234-.571-.415-.832-.26-.258-.52-.493-.78-.751a12.372,12.372,0,0,0-2.7-2.623c-.832-.573-2.651-1.352-2.987-2.31l-.052-.053a10.356,10.356,0,0,0,1.793-.418c.882-.233,1.687-.18,2.6-.413.416-.1.832-.235,1.249-.363V29.41c-.47-.467-.806-1.091-1.3-1.532a34.789,34.789,0,0,0-4.286-3.194c-.806-.52-1.845-.856-2.7-1.3-.31-.157-.829-.233-1.012-.494a10.437,10.437,0,0,1-1.066-2c-.752-1.427-1.481-3.011-2.129-4.52a27.784,27.784,0,0,0-1.325-2.96A26.188,26.188,0,0,0,112.234,3.7a12.432,12.432,0,0,0-3.324-1.066c-.65-.028-1.3-.078-1.948-.1a10.34,10.34,0,0,1-1.2-.911c-1.481-.935-5.3-2.96-6.389-.285-.7,1.689,1.039,3.351,1.637,4.208a12.156,12.156,0,0,1,1.324,1.948c.182.442.234.91.417,1.377a30.858,30.858,0,0,0,1.351,3.481,12.226,12.226,0,0,0,.96,1.609c.21.288.572.416.65.885a7.441,7.441,0,0,0-.6,1.947,11.442,11.442,0,0,0,.754,8.727c.415.649,1.4,2.079,2.728,1.532,1.169-.467.909-1.947,1.247-3.245.077-.314.025-.52.181-.728v.053c.363.726.728,1.426,1.066,2.155a14.812,14.812,0,0,0,3.378,3.479c.622.47,1.115,1.273,1.895,1.56v-.079h-.052a2.846,2.846,0,0,0-.6-.518,12.756,12.756,0,0,1-1.351-1.559,33.21,33.21,0,0,1-2.908-4.728c-.417-.807-.779-1.689-1.118-2.494-.155-.31-.155-.779-.416-.934a9.764,9.764,0,0,0-1.246,1.764,14.693,14.693,0,0,0-.728,3.924c-.1.027-.052,0-.1.051-.83-.208-1.116-1.064-1.428-1.789a11.236,11.236,0,0,1-.234-6.938c.181-.544.962-2.258.649-2.778-.157-.5-.676-.779-.961-1.17a10.336,10.336,0,0,1-.934-1.662c-.624-1.455-.937-3.066-1.611-4.52a13.874,13.874,0,0,0-1.3-2,12.847,12.847,0,0,1-1.43-2.025c-.129-.286-.311-.754-.1-1.064a.416.416,0,0,1,.365-.339c.336-.285,1.3.077,1.635.234a13.157,13.157,0,0,1,2.571,1.3c.364.261.754.754,1.22.885h.547c.831.18,1.766.05,2.547.285a16.646,16.646,0,0,1,3.739,1.792,23.055,23.055,0,0,1,8.1,8.884c.312.6.443,1.142.728,1.764.546,1.276,1.221,2.575,1.766,3.82A17.068,17.068,0,0,0,125.56,23.9c.388.545,1.948.83,2.649,1.117a18.675,18.675,0,0,1,1.793.726c.884.545,1.765,1.169,2.6,1.768.415.312,1.713.961,1.791,1.481" transform="translate(-44.153 0)"/>
    <path id="Path_9110" data-name="Path 9110" class="cls-5" d="M162.959,101.842h.537V99.208h-.807l-.658,1.8-.716-1.8h-.779v2.634h.508v-2h.029l.749,2h.388l.748-2Zm-4.337,0h.569V99.655h.746v-.447h-2.091v.447h.775Z" transform="translate(-70.247 -44.151)"/>
  </g>
</svg>
