<svg data-name="Group 6066" xmlns="http://www.w3.org/2000/svg" width="61.837" height="63.753" viewBox="0 0 61.837 63.753">
    <defs>
        <clipPath id="02hh5r1aha">
            <path data-name="Rectangle 4140" style="fill:none" d="M0 0h61.837v63.753H0z"/>
        </clipPath>
    </defs>
    <g data-name="Group 6065" style="clip-path:url(#02hh5r1aha)">
        <path data-name="Path 9134" d="M61.673 38.189a3.135 3.135 0 0 0-2.6-2.1 5.92 5.92 0 0 0-2.078.113 18.644 18.644 0 0 1-3.2.422 61.839 61.839 0 0 0 6.539-15.552c2.168-8.4 1.01-12.225-.346-13.957C56.4 2.539 51.165.076 44.855 0a26.827 26.827 0 0 0-7.863 1.1 29.081 29.081 0 0 0-4.6-.42 14.947 14.947 0 0 0-8.01 1.973 36.444 36.444 0 0 0-5.657-1.421c-5.531-.907-9.989-.2-13.249 2.1C1.53 6.128-.3 10.973.04 17.74a82.624 82.624 0 0 0 3.2 14.887 51.465 51.465 0 0 0 3.447 8.8c1.7 3.224 3.522 5.122 5.567 5.8a5.471 5.471 0 0 0 5.416-1.173 4.752 4.752 0 0 0 1.14.98 7.6 7.6 0 0 0 2.147.9 11.545 11.545 0 0 0 7.513-.447c.015.39.025.762.034 1.085.015.523.029 1.035.048 1.513a26.5 26.5 0 0 0 1 7.517c.036.1.084.246.134.4a9.059 9.059 0 0 0 2.257 3.976 6.728 6.728 0 0 0 4.759 1.77 10.706 10.706 0 0 0 2.225-.248c2.378-.51 5.078-1.287 7.032-4.068 1.847-2.63 2.743-6.591 2.907-12.832l.059-.506.038-.33.437.04.111.006a17.216 17.216 0 0 0 7.2-1.247c1.438-.668 6.043-3.1 4.958-6.381" transform="translate(0 -.001)" style="fill:#040506"/>
        <path data-name="Path 9135" d="M56.132 37.426c-7.2 1.486-7.7-.953-7.7-.953 7.6-11.28 10.781-25.6 8.037-29.106-7.483-9.561-20.434-5.04-20.651-4.922l-.069.013a25.655 25.655 0 0 0-4.8-.5 11.863 11.863 0 0 0-7.6 2.277S.235-5.286 1.312 16.2c.227 4.574 6.551 34.595 14.1 25.527 2.758-3.317 5.422-6.119 5.422-6.119a7 7 0 0 0 4.566 1.169l.128-.109a5.043 5.043 0 0 0 .052 1.291c-1.944 2.173-1.373 2.552-5.258 3.352-3.929.81-1.62 2.252-.113 2.63 1.828.458 6.056 1.1 8.915-2.895l-.115.455c.762.611 1.3 3.967 1.207 7.011s-.149 5.132.451 6.763 1.2 5.3 6.3 4.211c4.267-.915 6.48-3.285 6.786-7.238.218-2.811.714-2.4.743-4.908l.4-1.19c.458-3.808.073-5.038 2.7-4.467l.64.057a14.561 14.561 0 0 0 5.953-1c3.2-1.486 5.1-3.965 1.944-3.314" transform="translate(1.402 1.401)" style="fill:#1e5681"/>
        <path data-name="Path 9136" d="M13.361 9.614a2.223 2.223 0 0 0-1.534.22.56.56 0 0 0-.233.374 1.092 1.092 0 0 0 .264.716 2 2 0 0 0 1.274.793 1.329 1.329 0 0 0 .2.015 1.653 1.653 0 0 0 1.568-1.064c.078-.565-.743-.942-1.539-1.052m21.5.017c-.063-.443-.85-.569-1.6-.466s-1.474.443-1.413.886a1.519 1.519 0 0 0 1.411.936 1.428 1.428 0 0 0 .189-.013 1.816 1.816 0 0 0 1.026-.563 1.131 1.131 0 0 0 .386-.781" transform="translate(12.737 10.038)" style="fill:#fff"/>
        <path data-name="Path 9137" d="M59.021 37.77c-.275-.829-1.159-1.1-2.626-.793-4.36.9-5.921.277-6.434-.1a59.982 59.982 0 0 0 7.681-17.225 32.73 32.73 0 0 0 1.138-7.406c.036-2.292-.355-3.976-1.159-5C54.376 3.094 49.613.871 43.847.81a23.615 23.615 0 0 0-7.962 1.255 19.751 19.751 0 0 0-4.479-.575 12.938 12.938 0 0 0-7.676 2.116 34.355 34.355 0 0 0-6.238-1.637c-5.055-.812-9.07-.2-11.935 1.835C2.136 6.225.558 10.556.862 16.675A80.8 80.8 0 0 0 3.99 31.129c2.437 7.983 5.084 12.5 7.872 13.43a3.5 3.5 0 0 0 1.117.185 4.661 4.661 0 0 0 3.558-2.017q2.374-2.846 4.908-5.55a7.907 7.907 0 0 0 3.529.949l.008.1q-.318.378-.621.768c-.854 1.083-1.031 1.308-3.776 1.872-.781.162-2.855.59-2.884 2.042-.034 1.589 2.452 2.257 2.733 2.326a11.685 11.685 0 0 0 2.844.369 8.267 8.267 0 0 0 5.693-2.126c-.046 5.663.189 11.243.869 12.943.556 1.392 1.916 4.792 6.213 4.792a9.967 9.967 0 0 0 2.089-.237c4.486-.961 6.432-2.943 7.185-7.313.4-2.334 1.1-7.911 1.421-10.9a8.793 8.793 0 0 0 2.525.313 15.037 15.037 0 0 0 5.737-1.094c1.618-.76 4.542-2.605 4.011-4.211zM48.343 17.558a18.2 18.2 0 0 1-.267 2.521 23.276 23.276 0 0 0-.317 2.96 22.482 22.482 0 0 0 .233 3.348c.269 2.233.544 4.532-.521 6.8a8.436 8.436 0 0 1-.472-.97c-.132-.321-.42-.838-.819-1.551-1.548-2.78-5.18-9.287-3.319-11.943.554-.789 1.956-1.603 5.482-1.165zM44.07 2.6c5.166.113 9.253 2.047 12.145 5.743 2.219 2.836-.225 15.737-7.3 26.868-.069-.09-.143-.181-.214-.271l-.09-.111c1.828-3.018 1.471-6.005 1.152-8.652a20.843 20.843 0 0 1-.222-3.077 22.08 22.08 0 0 1 .3-2.746 17.188 17.188 0 0 0 .279-3.4 1.373 1.373 0 0 0 .029-.479c-.113-1.222-1.509-4.876-4.351-8.186a19.62 19.62 0 0 0-6.919-5.2A23.338 23.338 0 0 1 44.07 2.6zm-28.9 38.988c-1.429 1.717-2.416 1.387-2.739 1.28-2.114-.705-4.568-5.174-6.73-12.259a80.293 80.293 0 0 1-3.057-14.025C2.372 11.118 3.7 7.308 6.584 5.26c4.7-3.331 12.422-1.337 15.527-.325-.044.044-.092.086-.136.13C16.882 10.209 17 19 17.015 19.533c0 .208.017.5.042.9a36.416 36.416 0 0 1-.185 7.345 9.29 9.29 0 0 0 2.448 7.775c.2.21.414.409.634.6-.874.937-2.769 3.005-4.789 5.433zm5.443-7.263a7.511 7.511 0 0 1-1.969-6.293 37.929 37.929 0 0 0 .2-7.7 29.168 29.168 0 0 1-.029-.554c.743-.659 4.192-2.506 6.652-1.944a2.708 2.708 0 0 1 2.089 2.336c1.471 6.805.2 9.641-.831 11.919-.21.47-.411.915-.581 1.373l-.144.356a23.469 23.469 0 0 0-.838 2.525 6.351 6.351 0 0 1-4.554-2.019zm.258 9.177a4.005 4.005 0 0 1-1.192-.512 5.7 5.7 0 0 1 1.27-.378c3.228-.665 3.728-1.133 4.817-2.517.25-.317.531-.676.924-1.115.584-.655.852-.544 1.335-.342a1.883 1.883 0 0 1 .93 1.2 1.326 1.326 0 0 1-.113 1.119c-2.275 3.184-5.59 3.144-7.97 2.548m16.9 15.726c-3.95.846-5.348-1.169-6.272-3.474-.594-1.486-.886-8.195-.678-15.6a.907.907 0 0 0-.04-.283 3.73 3.73 0 0 0-.109-.523 3.618 3.618 0 0 0-1.973-2.362 2.769 2.769 0 0 0-1.807-.22 22.4 22.4 0 0 1 .779-2.328l.132-.357c.149-.4.338-.819.537-1.262 1.073-2.385 2.542-5.651.947-13.029-.6-2.762-2.592-4.112-5.619-3.8a12.924 12.924 0 0 0-4.3 1.339c-.178.09-.342.176-.493.262.231-2.785 1.1-7.989 4.368-11.283a10.721 10.721 0 0 1 8.128-3.039A17.224 17.224 0 0 1 44.54 9.563a19.957 19.957 0 0 1 3.6 6.178c-3.329-.338-5.6.319-6.744 1.961-2.5 3.571 1.369 10.5 3.224 13.833.342.611.636 1.138.728 1.362a12.424 12.424 0 0 0 1.958 3.159c.176.218.346.43.474.615-1.008.292-2.819.963-2.655 4.322-.132 1.686-1.079 9.576-1.56 12.364-.633 3.681-1.989 5.053-5.799 5.87zm16.49-18.871a13.022 13.022 0 0 1-4.4.915 5.523 5.523 0 0 1-2.949-.38c-.1-2.093.676-2.311 1.5-2.544.13-.036.256-.071.378-.113.076.061.16.122.25.183 1.457.961 4.053 1.064 7.718.309l.04-.008a9.853 9.853 0 0 1-2.542 1.634z" transform="translate(.907 .888)" style="fill:#fff"/>
    </g>
</svg>
