<svg xmlns="http://www.w3.org/2000/svg" width="21" height="21" viewBox="0 0 21 21">
    <path data-name="Path 9054" d="M6.167 3.27A10.5 10.5 0 1 1 2.3 7.982 10.5 10.5 0 0 1 6.167 3.27zM7 19.483a9 9 0 1 0-3.315-4.039A9 9 0 0 0 7 19.483zm3.77-6.328v.517l2.445.023v-.435a1.5 1.5 0 0 1 .195-.75 3.209 3.209 0 0 1 .84-.81 4.5 4.5 0 0 0 1.185-1.185 2.633 2.633 0 0 0 .412-1.5A2.775 2.775 0 0 0 15.4 7.44a3.218 3.218 0 0 0-1.27-1.057A4.328 4.328 0 0 0 12.262 6a4.9 4.9 0 0 0-2.175.45 5.438 5.438 0 0 0-1.545 1.163l1.14 1.837a3.959 3.959 0 0 1 .99-.945A2.317 2.317 0 0 1 12 8.115a1.605 1.605 0 0 1 1 .233.885.885 0 0 1 .367.75 1.238 1.238 0 0 1-.225.75 3.824 3.824 0 0 1-.878.795 3.75 3.75 0 0 0-1.185 1.208 2.79 2.79 0 0 0-.309 1.304zm.609 4.734A1.576 1.576 0 0 0 12 18a1.6 1.6 0 0 0 1.163-.458 1.561 1.561 0 0 0 0-2.272A1.635 1.635 0 0 0 12 14.813a1.612 1.612 0 0 0-1.148.458 1.562 1.562 0 0 0 0 2.272 1.573 1.573 0 0 0 .528.346z" transform="translate(-1.5 -1.5)" style="fill:#f59600;fill-rule:evenodd"/>
</svg>
