<svg data-name="Group 4305" xmlns="http://www.w3.org/2000/svg" width="18.21" height="19.092" viewBox="0 0 18.21 19.092">
    <g data-name="Group 4297">
        <path data-name="Path 8017" d="M3017.017 467.009a.528.528 0 0 1-.517-.539v-6.4a.528.528 0 0 1 .517-.539h6.31a.539.539 0 0 1 0 1.077h-5.793v5.858a.528.528 0 0 1-.517.543z" transform="translate(-3016.5 -459.448)" style="fill:#f59600"/>
        <path data-name="Path 8018" d="M3024.252 450.6a.506.506 0 0 1-.366-.158l-5.8-6.041a.554.554 0 0 1 0-.762.5.5 0 0 1 .732 0l5.8 6.041a.555.555 0 0 1 0 .762.506.506 0 0 1-.366.158z" transform="translate(-3017.933 -443.397)" style="fill:#f59600"/>
    </g>
    <g data-name="Group 4300">
        <path data-name="Path 8017" d="M.517 7.474A.528.528 0 0 1 0 6.935V.539A.528.528 0 0 1 .517 0h6.31a.528.528 0 0 1 .517.539.528.528 0 0 1-.517.539H1.035v5.857a.528.528 0 0 1-.518.539z" style="fill:#f59600" transform="rotate(180 9.105 9.502)"/>
        <path data-name="Path 8018" d="M6.32 7.119a.506.506 0 0 1-.366-.158L.152.92a.554.554 0 0 1 0-.762.5.5 0 0 1 .732 0L6.686 6.2a.554.554 0 0 1 0 .762.506.506 0 0 1-.366.157z" transform="rotate(180 9.105 9.502)" style="fill:#f59600"/>
    </g>
    <g data-name="Group 4298">
        <path data-name="Path 8017" d="M.539 7.178A.528.528 0 0 1 0 6.661V.517A.528.528 0 0 1 .539 0h6.57a.528.528 0 0 1 .539.517.528.528 0 0 1-.539.517H1.078v5.627a.529.529 0 0 1-.539.517z" style="fill:#f59600" transform="rotate(90 9.105 9.105)"/>
        <path data-name="Path 8018" d="M6.58 6.837a.548.548 0 0 1-.38-.151L.158.883a.5.5 0 0 1 0-.732.555.555 0 0 1 .762 0l6.041 5.8a.5.5 0 0 1 0 .732.548.548 0 0 1-.381.154z" transform="rotate(90 9.105 9.105)" style="fill:#f59600"/>
    </g>
    <g data-name="Group 4299">
        <path data-name="Path 8017" d="M.539 7.178A.528.528 0 0 1 0 6.661V.517A.528.528 0 0 1 .539 0h6.57a.528.528 0 0 1 .539.517.528.528 0 0 1-.539.517H1.078v5.627a.529.529 0 0 1-.539.517z" style="fill:#f59600" transform="rotate(-90 9.546 9.546)"/>
        <path data-name="Path 8018" d="M6.58 6.837a.548.548 0 0 1-.38-.151L.158.883a.5.5 0 0 1 0-.732.555.555 0 0 1 .762 0l6.041 5.8a.5.5 0 0 1 0 .732.548.548 0 0 1-.381.154z" transform="rotate(-90 9.546 9.546)" style="fill:#f59600"/>
    </g>
</svg>
