<svg xmlns="http://www.w3.org/2000/svg" width="17.227" height="17.219" viewBox="0 0 17.227 17.219">
    <defs>
        <clipPath id="u1nosujt7a">
            <path data-name="Rectangle 13445" style="fill:#f59600" d="M0 0h17.227v17.219H0z"/>
        </clipPath>
    </defs>
    <g data-name="Group 25257">
        <g data-name="Group 25256" style="clip-path:url(#u1nosujt7a)">
            <path data-name="Path 74915" d="M14.99 17.219h-3.7v-1.746a1.157 1.157 0 0 0-.348-.838 1.169 1.169 0 0 0-.853-.363 1.2 1.2 0 0 0-1.191 1.2v1.746H5.184a2.24 2.24 0 0 1-2.237-2.237v-2.337h-.382a2.561 2.561 0 1 1 0-5.121h.382V5.176a2.24 2.24 0 0 1 2.237-2.237h2.347v-.382a2.561 2.561 0 0 1 5.121 0v.382h2.338a2.24 2.24 0 0 1 2.237 2.237v3.712h-1.746a1.2 1.2 0 0 0-.845.345l-.007.006a1.162 1.162 0 0 0-.349.84 1.2 1.2 0 0 0 1.2 1.2h1.746v3.7a2.239 2.239 0 0 1-2.237 2.237m-2.338-1.364h2.339a.864.864 0 0 0 .873-.873v-2.335h-.382a2.561 2.561 0 1 1 0-5.121h.382V5.176a.874.874 0 0 0-.873-.876h-3.7V2.557a1.182 1.182 0 0 0-.355-.846 1.205 1.205 0 0 0-.846-.346A1.193 1.193 0 0 0 8.9 2.557V4.3H5.184a.874.874 0 0 0-.873.873v3.715H2.565a1.205 1.205 0 0 0-.846.345 1.167 1.167 0 0 0-.355.846 1.2 1.2 0 0 0 1.2 1.2h1.747v3.7a.874.874 0 0 0 .873.873h2.347v-.382a2.564 2.564 0 0 1 2.556-2.565 2.576 2.576 0 0 1 2.565 2.565z" style="fill:#f59600"/>
        </g>
    </g>
</svg>
