<svg xmlns="http://www.w3.org/2000/svg" width="12.238" height="12.238" viewBox="0 0 12.238 12.238">
    <path data-name="Path 9189" d="M12.467 8.056h.4v-.874H11.8l-.174-.646a4.132 4.132 0 0 0-.406-.982l-.334-.58.474-.473.28-.28-.621-.621-.28.28-.474.473-.58-.334a4.14 4.14 0 0 0-.985-.404l-.646-.175V2.374h-.872v1.067l-.646.175a4.132 4.132 0 0 0-.982.406l-.58.334-.474-.474-.28-.282-.62.62.28.28.473.473-.334.58a4.132 4.132 0 0 0-.406.982l-.174.646H2.374v.874h1.067l.174.646a4.132 4.132 0 0 0 .406.982l.334.58-.473.473-.28.28.618.618.28-.28.474-.474.58.334a4.133 4.133 0 0 0 .982.406l.646.175v1.066h.874V11.8l.646-.175a4.134 4.134 0 0 0 .982-.406l.58-.334.474.474.28.28.618-.618-.28-.28-.474-.473.334-.58a4.132 4.132 0 0 0 .406-.982l.174-.646zm0-1.748h.4a.877.877 0 0 1 .874.874v.874a.877.877 0 0 1-.874.874h-.4a4.984 4.984 0 0 1-.492 1.19l.28.28a.876.876 0 0 1 0 1.236l-.618.618a.877.877 0 0 1-1.236 0l-.28-.28a5 5 0 0 1-1.19.492v.4a.877.877 0 0 1-.874.874h-.875a.877.877 0 0 1-.874-.874v-.4a5 5 0 0 1-1.19-.492l-.28.28a.877.877 0 0 1-1.236 0l-.618-.618a.876.876 0 0 1 0-1.236l.28-.28a4.983 4.983 0 0 1-.492-1.19h-.4a.877.877 0 0 1-.872-.874v-.874a.877.877 0 0 1 .874-.874h.4a4.984 4.984 0 0 1 .492-1.19l-.28-.28a.876.876 0 0 1 0-1.236l.614-.619a.877.877 0 0 1 1.236 0l.28.28a5.019 5.019 0 0 1 1.19-.492v-.4a.877.877 0 0 1 .876-.871h.874a.877.877 0 0 1 .874.874v.4a5.018 5.018 0 0 1 1.19.492l.28-.28a.877.877 0 0 1 1.236 0l.618.618a.876.876 0 0 1 0 1.236l-.28.28a4.985 4.985 0 0 1 .493 1.188zM5.652 7.619a1.967 1.967 0 1 0 1.967-1.967 1.969 1.969 0 0 0-1.967 1.967zm-.874 0a2.841 2.841 0 1 1 2.841 2.841 2.841 2.841 0 0 1-2.841-2.841z" transform="translate(-1.5 -1.5)" style="fill-rule:evenodd"/>
</svg>
