<svg width="14" height="14" viewBox="0 0 14 14" fill="none" xmlns="http://www.w3.org/2000/svg">
<path fill-rule="evenodd" clip-rule="evenodd" d="M6.98 9.99C5.32 9.99 3.98 8.65 3.98 6.99C3.98 5.33 5.32 3.99 6.98 3.99C8.64 3.99 9.98 5.33 9.98 6.99C9.98 8.65 8.64 9.99 6.98 9.99ZM12.98 5.49H12.53C12.4 5.01 12.21 4.55 11.97 4.13L12.29 3.81C12.68 3.42 12.68 2.79 12.29 2.4L11.58 1.69C11.19 1.3 10.56 1.3 10.17 1.69L9.85 2.01C9.43 1.77 8.97 1.58 8.49 1.45V1C8.49 0.45 8.04 0 7.49 0H6.49C5.94 0 5.49 0.45 5.49 1V1.45C5.01 1.58 4.55 1.77 4.13 2.01L3.81 1.69C3.42 1.3 2.78 1.3 2.4 1.69L1.69 2.4C1.3 2.79 1.3 3.42 1.69 3.81L2.01 4.13C1.77 4.55 1.58 5.01 1.45 5.49H1C0.45 5.49 0 5.94 0 6.49V7.49C0 8.04 0.45 8.49 1 8.49H1.45C1.58 8.97 1.77 9.43 2.01 9.85L1.69 10.17C1.3 10.56 1.3 11.19 1.69 11.58L2.4 12.29C2.79 12.68 3.42 12.68 3.81 12.29L4.13 11.97C4.55 12.21 5.01 12.4 5.49 12.53V12.98C5.49 13.53 5.94 13.98 6.49 13.98H7.49C8.04 13.98 8.49 13.53 8.49 12.98V12.53C8.97 12.4 9.43 12.21 9.85 11.97L10.17 12.29C10.56 12.68 11.2 12.68 11.58 12.29L12.29 11.58C12.68 11.19 12.68 10.56 12.29 10.17L11.97 9.85C12.21 9.43 12.4 8.97 12.53 8.49H12.98C13.53 8.49 13.98 8.04 13.98 7.49V6.49C13.98 5.94 13.53 5.49 12.98 5.49Z" fill="#F59600"/>
</svg>
