<svg width="24" height="24" viewBox="0 0 24 24" fill="none" xmlns="http://www.w3.org/2000/svg">
<circle cx="12" cy="12" r="12" fill="#4C4C4C"/>
<path fill-rule="evenodd" clip-rule="evenodd" d="M11.98 14.99C10.32 14.99 8.98 13.65 8.98 11.99C8.98 10.33 10.32 8.99 11.98 8.99C13.64 8.99 14.98 10.33 14.98 11.99C14.98 13.65 13.64 14.99 11.98 14.99ZM17.98 10.49H17.53C17.4 10.01 17.21 9.55 16.97 9.13L17.29 8.81C17.68 8.42 17.68 7.79 17.29 7.4L16.58 6.69C16.19 6.3 15.56 6.3 15.17 6.69L14.85 7.01C14.43 6.77 13.97 6.58 13.49 6.45V6C13.49 5.45 13.04 5 12.49 5H11.49C10.94 5 10.49 5.45 10.49 6V6.45C10.01 6.58 9.55 6.77 9.13 7.01L8.81 6.69C8.42 6.3 7.78 6.3 7.4 6.69L6.69 7.4C6.3 7.79 6.3 8.42 6.69 8.81L7.01 9.13C6.77 9.55 6.58 10.01 6.45 10.49H6C5.45 10.49 5 10.94 5 11.49V12.49C5 13.04 5.45 13.49 6 13.49H6.45C6.58 13.97 6.77 14.43 7.01 14.85L6.69 15.17C6.3 15.56 6.3 16.19 6.69 16.58L7.4 17.29C7.79 17.68 8.42 17.68 8.81 17.29L9.13 16.97C9.55 17.21 10.01 17.4 10.49 17.53V17.98C10.49 18.53 10.94 18.98 11.49 18.98H12.49C13.04 18.98 13.49 18.53 13.49 17.98V17.53C13.97 17.4 14.43 17.21 14.85 16.97L15.17 17.29C15.56 17.68 16.2 17.68 16.58 17.29L17.29 16.58C17.68 16.19 17.68 15.56 17.29 15.17L16.97 14.85C17.21 14.43 17.4 13.97 17.53 13.49H17.98C18.53 13.49 18.98 13.04 18.98 12.49V11.49C18.98 10.94 18.53 10.49 17.98 10.49Z" fill="white"/>
</svg>
