<svg xmlns="http://www.w3.org/2000/svg" width="21" height="21" viewBox="0 0 21 21">
    <path data-name="Path 9044" d="M20.318 12.75H21v-1.5h-1.831l-.3-1.109a7.091 7.091 0 0 0-.7-1.685l-.574-1 .813-.812.481-.481-1.06-1.061-.481.481-.808.817-1-.573a7.1 7.1 0 0 0-1.685-.7l-1.109-.3V3h-1.5v1.83l-1.109.3a7.09 7.09 0 0 0-1.684.7l-1 .573-.813-.812-.481-.481-1.053 1.057.481.481.812.812-.573 1a7.09 7.09 0 0 0-.7 1.685l-.3 1.109H3v1.5h1.831l.3 1.109a7.09 7.09 0 0 0 .7 1.685l.573 1-.812.812-.481.481 1.061 1.06.481-.481.807-.82 1 .574a7.092 7.092 0 0 0 1.684.7l1.109.3V21h1.5v-1.83l1.109-.3a7.093 7.093 0 0 0 1.685-.7l1-.574.813.813.481.481 1.06-1.06-.481-.481-.813-.812.574-1a7.091 7.091 0 0 0 .7-1.685l.3-1.109zm0-3H21a1.5 1.5 0 0 1 1.5 1.5v1.5a1.5 1.5 0 0 1-1.5 1.5h-.682a8.552 8.552 0 0 1-.844 2.042l.481.481a1.5 1.5 0 0 1 0 2.121l-1.061 1.061a1.5 1.5 0 0 1-2.121 0l-.481-.481a8.581 8.581 0 0 1-2.042.844V21a1.5 1.5 0 0 1-1.5 1.5h-1.5a1.5 1.5 0 0 1-1.5-1.5v-.682a8.583 8.583 0 0 1-2.042-.844l-.481.481a1.5 1.5 0 0 1-2.121 0l-1.061-1.061a1.5 1.5 0 0 1 0-2.121l.481-.481a8.55 8.55 0 0 1-.844-2.042H3a1.5 1.5 0 0 1-1.5-1.5v-1.5A1.5 1.5 0 0 1 3 9.75h.682a8.552 8.552 0 0 1 .844-2.042l-.481-.481a1.5 1.5 0 0 1 0-2.121l1.061-1.061a1.5 1.5 0 0 1 2.121 0l.481.48a8.612 8.612 0 0 1 2.042-.843V3a1.5 1.5 0 0 1 1.5-1.5h1.5a1.5 1.5 0 0 1 1.5 1.5v.682a8.61 8.61 0 0 1 2.042.844l.481-.48a1.5 1.5 0 0 1 2.121 0l1.061 1.061a1.5 1.5 0 0 1 0 2.121l-.481.481a8.554 8.554 0 0 1 .844 2.041zM8.625 12A3.375 3.375 0 1 0 12 8.625 3.379 3.379 0 0 0 8.625 12zm-1.5 0A4.875 4.875 0 1 1 12 16.875 4.875 4.875 0 0 1 7.125 12z" transform="translate(-1.5 -1.5)" style="fill:#f59600;fill-rule:evenodd"/>
</svg>
