<svg xmlns="http://www.w3.org/2000/svg" width="12.044" height="12.074" viewBox="0 0 12.044 12.074">
    <defs>
        <clipPath id="4db0m2vv2a">
            <path data-name="Rectangle 4139" style="fill:none" d="M0 0h12.044v12.074H0z"/>
        </clipPath>
    </defs>
    <g data-name="Group 25267">
        <g data-name="Group 6063" style="clip-path:url(#4db0m2vv2a)">
            <path data-name="Path 9127" d="m12.681 11.865-2.548-1.472a.749.749 0 0 0-1.12.721v2.878a.746.746 0 0 0 1.492 0v-1.655l1.428.824a.749.749 0 1 0 .749-1.3" transform="translate(-2.331 -2.663)" style="fill:#05a8e4"/>
            <path data-name="Path 9128" d="M4.012 7.384a.733.733 0 0 0-.365-.646L1.1 5.266a.724.724 0 0 0-.364-.1.731.731 0 0 0-.37 1.367l1.469.848-1.469.848a.732.732 0 0 0-.268 1 .732.732 0 0 0 1 .268l2.548-1.472a.736.736 0 0 0 .365-.641" transform="translate(0 -1.337)" style="fill:#05a8e4"/>
            <path data-name="Path 9129" d="m2.13 2.886 2.549 1.471A.767.767 0 0 0 5.818 3.7V.746a.746.746 0 1 0-1.491 0v1.679l-1.448-.836a.749.749 0 1 0-.749 1.3" transform="translate(-.454)" style="fill:#05a8e4"/>
            <path data-name="Path 9130" d="M9.023 7.79a.294.294 0 0 1-.073.176l-1.01 1.01a.289.289 0 0 1-.176.073h-.256a.289.289 0 0 1-.176-.073L6.321 7.965a.294.294 0 0 1-.073-.176v-.257a.285.285 0 0 1 .073-.176l1.011-1.01a.285.285 0 0 1 .176-.073h.256a.285.285 0 0 1 .176.073l1.01 1.01a.285.285 0 0 1 .073.176zm-.9-.125v-.01a.211.211 0 0 0-.053-.129l-.3-.3a.2.2 0 0 0-.129-.054H7.63a.208.208 0 0 0-.129.054l-.3.3a.208.208 0 0 0-.053.129v.01a.21.21 0 0 0 .053.13l.3.3a.215.215 0 0 0 .129.053h.011a.211.211 0 0 0 .129-.053l.3-.3a.21.21 0 0 0 .053-.13" transform="translate(-1.617 -1.623)" style="fill:#05a8e4"/>
            <path data-name="Path 9131" d="m10.133 4.357 2.548-1.471a.749.749 0 1 0-.749-1.3l-1.428.824V.746a.746.746 0 1 0-1.492 0v2.89a.749.749 0 0 0 1.12.721" transform="translate(-2.331)" style="fill:#05a8e4"/>
            <path data-name="Path 9132" d="M5.189 10.305a.743.743 0 0 0-.511.087l-2.549 1.472a.749.749 0 0 0 .749 1.3l1.448-.836v1.666a.746.746 0 1 0 1.491 0v-2.951a.746.746 0 0 0-.628-.738" transform="translate(-.454 -2.663)" style="fill:#05a8e4"/>
            <path data-name="Path 9133" d="M14.735 5.519a.748.748 0 0 0-1.023-.274l-2.55 1.47a.767.767 0 0 0 0 1.317l2.549 1.473a.749.749 0 0 0 .749-1.3l-1.443-.833 1.443-.833a.747.747 0 0 0 .274-1.022" transform="translate(-2.791 -1.331)" style="fill:#05a8e4"/>
        </g>
    </g>
</svg>
