<svg xmlns="http://www.w3.org/2000/svg" width="50.715" height="50.84" viewBox="0 0 50.715 50.84">
    <defs>
        <clipPath id="pvgtn5rr2a">
            <path data-name="Rectangle 4139" style="fill:none" d="M0 0h50.715v50.84H0z"/>
        </clipPath>
    </defs>
    <g data-name="Group 6064">
        <g data-name="Group 6063" style="clip-path:url(#pvgtn5rr2a)">
            <path data-name="Path 9127" d="m24.472 16.913-10.731-6.2a3.152 3.152 0 0 0-4.716 3.037v12.118a3.142 3.142 0 0 0 6.283 0V18.9l6.012 3.471a3.152 3.152 0 1 0 3.153-5.459" transform="translate(19.111 21.834)" style="fill:#05a8e4"/>
            <path data-name="Path 9128" d="M16.893 14.5a3.087 3.087 0 0 0-1.539-2.722L4.62 5.58a3.05 3.05 0 0 0-1.533-.412 3.078 3.078 0 0 0-1.545 5.746l6.186 3.571-6.185 3.571a3.082 3.082 0 0 0-1.13 4.208 3.08 3.08 0 0 0 4.208 1.13l10.734-6.2a3.1 3.1 0 0 0 1.539-2.7" transform="translate(-.001 10.962)" style="fill:#05a8e4"/>
            <path data-name="Path 9129" d="m3.334 12.151 10.731 6.2a3.231 3.231 0 0 0 4.8-2.787V3.143a3.14 3.14 0 1 0-6.28 0v7.067l-6.1-3.518a3.152 3.152 0 1 0-3.153 5.459" transform="translate(3.723 -.001)" style="fill:#05a8e4"/>
            <path data-name="Path 9130" d="M17.934 12.659a1.238 1.238 0 0 1-.306.74l-4.251 4.251a1.216 1.216 0 0 1-.743.306h-1.08a1.216 1.216 0 0 1-.743-.306L6.554 13.4a1.238 1.238 0 0 1-.306-.74v-1.084a1.2 1.2 0 0 1 .306-.743l4.257-4.254a1.2 1.2 0 0 1 .743-.306h1.08a1.2 1.2 0 0 1 .743.306l4.251 4.254a1.2 1.2 0 0 1 .306.743zm-3.8-.524v-.044a.889.889 0 0 0-.225-.543l-1.25-1.248a.861.861 0 0 0-.543-.228h-.047a.875.875 0 0 0-.543.228l-1.252 1.252a.874.874 0 0 0-.225.543v.044a.883.883 0 0 0 .225.546l1.252 1.255a.9.9 0 0 0 .543.222h.047a.889.889 0 0 0 .543-.222l1.255-1.255a.883.883 0 0 0 .225-.546" transform="translate(13.254 13.306)" style="fill:#05a8e4"/>
            <path data-name="Path 9131" d="m13.74 18.347 10.731-6.2a3.152 3.152 0 1 0-3.153-5.459l-6.012 3.471V3.143a3.142 3.142 0 1 0-6.283 0v12.17a3.153 3.153 0 0 0 4.716 3.034" transform="translate(19.112 -.001)" style="fill:#05a8e4"/>
            <path data-name="Path 9132" d="M16.218 10.348a3.128 3.128 0 0 0-2.151.365l-10.734 6.2a3.153 3.153 0 0 0 3.153 5.462l6.1-3.521v7.014a3.14 3.14 0 1 0 6.28 0V13.453a3.142 3.142 0 0 0-2.644-3.106" transform="translate(3.721 21.832)" style="fill:#05a8e4"/>
            <path data-name="Path 9133" d="M27.406 6.724A3.148 3.148 0 0 0 23.1 5.569l-10.736 6.192a3.228 3.228 0 0 0 0 5.547L23.1 23.51a3.155 3.155 0 0 0 3.153-5.465l-6.077-3.508 6.077-3.508a3.144 3.144 0 0 0 1.155-4.3" transform="translate(22.884 10.911)" style="fill:#05a8e4"/>
        </g>
    </g>
</svg>
