<svg data-name="Group 25277" xmlns="http://www.w3.org/2000/svg" width="12.72" height="12.77" viewBox="0 0 12.72 12.77">
    <path data-name="Path 74941" d="M0 .5A.5.5 0 0 1 .5 0h5.85a.5.5 0 0 1 .5.5v11.77a.5.5 0 0 1-.5.5H.5a.5.5 0 0 1-.5-.5zM1 1v10.77h4.85V1z" style="fill:#75aab7;fill-rule:evenodd"/>
    <path data-name="Path 74942" d="M6.37 3.34H.48v-1h5.89z" style="fill:#75aab7;fill-rule:evenodd"/>
    <path data-name="Path 74943" d="M4.68 6.19H2.17v-1h2.51z" style="fill:#75aab7;fill-rule:evenodd"/>
    <path data-name="Path 74944" d="M4.68 8.09H2.17v-1h2.51z" style="fill:#75aab7;fill-rule:evenodd"/>
    <path data-name="Path 74945" d="M4.68 9.99H2.17v-1h2.51z" style="fill:#75aab7;fill-rule:evenodd"/>
    <path data-name="Path 74946" d="M5.87.5a.5.5 0 0 1 .5-.5h5.85a.5.5 0 0 1 .5.5v11.77a.5.5 0 0 1-.5.5H6.37a.5.5 0 0 1-.5-.5zm1 .5v10.77h4.85V1z" style="fill:#75aab7;fill-rule:evenodd"/>
    <path data-name="Path 74947" d="M12.23 3.34H6.35v-1h5.88z" style="fill:#75aab7;fill-rule:evenodd"/>
    <path data-name="Path 74948" d="M10.54 6.19h-2.5v-1h2.5z" style="fill:#75aab7;fill-rule:evenodd"/>
    <path data-name="Path 74949" d="M10.54 8.09h-2.5v-1h2.5z" style="fill:#75aab7;fill-rule:evenodd"/>
    <path data-name="Path 74950" d="M10.54 9.99h-2.5v-1h2.5z" style="fill:#75aab7;fill-rule:evenodd"/>
</svg>
