<svg width="14" height="14" viewBox="0 0 14 14" fill="none" xmlns="http://www.w3.org/2000/svg">
<path fill-rule="evenodd" clip-rule="evenodd" d="M12.99 7.71C12.99 7.71 13 7.74 12.99 7.75L7.75 12.99H7.71L1 6.28V1.03C1 1.03 1.01 1 1.03 1H6.28L12.99 7.71ZM7 13.7C7.2 13.9 7.46 14 7.73 14C8 14 8.26 13.9 8.46 13.7L13.7 8.46C14.1 8.06 14.1 7.41 13.7 7L6.7 0H1.03C0.46 0 0 0.46 0 1.03V6.7L7 13.7ZM3.5 4C3.22 4 3 3.78 3 3.5C3 3.22 3.22 3 3.5 3C3.78 3 4 3.22 4 3.5C4 3.78 3.78 4 3.5 4ZM3.5 2C2.67 2 2 2.67 2 3.5C2 4.33 2.67 5 3.5 5C4.33 5 5 4.33 5 3.5C5 2.67 4.33 2 3.5 2Z" fill="#F59600"/>
</svg>
