<svg width="3" height="14" viewBox="0 0 3 14" fill="none" xmlns="http://www.w3.org/2000/svg">
<path fill-rule="evenodd" clip-rule="evenodd" d="M3 1.5C3 2.32843 2.32843 3 1.5 3C0.67157 3 0 2.32843 0 1.5C0 0.67157 0.67157 0 1.5 0C2.32843 0 3 0.67157 3 1.5ZM1.5 8.5C2.32843 8.5 3 7.82843 3 7C3 6.17157 2.32843 5.5 1.5 5.5C0.67157 5.5 0 6.17157 0 7C0 7.82843 0.67157 8.5 1.5 8.5ZM1.5 14C2.32843 14 3 13.3284 3 12.5C3 11.6716 2.32843 11 1.5 11C0.67157 11 0 11.6716 0 12.5C0 13.3284 0.67157 14 1.5 14Z" fill="#F59600"/>
</svg>
