<svg width="20" height="14" viewBox="0 0 20 14" fill="none" xmlns="http://www.w3.org/2000/svg">
<path d="M12.4997 6.99967C14.3413 6.99967 15.833 5.50801 15.833 3.66634C15.833 1.82467 14.3413 0.333008 12.4997 0.333008C10.658 0.333008 9.16634 1.82467 9.16634 3.66634C9.16634 5.50801 10.658 6.99967 12.4997 6.99967ZM4.99967 5.33301V3.66634C4.99967 3.20801 4.62467 2.83301 4.16634 2.83301C3.70801 2.83301 3.33301 3.20801 3.33301 3.66634V5.33301H1.66634C1.20801 5.33301 0.833008 5.70801 0.833008 6.16634C0.833008 6.62467 1.20801 6.99967 1.66634 6.99967H3.33301V8.66634C3.33301 9.12467 3.70801 9.49967 4.16634 9.49967C4.62467 9.49967 4.99967 9.12467 4.99967 8.66634V6.99967H6.66634C7.12467 6.99967 7.49967 6.62467 7.49967 6.16634C7.49967 5.70801 7.12467 5.33301 6.66634 5.33301H4.99967ZM12.4997 8.66634C10.2747 8.66634 5.83301 9.78301 5.83301 11.9997V12.833C5.83301 13.2913 6.20801 13.6663 6.66634 13.6663H18.333C18.7913 13.6663 19.1663 13.2913 19.1663 12.833V11.9997C19.1663 9.78301 14.7247 8.66634 12.4997 8.66634Z" fill="#1F2022"/>
</svg>
