<svg width="20" height="25" viewBox="0 0 20 25" fill="none" xmlns="http://www.w3.org/2000/svg">
<path d="M10.0002 24.5C11.3752 24.5 12.5002 23.375 12.5002 22H7.50019C7.50019 23.375 8.61269 24.5 10.0002 24.5ZM17.5002 17V10.75C17.5002 6.9125 15.4502 3.7 11.8752 2.85V2C11.8752 0.9625 11.0377 0.125 10.0002 0.125C8.96269 0.125 8.12519 0.9625 8.12519 2V2.85C4.53769 3.7 2.50019 6.9 2.50019 10.75V17L0.887686 18.6125C0.100186 19.4 0.650186 20.75 1.76269 20.75H18.2252C19.3377 20.75 19.9002 19.4 19.1127 18.6125L17.5002 17Z" fill="#F59500"/>
</svg>
