<svg width="40" height="40" viewBox="0 0 40 40" fill="none" xmlns="http://www.w3.org/2000/svg">
<path d="M34.7191 9.33617L23.7379 2.49572C21.9642 1.39081 19.0864 1.39036 17.3118 2.49572L6.33061 9.33617C4.55687 10.4411 4.55606 12.2338 6.33061 13.3391L17.3118 20.1796C19.0855 21.2845 21.9634 21.2849 23.7379 20.1796L34.7191 13.3391C36.4929 12.2342 36.4937 10.4415 34.7191 9.33617ZM22.1818 16.9589C21.277 17.5331 19.8062 17.5308 18.9052 16.9589L10.0585 11.3448L18.9052 5.74781C19.81 5.17536 21.2808 5.17781 22.1818 5.74781L31.0285 11.3448L22.1818 16.9589Z" fill="#F59500"/>
<path d="M34.7192 17.3101L34.4901 17.1674L22.9512 24.4481L22.9469 24.4475L22.1819 24.9329C21.2771 25.507 19.8063 25.5047 18.9053 24.9329L10.0586 19.3187L10.0606 19.3175L6.6035 17.14L6.33061 17.31C4.55687 18.4149 4.55606 20.2076 6.33061 21.313L17.3118 28.1534C19.0855 29.2583 21.9634 29.2588 23.7379 28.1534L34.7191 21.313C36.493 20.2081 36.4938 18.4155 34.7192 17.3101Z" fill="#F59500"/>
<path d="M34.7191 25.0465L34.49 24.9038L22.9511 32.1845L22.9468 32.1838L22.1818 32.6692C21.277 33.2434 19.8062 33.241 18.9052 32.6692L10.0586 27.0551L10.0606 27.0538L6.6035 24.8765L6.33061 25.0465C4.55687 26.1514 4.55606 27.9441 6.33061 29.0494L17.3118 35.8899C19.0855 36.9948 21.9634 36.9952 23.7379 35.8899L34.7191 29.0494C36.4929 27.9445 36.4937 26.1518 34.7191 25.0465Z" fill="#F59500"/>
</svg>
