<svg width="17" height="20" viewBox="0 0 17 20" fill="none" xmlns="http://www.w3.org/2000/svg">
<path d="M11.5003 0.833374H2.33366C1.41699 0.833374 0.666992 1.58337 0.666992 2.50004V13.3334C0.666992 13.7917 1.04199 14.1667 1.50033 14.1667C1.95866 14.1667 2.33366 13.7917 2.33366 13.3334V3.33337C2.33366 2.87504 2.70866 2.50004 3.16699 2.50004H11.5003C11.9587 2.50004 12.3337 2.12504 12.3337 1.66671C12.3337 1.20837 11.9587 0.833374 11.5003 0.833374ZM11.992 4.65837L16.017 8.68337C16.3253 8.99171 16.5003 9.41671 16.5003 9.85837V17.5C16.5003 18.4167 15.7503 19.1667 14.8337 19.1667H5.65866C4.74199 19.1667 4.00033 18.4167 4.00033 17.5L4.00866 5.83337C4.00866 4.91671 4.75033 4.16671 5.66699 4.16671H10.8087C11.2503 4.16671 11.6753 4.34171 11.992 4.65837ZM11.5003 10H15.2503L10.667 5.41671V9.16671C10.667 9.62504 11.042 10 11.5003 10Z" fill="white"/>
</svg>
