<svg width="20" height="18" viewBox="0 0 20 18" fill="none" xmlns="http://www.w3.org/2000/svg">
<path d="M17.4997 7.33329V2.33329C17.4997 1.41663 16.7497 0.666626 15.833 0.666626H2.49967C1.58301 0.666626 0.841341 1.41663 0.841341 2.33329L0.833008 12.3333C0.833008 13.25 1.58301 14 2.49967 14H11.6663V9.83329C11.6663 8.44996 12.783 7.33329 14.1663 7.33329H17.4997ZM9.60801 7.89163C9.34134 8.05829 8.99134 8.05829 8.72467 7.89163L2.83301 4.20829C2.62467 4.07496 2.49967 3.84996 2.49967 3.60829C2.49967 3.04996 3.10801 2.71663 3.58301 3.00829L9.16634 6.49996L14.7497 3.00829C15.2247 2.71663 15.833 3.04996 15.833 3.60829C15.833 3.84996 15.708 4.07496 15.4997 4.20829L9.60801 7.89163Z" fill="white"/>
<path d="M18.3333 10.6666C17.875 10.6666 17.5 11.0416 17.5 11.5V14C17.5 14.9166 16.75 15.6666 15.8333 15.6666C14.9167 15.6666 14.1667 14.9166 14.1667 14V10.25C14.1667 10.0166 14.35 9.83329 14.5833 9.83329C14.8167 9.83329 15 10.0166 15 10.25V13.1666C15 13.625 15.375 14 15.8333 14C16.2917 14 16.6667 13.625 16.6667 13.1666V10.25C16.6667 9.09996 15.7333 8.16663 14.5833 8.16663C13.4333 8.16663 12.5 9.09996 12.5 10.25V14C12.5 15.8416 13.9917 17.3333 15.8333 17.3333C17.675 17.3333 19.1667 15.8416 19.1667 14V11.5C19.1667 11.0416 18.7917 10.6666 18.3333 10.6666Z" fill="white"/>
</svg>
