<svg width="18" height="18" viewBox="0 0 18 18" fill="none" xmlns="http://www.w3.org/2000/svg">
<path d="M15.667 0.666626H5.66699C4.75033 0.666626 4.00033 1.41663 4.00033 2.33329V12.3333C4.00033 13.25 4.75033 14 5.66699 14H15.667C16.5837 14 17.3337 13.25 17.3337 12.3333V2.33329C17.3337 1.41663 16.5837 0.666626 15.667 0.666626ZM8.58366 6.91663C8.58366 7.60829 8.02533 8.16663 7.33366 8.16663H6.50033V9.20829C6.50033 9.54996 6.21699 9.83329 5.87533 9.83329C5.53366 9.83329 5.25033 9.54996 5.25033 9.20829V5.66663C5.25033 5.20829 5.62533 4.83329 6.08366 4.83329H7.33366C8.02533 4.83329 8.58366 5.39163 8.58366 6.08329V6.91663ZM12.7503 8.58329C12.7503 9.27496 12.192 9.83329 11.5003 9.83329H9.83366C9.60033 9.83329 9.41699 9.64996 9.41699 9.41663V5.24996C9.41699 5.01663 9.60033 4.83329 9.83366 4.83329H11.5003C12.192 4.83329 12.7503 5.39163 12.7503 6.08329V8.58329ZM16.0837 5.45829C16.0837 5.79996 15.8003 6.08329 15.4587 6.08329H14.8337V6.91663H15.4587C15.8003 6.91663 16.0837 7.19996 16.0837 7.54163C16.0837 7.88329 15.8003 8.16663 15.4587 8.16663H14.8337V9.20829C14.8337 9.54996 14.5503 9.83329 14.2087 9.83329C13.867 9.83329 13.5837 9.54996 13.5837 9.20829V5.66663C13.5837 5.20829 13.9587 4.83329 14.417 4.83329H15.4587C15.8003 4.83329 16.0837 5.11663 16.0837 5.45829ZM6.50033 6.91663H7.33366V6.08329H6.50033V6.91663ZM1.50033 3.99996C1.04199 3.99996 0.666992 4.37496 0.666992 4.83329V15.6666C0.666992 16.5833 1.41699 17.3333 2.33366 17.3333H13.167C13.6253 17.3333 14.0003 16.9583 14.0003 16.5C14.0003 16.0416 13.6253 15.6666 13.167 15.6666H3.16699C2.70866 15.6666 2.33366 15.2916 2.33366 14.8333V4.83329C2.33366 4.37496 1.95866 3.99996 1.50033 3.99996ZM10.667 8.58329H11.5003V6.08329H10.667V8.58329Z" fill="white"/>
</svg>
