<svg width="24" height="26" viewBox="0 0 24 26" fill="none" xmlns="http://www.w3.org/2000/svg">
<path d="M20.75 2.75H15.525C15 1.3 13.625 0.25 12 0.25C10.375 0.25 9 1.3 8.475 2.75H3.25C3.075 2.75 2.9125 2.7625 2.75 2.8C2.2625 2.9 1.825 3.15 1.4875 3.4875C1.2625 3.7125 1.075 3.9875 0.95 4.2875C0.825 4.575 0.75 4.9 0.75 5.25V22.75C0.75 23.0875 0.825 23.425 0.95 23.725C1.075 24.025 1.2625 24.2875 1.4875 24.525C1.825 24.8625 2.2625 25.1125 2.75 25.2125C2.9125 25.2375 3.075 25.25 3.25 25.25H20.75C22.125 25.25 23.25 24.125 23.25 22.75V5.25C23.25 3.875 22.125 2.75 20.75 2.75ZM9.875 17.6C9.3875 18.0875 8.5875 18.0875 8.1 17.6L5.3875 14.8875C4.9 14.4 4.9 13.6125 5.3875 13.125L8.1 10.4125C8.5875 9.925 9.3875 9.925 9.875 10.4125C10.3625 10.9 10.3625 11.6875 9.875 12.175L8.0375 14L9.8625 15.825C10.35 16.3125 10.3625 17.1125 9.875 17.6ZM12 4.3125C11.4875 4.3125 11.0625 3.8875 11.0625 3.375C11.0625 2.8625 11.4875 2.4375 12 2.4375C12.5125 2.4375 12.9375 2.8625 12.9375 3.375C12.9375 3.8875 12.5125 4.3125 12 4.3125ZM14.125 17.6C13.6375 17.1125 13.6375 16.325 14.125 15.8375L15.9625 14L14.125 12.1625C13.6375 11.675 13.6375 10.8875 14.125 10.4C14.6125 9.9125 15.4125 9.9125 15.9 10.4L18.6125 13.1125C19.1 13.6 19.1 14.3875 18.6125 14.875L15.9 17.5875C15.4125 18.0875 14.6125 18.0875 14.125 17.6Z" fill="#F59500"/>
</svg>
