<svg width="26" height="24" viewBox="0 0 26 24" fill="none" xmlns="http://www.w3.org/2000/svg">
<path d="M6.125 23.25H1.75C1.0625 23.25 0.5 22.6875 0.5 22V9.5C0.5 8.8125 1.0625 8.25 1.75 8.25H6.125C6.8125 8.25 7.375 8.8125 7.375 9.5V22C7.375 22.6875 6.8125 23.25 6.125 23.25ZM15.1875 0.75H10.8125C10.125 0.75 9.5625 1.3125 9.5625 2V22C9.5625 22.6875 10.125 23.25 10.8125 23.25H15.1875C15.875 23.25 16.4375 22.6875 16.4375 22V2C16.4375 1.3125 15.875 0.75 15.1875 0.75ZM24.25 10.75H19.875C19.1875 10.75 18.625 11.3125 18.625 12V22C18.625 22.6875 19.1875 23.25 19.875 23.25H24.25C24.9375 23.25 25.5 22.6875 25.5 22V12C25.5 11.3125 24.9375 10.75 24.25 10.75Z" fill="#F59500"/>
</svg>
