<svg width="26" height="26" viewBox="0 0 26 26" fill="none" xmlns="http://www.w3.org/2000/svg">
<path d="M22.3751 13C22.3751 12.7125 22.3626 12.4375 22.3376 12.15L24.6626 10.3875C25.1626 10.0125 25.3001 9.3125 24.9876 8.7625L22.6501 4.725C22.3376 4.175 21.6626 3.95 21.0876 4.2L18.4001 5.3375C17.9376 5.0125 17.4501 4.725 16.9376 4.4875L16.5751 1.6C16.5001 0.975 15.9626 0.5 15.3376 0.5H10.6751C10.0376 0.5 9.50007 0.975 9.42507 1.6L9.06257 4.4875C8.55007 4.725 8.06257 5.0125 7.60007 5.3375L4.91257 4.2C4.33757 3.95 3.66257 4.175 3.35007 4.725L1.01257 8.775C0.70007 9.325 0.83757 10.0125 1.33757 10.4L3.66257 12.1625C3.63757 12.4375 3.62507 12.7125 3.62507 13C3.62507 13.2875 3.63757 13.5625 3.66257 13.85L1.33757 15.6125C0.83757 15.9875 0.70007 16.6875 1.01257 17.2375L3.35007 21.275C3.66257 21.825 4.33757 22.05 4.91257 21.8L7.60007 20.6625C8.06257 20.9875 8.55007 21.275 9.06257 21.5125L9.42507 24.4C9.50007 25.025 10.0376 25.5 10.6626 25.5H15.3251C15.9501 25.5 16.4876 25.025 16.5626 24.4L16.9251 21.5125C17.4376 21.275 17.9251 20.9875 18.3876 20.6625L21.0751 21.8C21.6501 22.05 22.3251 21.825 22.6376 21.275L24.9751 17.2375C25.2876 16.6875 25.1501 16 24.6501 15.6125L22.3251 13.85C22.3626 13.5625 22.3751 13.2875 22.3751 13ZM13.0501 17.375C10.6376 17.375 8.67507 15.4125 8.67507 13C8.67507 10.5875 10.6376 8.625 13.0501 8.625C15.4626 8.625 17.4251 10.5875 17.4251 13C17.4251 15.4125 15.4626 17.375 13.0501 17.375Z" fill="#F59500"/>
</svg>
