<svg width="630" height="109" viewBox="0 0 630 109" fill="none" xmlns="http://www.w3.org/2000/svg">
<rect width="609.188" height="6.0297" rx="3.01485" transform="matrix(-1 0 0 1 619 52.1407)" fill="#57534E"/>
<rect width="609" height="6.0297" rx="3.01485" transform="matrix(-1 0 0 1 619 52.1407)" fill="url(#paint0_linear_1898_7823)"/>
<path d="M598.227 67.4214C598.594 67.4239 598.951 67.4889 599.298 67.6163C599.648 67.7412 599.963 67.946 600.243 68.2308C600.522 68.5131 600.745 68.8915 600.91 69.3662C601.074 69.8408 601.157 70.4279 601.157 71.1273C601.159 71.7868 601.089 72.3764 600.947 72.896C600.807 73.4131 600.606 73.8503 600.344 74.2075C600.081 74.5647 599.765 74.837 599.396 75.0244C599.026 75.2117 598.61 75.3054 598.148 75.3054C597.663 75.3054 597.234 75.2105 596.859 75.0206C596.487 74.8308 596.186 74.571 595.956 74.2412C595.726 73.9115 595.585 73.5343 595.532 73.1096H596.9C596.97 73.4144 597.112 73.6567 597.327 73.8365C597.545 74.0139 597.818 74.1026 598.148 74.1026C598.68 74.1026 599.09 73.8715 599.377 73.4094C599.664 72.9472 599.808 72.3052 599.808 71.4833H599.755C599.633 71.7032 599.474 71.893 599.28 72.0529C599.085 72.2103 598.864 72.3314 598.616 72.4164C598.371 72.5013 598.112 72.5438 597.837 72.5438C597.387 72.5438 596.983 72.4364 596.623 72.2215C596.266 72.0067 595.982 71.7119 595.772 71.3372C595.565 70.9625 595.46 70.534 595.457 70.0519C595.457 69.5523 595.572 69.1039 595.802 68.7067C596.034 68.307 596.358 67.9922 596.773 67.7624C597.187 67.5301 597.672 67.4164 598.227 67.4214ZM598.23 68.5456C597.961 68.5456 597.717 68.6118 597.5 68.7442C597.285 68.8741 597.115 69.0514 596.99 69.2763C596.868 69.4986 596.806 69.7471 596.806 70.0219C596.809 70.2942 596.87 70.5415 596.99 70.7639C597.112 70.9862 597.279 71.1623 597.488 71.2922C597.701 71.4221 597.943 71.4871 598.215 71.4871C598.418 71.4871 598.606 71.4484 598.781 71.3709C598.956 71.2935 599.108 71.1861 599.238 71.0487C599.371 70.9088 599.473 70.7501 599.546 70.5728C599.621 70.3954 599.657 70.208 599.654 70.0107C599.654 69.7484 599.592 69.5061 599.467 69.2837C599.344 69.0614 599.176 68.8828 598.961 68.7479C598.749 68.613 598.505 68.5456 598.23 68.5456ZM605.133 75.3054C604.576 75.3054 604.081 75.2117 603.649 75.0244C603.219 74.837 602.882 74.581 602.637 74.2562C602.395 73.929 602.275 73.558 602.277 73.1433C602.275 72.8211 602.345 72.525 602.487 72.2552C602.629 71.9854 602.822 71.7606 603.064 71.5808C603.309 71.3984 603.581 71.2822 603.881 71.2323V71.1798C603.486 71.0924 603.167 70.8913 602.922 70.5765C602.679 70.2593 602.56 69.8933 602.562 69.4786C602.56 69.0839 602.669 68.7317 602.892 68.4219C603.114 68.1121 603.419 67.8686 603.806 67.6912C604.193 67.5113 604.635 67.4214 605.133 67.4214C605.625 67.4214 606.063 67.5113 606.448 67.6912C606.835 67.8686 607.14 68.1121 607.362 68.4219C607.587 68.7317 607.699 69.0839 607.699 69.4786C607.699 69.8933 607.576 70.2593 607.328 70.5765C607.084 70.8913 606.768 71.0924 606.38 71.1798V71.2323C606.68 71.2822 606.95 71.3984 607.19 71.5808C607.432 71.7606 607.624 71.9854 607.767 72.2552C607.912 72.525 607.984 72.8211 607.984 73.1433C607.984 73.558 607.862 73.929 607.617 74.2562C607.372 74.581 607.035 74.837 606.605 75.0244C606.178 75.2117 605.687 75.3054 605.133 75.3054ZM605.133 74.2337C605.42 74.2337 605.67 74.185 605.882 74.0876C606.094 73.9877 606.259 73.8478 606.377 73.6679C606.494 73.4881 606.554 73.2807 606.556 73.0459C606.554 72.8011 606.49 72.585 606.365 72.3976C606.243 72.2078 606.074 72.0591 605.86 71.9517C605.647 71.8443 605.405 71.7906 605.133 71.7906C604.858 71.7906 604.613 71.8443 604.398 71.9517C604.183 72.0591 604.013 72.2078 603.889 72.3976C603.766 72.585 603.706 72.8011 603.709 73.0459C603.706 73.2807 603.764 73.4881 603.881 73.6679C603.998 73.8453 604.163 73.9839 604.376 74.0838C604.59 74.1838 604.843 74.2337 605.133 74.2337ZM605.133 70.7376C605.367 70.7376 605.575 70.6902 605.755 70.5953C605.937 70.5003 606.081 70.3679 606.186 70.1981C606.29 70.0282 606.344 69.8321 606.347 69.6097C606.344 69.3899 606.292 69.1976 606.189 69.0327C606.087 68.8653 605.944 68.7367 605.762 68.6467C605.58 68.5543 605.37 68.5081 605.133 68.5081C604.89 68.5081 604.677 68.5543 604.492 68.6467C604.309 68.7367 604.167 68.8653 604.065 69.0327C603.965 69.1976 603.916 69.3899 603.919 69.6097C603.916 69.8321 603.966 70.0282 604.068 70.1981C604.173 70.3654 604.317 70.4978 604.499 70.5953C604.684 70.6902 604.895 70.7376 605.133 70.7376ZM613.319 73.7616V73.3569C613.319 73.0596 613.382 72.7861 613.507 72.5363C613.634 72.2865 613.819 72.0854 614.061 71.933C614.303 71.7806 614.597 71.7044 614.942 71.7044C615.296 71.7044 615.594 71.7806 615.834 71.933C616.073 72.0829 616.254 72.2827 616.377 72.5325C616.502 72.7823 616.564 73.0571 616.564 73.3569V73.7616C616.564 74.0589 616.502 74.3324 616.377 74.5822C616.252 74.832 616.068 75.0331 615.826 75.1855C615.586 75.3379 615.291 75.4141 614.942 75.4141C614.592 75.4141 614.296 75.3379 614.054 75.1855C613.811 75.0331 613.628 74.832 613.503 74.5822C613.38 74.3324 613.319 74.0589 613.319 73.7616ZM614.297 73.3569V73.7616C614.297 73.9589 614.345 74.1401 614.44 74.3049C614.534 74.4698 614.702 74.5522 614.942 74.5522C615.184 74.5522 615.35 74.4711 615.44 74.3087C615.532 74.1438 615.579 73.9614 615.579 73.7616V73.3569C615.579 73.1571 615.535 72.9747 615.448 72.8098C615.36 72.6424 615.191 72.5588 614.942 72.5588C614.707 72.5588 614.541 72.6424 614.443 72.8098C614.346 72.9747 614.297 73.1571 614.297 73.3569ZM609.418 69.3699V68.9652C609.418 68.6655 609.482 68.3907 609.609 68.1409C609.737 67.8911 609.922 67.6912 610.164 67.5413C610.406 67.3889 610.7 67.3127 611.045 67.3127C611.397 67.3127 611.693 67.3889 611.933 67.5413C612.175 67.6912 612.357 67.8911 612.48 68.1409C612.602 68.3907 612.663 68.6655 612.663 68.9652V69.3699C612.663 69.6697 612.601 69.9445 612.476 70.1943C612.354 70.4416 612.171 70.6402 611.929 70.7901C611.687 70.94 611.392 71.0149 611.045 71.0149C610.692 71.0149 610.395 70.94 610.153 70.7901C609.913 70.6402 609.731 70.4404 609.606 70.1906C609.481 69.9407 609.418 69.6672 609.418 69.3699ZM610.404 68.9652V69.3699C610.404 69.5698 610.45 69.7521 610.543 69.917C610.637 70.0794 610.805 70.1606 611.045 70.1606C611.284 70.1606 611.449 70.0794 611.539 69.917C611.632 69.7521 611.678 69.5698 611.678 69.3699V68.9652C611.678 68.7654 611.634 68.583 611.547 68.4182C611.459 68.2508 611.292 68.1671 611.045 68.1671C610.807 68.1671 610.641 68.2508 610.546 68.4182C610.451 68.5855 610.404 68.7679 610.404 68.9652ZM609.846 75.2005L615.122 67.5263H616.058L610.782 75.2005H609.846Z" fill="#E7E5E4"/>
<path d="M592.853 85.2671C592.814 84.9416 592.658 84.689 592.384 84.5091C592.11 84.3292 591.774 84.2393 591.375 84.2393C591.084 84.2393 590.829 84.2864 590.611 84.3806C590.395 84.4749 590.226 84.6044 590.104 84.7693C589.984 84.9341 589.924 85.1215 589.924 85.3313C589.924 85.5069 589.965 85.6579 590.049 85.7842C590.135 85.9084 590.244 86.0123 590.377 86.0958C590.509 86.1771 590.648 86.2446 590.794 86.2981C590.94 86.3495 591.074 86.3913 591.196 86.4234L591.864 86.6032C592.035 86.6482 592.226 86.7103 592.435 86.7895C592.647 86.8687 592.85 86.9769 593.042 87.1139C593.237 87.2488 593.398 87.4223 593.524 87.6342C593.65 87.8462 593.714 88.1064 593.714 88.4147C593.714 88.7702 593.621 89.0913 593.434 89.3783C593.25 89.6652 592.98 89.8932 592.625 90.0624C592.272 90.2315 591.842 90.3161 591.337 90.3161C590.866 90.3161 590.458 90.2401 590.113 90.0881C589.771 89.9361 589.501 89.7241 589.304 89.4521C589.109 89.1802 588.999 88.8644 588.973 88.5046H589.795C589.817 88.753 589.9 88.9586 590.046 89.1213C590.193 89.2819 590.38 89.4018 590.605 89.481C590.832 89.5581 591.076 89.5967 591.337 89.5967C591.641 89.5967 591.914 89.5474 592.156 89.4489C592.398 89.3483 592.59 89.2091 592.731 89.0314C592.872 88.8515 592.943 88.6417 592.943 88.4019C592.943 88.1835 592.882 88.0057 592.76 87.8687C592.638 87.7317 592.477 87.6203 592.278 87.5347C592.079 87.449 591.864 87.3741 591.632 87.3098L590.823 87.0786C590.309 86.9308 589.902 86.7199 589.602 86.4459C589.303 86.1718 589.153 85.8131 589.153 85.3699C589.153 85.0016 589.252 84.6804 589.452 84.4063C589.653 84.1301 589.923 83.916 590.261 83.764C590.601 83.6098 590.981 83.5327 591.401 83.5327C591.825 83.5327 592.202 83.6087 592.532 83.7608C592.861 83.9106 593.123 84.1162 593.315 84.3774C593.51 84.6387 593.613 84.9352 593.624 85.2671H592.853ZM598.03 88.1835V85.2671H598.788V90.2005H598.03V89.3654H597.978C597.863 89.6159 597.683 89.829 597.439 90.0046C597.194 90.178 596.886 90.2647 596.514 90.2647C596.205 90.2647 595.931 90.1973 595.691 90.0624C595.452 89.9254 595.263 89.7198 595.126 89.4457C594.989 89.1695 594.921 88.8215 594.921 88.4019V85.2671H595.679V88.3505C595.679 88.7102 595.779 88.9971 595.98 89.2113C596.184 89.4254 596.443 89.5324 596.758 89.5324C596.946 89.5324 597.138 89.4843 597.333 89.3879C597.53 89.2915 597.694 89.1438 597.827 88.9447C597.962 88.7455 598.03 88.4918 598.03 88.1835ZM602.18 90.3033C601.718 90.3033 601.319 90.1941 600.985 89.9757C600.651 89.7573 600.394 89.4564 600.214 89.0731C600.035 88.6899 599.945 88.252 599.945 87.7595C599.945 87.2585 600.037 86.8163 600.221 86.433C600.407 86.0476 600.666 85.7467 600.998 85.5305C601.332 85.3121 601.722 85.2029 602.167 85.2029C602.514 85.2029 602.827 85.2671 603.105 85.3956C603.383 85.5241 603.611 85.7039 603.789 85.9352C603.967 86.1664 604.077 86.4362 604.12 86.7446H603.362C603.304 86.5197 603.176 86.3206 602.977 86.1472C602.78 85.9716 602.514 85.8838 602.18 85.8838C601.885 85.8838 601.626 85.9609 601.403 86.115C601.182 86.2671 601.01 86.4823 600.886 86.7606C600.764 87.0368 600.703 87.3612 600.703 87.7338C600.703 88.1149 600.763 88.4468 600.882 88.7295C601.005 89.0121 601.176 89.2316 601.396 89.3879C601.619 89.5442 601.88 89.6224 602.18 89.6224C602.377 89.6224 602.556 89.5881 602.716 89.5196C602.877 89.4511 603.013 89.3526 603.124 89.2241C603.236 89.0956 603.315 88.9415 603.362 88.7616H604.12C604.077 89.0528 603.971 89.3151 603.802 89.5485C603.635 89.7797 603.413 89.9639 603.137 90.1009C602.863 90.2358 602.544 90.3033 602.18 90.3033ZM607.232 90.3033C606.77 90.3033 606.372 90.1941 606.038 89.9757C605.703 89.7573 605.447 89.4564 605.267 89.0731C605.087 88.6899 604.997 88.252 604.997 87.7595C604.997 87.2585 605.089 86.8163 605.273 86.433C605.459 86.0476 605.718 85.7467 606.05 85.5305C606.384 85.3121 606.774 85.2029 607.219 85.2029C607.566 85.2029 607.879 85.2671 608.157 85.3956C608.436 85.5241 608.664 85.7039 608.841 85.9352C609.019 86.1664 609.129 86.4362 609.172 86.7446H608.414C608.356 86.5197 608.228 86.3206 608.029 86.1472C607.832 85.9716 607.566 85.8838 607.232 85.8838C606.937 85.8838 606.678 85.9609 606.455 86.115C606.234 86.2671 606.062 86.4823 605.938 86.7606C605.816 87.0368 605.755 87.3612 605.755 87.7338C605.755 88.1149 605.815 88.4468 605.935 88.7295C606.057 89.0121 606.228 89.2316 606.449 89.3879C606.671 89.5442 606.933 89.6224 607.232 89.6224C607.429 89.6224 607.608 89.5881 607.769 89.5196C607.929 89.4511 608.065 89.3526 608.177 89.2241C608.288 89.0956 608.367 88.9415 608.414 88.7616H609.172C609.129 89.0528 609.023 89.3151 608.854 89.5485C608.687 89.7797 608.466 89.9639 608.189 90.1009C607.915 90.2358 607.596 90.3033 607.232 90.3033ZM612.349 90.3033C611.873 90.3033 611.463 90.1984 611.119 89.9885C610.776 89.7765 610.512 89.481 610.325 89.102C610.141 88.7209 610.049 88.2777 610.049 87.7723C610.049 87.267 610.141 86.8216 610.325 86.4362C610.512 86.0487 610.771 85.7467 611.103 85.5305C611.437 85.3121 611.826 85.2029 612.272 85.2029C612.529 85.2029 612.782 85.2457 613.033 85.3313C613.283 85.417 613.511 85.5562 613.717 85.7489C613.923 85.9395 614.086 86.1921 614.208 86.5069C614.33 86.8216 614.392 87.2092 614.392 87.6696V87.9908H610.589V87.3355H613.621C613.621 87.0572 613.565 86.8088 613.454 86.5904C613.344 86.372 613.188 86.1996 612.985 86.0733C612.783 85.9469 612.546 85.8838 612.272 85.8838C611.97 85.8838 611.709 85.9587 611.488 86.1086C611.27 86.2564 611.102 86.4491 610.984 86.6867C610.866 86.9244 610.807 87.1792 610.807 87.4512V87.888C610.807 88.2605 610.871 88.5764 611 88.8355C611.13 89.0924 611.311 89.2883 611.543 89.4232C611.774 89.556 612.043 89.6224 612.349 89.6224C612.548 89.6224 612.728 89.5945 612.888 89.5389C613.051 89.481 613.191 89.3954 613.309 89.2819C613.427 89.1663 613.518 89.0228 613.582 88.8515L614.314 89.0571C614.237 89.3055 614.108 89.5239 613.926 89.7123C613.744 89.8986 613.519 90.0442 613.251 90.1491C612.984 90.2519 612.683 90.3033 612.349 90.3033ZM619.039 86.372L618.358 86.5647C618.315 86.4512 618.252 86.3409 618.169 86.2339C618.087 86.1247 617.976 86.0347 617.835 85.9641C617.693 85.8934 617.512 85.8581 617.292 85.8581C616.99 85.8581 616.738 85.9277 616.537 86.0669C616.338 86.2039 616.238 86.3784 616.238 86.5904C616.238 86.7788 616.307 86.9276 616.444 87.0368C616.581 87.146 616.795 87.237 617.086 87.3098L617.819 87.4897C618.26 87.5968 618.588 87.7606 618.805 87.9811C619.021 88.1995 619.129 88.4811 619.129 88.8258C619.129 89.1085 619.048 89.3611 618.885 89.5838C618.724 89.8065 618.499 89.9821 618.21 90.1106C617.921 90.239 617.585 90.3033 617.202 90.3033C616.699 90.3033 616.282 90.1941 615.952 89.9757C615.623 89.7573 615.414 89.4382 615.326 89.0185L616.046 88.8387C616.114 89.1042 616.244 89.3033 616.434 89.4361C616.627 89.5688 616.879 89.6352 617.189 89.6352C617.542 89.6352 617.823 89.5603 618.031 89.4104C618.24 89.2584 618.345 89.0764 618.345 88.8644C618.345 88.6931 618.285 88.5496 618.165 88.434C618.046 88.3162 617.861 88.2284 617.613 88.1706L616.791 87.9779C616.339 87.8708 616.007 87.7049 615.795 87.4801C615.585 87.2531 615.48 86.9694 615.48 86.6289C615.48 86.3506 615.558 86.1043 615.715 85.8902C615.873 85.6761 616.088 85.508 616.36 85.3859C616.634 85.2639 616.945 85.2029 617.292 85.2029C617.78 85.2029 618.163 85.3099 618.442 85.5241C618.722 85.7382 618.921 86.0208 619.039 86.372ZM623.764 86.372L623.084 86.5647C623.041 86.4512 622.978 86.3409 622.894 86.2339C622.813 86.1247 622.701 86.0347 622.56 85.9641C622.419 85.8934 622.238 85.8581 622.017 85.8581C621.715 85.8581 621.464 85.9277 621.262 86.0669C621.063 86.2039 620.964 86.3784 620.964 86.5904C620.964 86.7788 621.032 86.9276 621.169 87.0368C621.306 87.146 621.52 87.237 621.812 87.3098L622.544 87.4897C622.985 87.5968 623.314 87.7606 623.53 87.9811C623.746 88.1995 623.854 88.4811 623.854 88.8258C623.854 89.1085 623.773 89.3611 623.61 89.5838C623.45 89.8065 623.225 89.9821 622.936 90.1106C622.647 90.239 622.311 90.3033 621.927 90.3033C621.424 90.3033 621.008 90.1941 620.678 89.9757C620.348 89.7573 620.139 89.4382 620.052 89.0185L620.771 88.8387C620.84 89.1042 620.969 89.3033 621.16 89.4361C621.352 89.5688 621.604 89.6352 621.914 89.6352C622.268 89.6352 622.548 89.5603 622.756 89.4104C622.966 89.2584 623.071 89.0764 623.071 88.8644C623.071 88.6931 623.011 88.5496 622.891 88.434C622.771 88.3162 622.587 88.2284 622.338 88.1706L621.516 87.9779C621.064 87.8708 620.732 87.7049 620.521 87.4801C620.311 87.2531 620.206 86.9694 620.206 86.6289C620.206 86.3506 620.284 86.1043 620.44 85.8902C620.599 85.6761 620.814 85.508 621.086 85.3859C621.36 85.2639 621.67 85.2029 622.017 85.2029C622.505 85.2029 622.889 85.3099 623.167 85.5241C623.448 85.7382 623.647 86.0208 623.764 86.372ZM585.389 98.3292V97.6226H590.323V98.3292H588.254V104.201H587.458V98.3292H585.389ZM592.207 101.233V104.201H591.449V97.6226H592.207V100.038H592.272C592.387 99.7831 592.561 99.5808 592.792 99.4309C593.025 99.2789 593.336 99.2029 593.723 99.2029C594.059 99.2029 594.354 99.2703 594.607 99.4052C594.859 99.538 595.055 99.7425 595.194 100.019C595.336 100.293 595.406 100.642 595.406 101.066V104.201H594.648V101.117C594.648 100.725 594.547 100.422 594.343 100.208C594.142 99.9919 593.862 99.8838 593.505 99.8838C593.257 99.8838 593.034 99.9362 592.837 100.041C592.642 100.146 592.488 100.299 592.374 100.5C592.263 100.702 592.207 100.946 592.207 101.233ZM596.793 104.201V99.2671H597.525V100.012H597.577C597.667 99.7682 597.829 99.5701 598.065 99.4181C598.3 99.266 598.566 99.19 598.861 99.19C598.917 99.19 598.987 99.1911 599.07 99.1932C599.154 99.1954 599.217 99.1986 599.26 99.2029V99.9737C599.234 99.9673 599.175 99.9577 599.083 99.9448C598.993 99.9298 598.898 99.9223 598.797 99.9223C598.557 99.9223 598.343 99.9726 598.155 100.073C597.969 100.172 597.821 100.309 597.712 100.484C597.605 100.658 597.551 100.856 597.551 101.079V104.201H596.793ZM602.076 104.303C601.601 104.303 601.191 104.198 600.846 103.989C600.504 103.777 600.239 103.481 600.053 103.102C599.869 102.721 599.777 102.278 599.777 101.772C599.777 101.267 599.869 100.822 600.053 100.436C600.239 100.049 600.498 99.7467 600.83 99.5305C601.164 99.3121 601.554 99.2029 601.999 99.2029C602.256 99.2029 602.51 99.2457 602.761 99.3313C603.011 99.417 603.239 99.5562 603.445 99.7489C603.65 99.9395 603.814 100.192 603.936 100.507C604.058 100.822 604.119 101.209 604.119 101.67V101.991H600.316V101.336H603.348C603.348 101.057 603.293 100.809 603.181 100.59C603.072 100.372 602.916 100.2 602.712 100.073C602.511 99.9469 602.273 99.8838 601.999 99.8838C601.698 99.8838 601.436 99.9587 601.216 100.109C600.997 100.256 600.829 100.449 600.711 100.687C600.594 100.924 600.535 101.179 600.535 101.451V101.888C600.535 102.261 600.599 102.576 600.728 102.835C600.858 103.092 601.039 103.288 601.27 103.423C601.502 103.556 601.77 103.622 602.076 103.622C602.276 103.622 602.455 103.595 602.616 103.539C602.779 103.481 602.919 103.395 603.037 103.282C603.155 103.166 603.246 103.023 603.31 102.852L604.042 103.057C603.965 103.305 603.836 103.524 603.654 103.712C603.472 103.899 603.247 104.044 602.979 104.149C602.711 104.252 602.411 104.303 602.076 104.303ZM608.767 100.372L608.086 100.565C608.043 100.451 607.98 100.341 607.896 100.234C607.815 100.125 607.704 100.035 607.562 99.9641C607.421 99.8934 607.24 99.8581 607.02 99.8581C606.718 99.8581 606.466 99.9277 606.265 100.067C606.066 100.204 605.966 100.378 605.966 100.59C605.966 100.779 606.035 100.928 606.172 101.037C606.309 101.146 606.523 101.237 606.814 101.31L607.546 101.49C607.987 101.597 608.316 101.761 608.532 101.981C608.749 102.2 608.857 102.481 608.857 102.826C608.857 103.108 608.775 103.361 608.613 103.584C608.452 103.807 608.227 103.982 607.938 104.111C607.649 104.239 607.313 104.303 606.93 104.303C606.426 104.303 606.01 104.194 605.68 103.976C605.35 103.757 605.142 103.438 605.054 103.019L605.773 102.839C605.842 103.104 605.971 103.303 606.162 103.436C606.355 103.569 606.606 103.635 606.917 103.635C607.27 103.635 607.551 103.56 607.758 103.41C607.968 103.258 608.073 103.076 608.073 102.864C608.073 102.693 608.013 102.55 607.893 102.434C607.773 102.316 607.589 102.228 607.341 102.171L606.518 101.978C606.067 101.871 605.735 101.705 605.523 101.48C605.313 101.253 605.208 100.969 605.208 100.629C605.208 100.351 605.286 100.104 605.443 99.8902C605.601 99.6761 605.816 99.508 606.088 99.3859C606.362 99.2639 606.673 99.2029 607.02 99.2029C607.508 99.2029 607.891 99.3099 608.169 99.5241C608.45 99.7382 608.649 100.021 608.767 100.372ZM610.756 101.233V104.201H609.998V97.6226H610.756V100.038H610.82C610.936 99.7831 611.109 99.5808 611.34 99.4309C611.574 99.2789 611.884 99.2029 612.272 99.2029C612.608 99.2029 612.902 99.2703 613.155 99.4052C613.408 99.538 613.604 99.7425 613.743 100.019C613.884 100.293 613.955 100.642 613.955 101.066V104.201H613.197V101.117C613.197 100.725 613.095 100.422 612.892 100.208C612.69 99.9919 612.411 99.8838 612.053 99.8838C611.805 99.8838 611.582 99.9362 611.385 100.041C611.19 100.146 611.036 100.299 610.923 100.5C610.811 100.702 610.756 100.946 610.756 101.233ZM617.346 104.303C616.9 104.303 616.509 104.197 616.173 103.985C615.839 103.773 615.578 103.477 615.39 103.096C615.203 102.714 615.11 102.269 615.11 101.759C615.11 101.246 615.203 100.797 615.39 100.414C615.578 100.03 615.839 99.7328 616.173 99.5208C616.509 99.3089 616.9 99.2029 617.346 99.2029C617.791 99.2029 618.181 99.3089 618.515 99.5208C618.851 99.7328 619.112 100.03 619.298 100.414C619.487 100.797 619.581 101.246 619.581 101.759C619.581 102.269 619.487 102.714 619.298 103.096C619.112 103.477 618.851 103.773 618.515 103.985C618.181 104.197 617.791 104.303 617.346 104.303ZM617.346 103.622C617.684 103.622 617.962 103.536 618.181 103.362C618.399 103.189 618.561 102.961 618.666 102.678C618.771 102.395 618.823 102.089 618.823 101.759C618.823 101.43 618.771 101.122 618.666 100.838C618.561 100.553 618.399 100.323 618.181 100.147C617.962 99.9716 617.684 99.8838 617.346 99.8838C617.007 99.8838 616.729 99.9716 616.511 100.147C616.292 100.323 616.13 100.553 616.026 100.838C615.921 101.122 615.868 101.43 615.868 101.759C615.868 102.089 615.921 102.395 616.026 102.678C616.13 102.961 616.292 103.189 616.511 103.362C616.729 103.536 617.007 103.622 617.346 103.622ZM621.496 97.6226V104.201H620.738V97.6226H621.496ZM624.747 104.303C624.336 104.303 623.973 104.199 623.658 103.992C623.344 103.782 623.097 103.486 622.92 103.105C622.742 102.722 622.653 102.269 622.653 101.747C622.653 101.228 622.742 100.779 622.92 100.398C623.097 100.017 623.345 99.7221 623.662 99.5144C623.979 99.3067 624.345 99.2029 624.76 99.2029C625.081 99.2029 625.335 99.2564 625.521 99.3635C625.71 99.4684 625.853 99.5883 625.952 99.7232C626.052 99.8559 626.131 99.9651 626.186 100.051H626.25V97.6226H627.008V104.201H626.276V103.443H626.186C626.131 103.532 626.051 103.646 625.949 103.783C625.846 103.918 625.699 104.039 625.509 104.146C625.318 104.251 625.064 104.303 624.747 104.303ZM624.85 103.622C625.154 103.622 625.411 103.543 625.621 103.385C625.831 103.224 625.99 103.002 626.099 102.72C626.209 102.435 626.263 102.106 626.263 101.734C626.263 101.366 626.21 101.043 626.103 100.767C625.996 100.489 625.837 100.272 625.627 100.118C625.418 99.9619 625.158 99.8838 624.85 99.8838C624.529 99.8838 624.261 99.9662 624.047 100.131C623.835 100.294 623.676 100.515 623.569 100.796C623.464 101.074 623.411 101.387 623.411 101.734C623.411 102.085 623.465 102.404 623.572 102.691C623.681 102.976 623.842 103.203 624.054 103.372C624.268 103.539 624.533 103.622 624.85 103.622Z" fill="#A9A29D"/>
<path d="M604.477 58.1709L604.477 67.2155" stroke="#A9A29D" stroke-width="0.753713" stroke-dasharray="1.51 1.51"/>
<circle cx="625.477" cy="55.1561" r="2.638" stroke="#FDFDFC" stroke-width="0.753713"/>
<path d="M484.794 75.2006L488.058 68.7405V68.688H484.269V67.5264H489.497V68.7142L486.237 75.2006H484.794ZM493.378 75.3467C492.761 75.3467 492.231 75.1906 491.789 74.8783C491.349 74.5635 491.011 74.1101 490.774 73.5181C490.539 72.9235 490.421 72.2078 490.421 71.371C490.424 70.5341 490.543 69.8221 490.777 69.2351C491.015 68.6455 491.353 68.1959 491.793 67.8861C492.235 67.5764 492.763 67.4215 493.378 67.4215C493.992 67.4215 494.521 67.5764 494.963 67.8861C495.405 68.1959 495.744 68.6455 495.978 69.2351C496.216 69.8246 496.334 70.5366 496.334 71.371C496.334 72.2103 496.216 72.9273 495.978 73.5218C495.744 74.1139 495.405 74.566 494.963 74.8783C494.523 75.1906 493.995 75.3467 493.378 75.3467ZM493.378 74.1738C493.857 74.1738 494.236 73.9378 494.513 73.4656C494.793 72.991 494.933 72.2928 494.933 71.371C494.933 70.7614 494.869 70.2493 494.742 69.8346C494.614 69.42 494.435 69.1077 494.202 68.8979C493.97 68.6855 493.695 68.5793 493.378 68.5793C492.901 68.5793 492.524 68.8167 492.246 69.2913C491.969 69.7634 491.829 70.4567 491.827 71.371C491.824 71.983 491.885 72.4976 492.01 72.9148C492.138 73.332 492.317 73.6467 492.55 73.8591C492.782 74.0689 493.058 74.1738 493.378 74.1738ZM501.682 73.7617V73.357C501.682 73.0597 501.745 72.7861 501.87 72.5363C501.997 72.2865 502.182 72.0854 502.424 71.933C502.667 71.7807 502.96 71.7045 503.305 71.7045C503.66 71.7045 503.957 71.7807 504.197 71.933C504.437 72.0829 504.618 72.2828 504.74 72.5326C504.865 72.7824 504.928 73.0572 504.928 73.357V73.7617C504.928 74.0589 504.865 74.3325 504.74 74.5823C504.615 74.8321 504.432 75.0332 504.189 75.1856C503.95 75.338 503.655 75.4141 503.305 75.4141C502.955 75.4141 502.659 75.338 502.417 75.1856C502.175 75.0332 501.991 74.8321 501.866 74.5823C501.744 74.3325 501.682 74.0589 501.682 73.7617ZM502.66 73.357V73.7617C502.66 73.959 502.708 74.1401 502.803 74.305C502.898 74.4699 503.065 74.5523 503.305 74.5523C503.547 74.5523 503.713 74.4711 503.803 74.3087C503.896 74.1439 503.942 73.9615 503.942 73.7617V73.357C503.942 73.1571 503.898 72.9748 503.811 72.8099C503.723 72.6425 503.555 72.5588 503.305 72.5588C503.07 72.5588 502.904 72.6425 502.807 72.8099C502.709 72.9748 502.66 73.1571 502.66 73.357ZM497.782 69.37V68.9653C497.782 68.6655 497.845 68.3907 497.973 68.1409C498.1 67.8911 498.285 67.6913 498.527 67.5414C498.77 67.389 499.063 67.3128 499.408 67.3128C499.76 67.3128 500.056 67.389 500.296 67.5414C500.538 67.6913 500.721 67.8911 500.843 68.1409C500.966 68.3907 501.027 68.6655 501.027 68.9653V69.37C501.027 69.6698 500.964 69.9446 500.839 70.1944C500.717 70.4417 500.535 70.6403 500.292 70.7902C500.05 70.94 499.755 71.015 499.408 71.015C499.056 71.015 498.758 70.94 498.516 70.7902C498.276 70.6403 498.094 70.4404 497.969 70.1906C497.844 69.9408 497.782 69.6673 497.782 69.37ZM498.767 68.9653V69.37C498.767 69.5698 498.813 69.7522 498.906 69.9171C499.001 70.0795 499.168 70.1606 499.408 70.1606C499.648 70.1606 499.813 70.0795 499.903 69.9171C499.995 69.7522 500.041 69.5698 500.041 69.37V68.9653C500.041 68.7655 499.998 68.5831 499.91 68.4182C499.823 68.2508 499.655 68.1672 499.408 68.1672C499.171 68.1672 499.005 68.2508 498.91 68.4182C498.815 68.5856 498.767 68.768 498.767 68.9653ZM498.209 75.2006L503.485 67.5264H504.422L499.146 75.2006H498.209Z" fill="#E7E5E4"/>
<path d="M479.409 90.2006L477.61 83.6227H478.42L479.794 88.9801H479.859L481.259 83.6227H482.158L483.559 88.9801H483.623L484.998 83.6227H485.807L484.008 90.2006H483.186L481.734 84.9588H481.683L480.231 90.2006H479.409ZM487.689 90.3162C487.376 90.3162 487.093 90.2573 486.838 90.1395C486.583 90.0196 486.381 89.8473 486.231 89.6224C486.081 89.3955 486.006 89.1214 486.006 88.8002C486.006 88.5176 486.062 88.2884 486.173 88.1129C486.284 87.9351 486.433 87.796 486.62 87.6953C486.806 87.5947 487.011 87.5197 487.236 87.4705C487.463 87.4191 487.691 87.3784 487.92 87.3484C488.22 87.3099 488.463 87.281 488.649 87.2617C488.838 87.2403 488.975 87.205 489.061 87.1557C489.148 87.1065 489.192 87.0208 489.192 86.8988V86.8731C489.192 86.5562 489.106 86.3099 488.932 86.1344C488.761 85.9588 488.501 85.871 488.152 85.871C487.79 85.871 487.506 85.9502 487.3 86.1087C487.095 86.2671 486.95 86.4363 486.867 86.6161L486.147 86.3592C486.276 86.0594 486.447 85.826 486.661 85.659C486.878 85.4899 487.113 85.3721 487.368 85.3057C487.625 85.2372 487.878 85.2029 488.126 85.2029C488.284 85.2029 488.466 85.2222 488.672 85.2607C488.88 85.2971 489.08 85.3732 489.273 85.4888C489.467 85.6044 489.629 85.7789 489.758 86.0123C489.886 86.2457 489.95 86.5583 489.95 86.9502V90.2006H489.192V89.5325H489.154C489.102 89.6396 489.017 89.7541 488.897 89.8762C488.777 89.9982 488.617 90.1021 488.418 90.1877C488.219 90.2734 487.976 90.3162 487.689 90.3162ZM487.805 89.6353C488.105 89.6353 488.357 89.5764 488.563 89.4586C488.77 89.3409 488.927 89.1888 489.032 89.0025C489.139 88.8163 489.192 88.6203 489.192 88.4148V87.721C489.16 87.7596 489.089 87.7949 488.98 87.827C488.873 87.857 488.749 87.8838 488.608 87.9073C488.469 87.9287 488.333 87.948 488.2 87.9651C488.069 87.9801 487.963 87.993 487.882 88.0037C487.685 88.0294 487.501 88.0711 487.329 88.1289C487.16 88.1846 487.023 88.2692 486.918 88.3827C486.815 88.494 486.764 88.646 486.764 88.8387C486.764 89.1021 486.862 89.3012 487.056 89.4361C487.253 89.5689 487.503 89.6353 487.805 89.6353ZM491.334 90.2006V85.2672H492.066V86.0123H492.117C492.207 85.7682 492.37 85.5702 492.606 85.4181C492.841 85.2661 493.107 85.1901 493.402 85.1901C493.458 85.1901 493.527 85.1912 493.611 85.1933C493.694 85.1954 493.758 85.1986 493.8 85.2029V85.9738C493.775 85.9674 493.716 85.9577 493.624 85.9449C493.534 85.9299 493.439 85.9224 493.338 85.9224C493.098 85.9224 492.884 85.9727 492.696 86.0733C492.509 86.1718 492.362 86.3089 492.252 86.4845C492.145 86.6579 492.092 86.856 492.092 87.0786V90.2006H491.334ZM495.457 87.2328V90.2006H494.699V85.2672H495.431V86.038H495.496C495.611 85.7875 495.787 85.5862 496.022 85.4342C496.258 85.28 496.562 85.2029 496.934 85.2029C497.268 85.2029 497.561 85.2715 497.811 85.4085C498.062 85.5434 498.257 85.7489 498.396 86.0252C498.535 86.2992 498.605 86.6461 498.605 87.0658V90.2006H497.847V87.1172C497.847 86.7296 497.746 86.4277 497.545 86.2115C497.343 85.993 497.067 85.8838 496.716 85.8838C496.474 85.8838 496.258 85.9363 496.067 86.0412C495.879 86.1461 495.73 86.2992 495.621 86.5005C495.512 86.7018 495.457 86.9459 495.457 87.2328ZM499.99 90.2006V85.2672H500.748V90.2006H499.99ZM500.375 84.4449C500.227 84.4449 500.1 84.3946 499.993 84.294C499.888 84.1933 499.836 84.0724 499.836 83.931C499.836 83.7897 499.888 83.6687 499.993 83.5681C500.1 83.4675 500.227 83.4171 500.375 83.4171C500.523 83.4171 500.649 83.4675 500.754 83.5681C500.861 83.6687 500.915 83.7897 500.915 83.931C500.915 84.0724 500.861 84.1933 500.754 84.294C500.649 84.3946 500.523 84.4449 500.375 84.4449ZM502.894 87.2328V90.2006H502.136V85.2672H502.868V86.038H502.933C503.048 85.7875 503.224 85.5862 503.459 85.4342C503.695 85.28 503.999 85.2029 504.371 85.2029C504.705 85.2029 504.998 85.2715 505.248 85.4085C505.499 85.5434 505.694 85.7489 505.833 86.0252C505.972 86.2992 506.042 86.6461 506.042 87.0658V90.2006H505.284V87.1172C505.284 86.7296 505.183 86.4277 504.982 86.2115C504.78 85.993 504.504 85.8838 504.153 85.8838C503.911 85.8838 503.695 85.9363 503.504 86.0412C503.316 86.1461 503.167 86.2992 503.058 86.5005C502.949 86.7018 502.894 86.9459 502.894 87.2328ZM509.418 92.1534C509.052 92.1534 508.737 92.1063 508.474 92.012C508.21 91.92 507.991 91.7979 507.815 91.6459C507.642 91.496 507.504 91.3354 507.401 91.1641L508.005 90.7402C508.073 90.8301 508.16 90.9329 508.265 91.0485C508.37 91.1663 508.513 91.268 508.695 91.3536C508.88 91.4414 509.12 91.4853 509.418 91.4853C509.816 91.4853 510.145 91.3889 510.404 91.1962C510.663 91.0035 510.793 90.7016 510.793 90.2905V89.2884H510.728C510.673 89.3783 510.594 89.4897 510.491 89.6224C510.39 89.753 510.245 89.8697 510.054 89.9725C509.866 90.0732 509.611 90.1235 509.29 90.1235C508.891 90.1235 508.534 90.0293 508.217 89.8408C507.902 89.6524 507.653 89.3783 507.468 89.0186C507.286 88.6589 507.195 88.2221 507.195 87.7082C507.195 87.2028 507.284 86.7628 507.462 86.3881C507.64 86.0112 507.887 85.72 508.204 85.5145C508.521 85.3068 508.887 85.2029 509.302 85.2029C509.624 85.2029 509.878 85.2565 510.067 85.3635C510.257 85.4684 510.403 85.5884 510.504 85.7232C510.606 85.856 510.686 85.9652 510.741 86.0509H510.818V85.2672H511.551V90.3419C511.551 90.7658 511.454 91.1106 511.262 91.3761C511.071 91.6438 510.814 91.8397 510.491 91.9639C510.17 92.0902 509.812 92.1534 509.418 92.1534ZM509.392 89.4426C509.696 89.4426 509.953 89.373 510.163 89.2338C510.373 89.0946 510.533 88.8944 510.642 88.6332C510.751 88.372 510.806 88.0593 510.806 87.6953C510.806 87.3399 510.752 87.0262 510.645 86.7543C510.538 86.4823 510.379 86.2693 510.17 86.1151C509.96 85.9609 509.701 85.8838 509.392 85.8838C509.071 85.8838 508.804 85.9652 508.589 86.1279C508.377 86.2907 508.218 86.5091 508.111 86.7832C508.006 87.0572 507.953 87.3613 507.953 87.6953C507.953 88.0379 508.007 88.3409 508.114 88.6043C508.223 88.8655 508.384 89.0711 508.596 89.2209C508.81 89.3687 509.075 89.4426 509.392 89.4426ZM473.84 98.3293V97.6227H478.773V98.3293H476.705V104.201H475.908V98.3293H473.84ZM480.658 101.233V104.201H479.9V97.6227H480.658V100.038H480.722C480.838 99.7832 481.011 99.5809 481.243 99.431C481.476 99.2789 481.786 99.2029 482.174 99.2029C482.51 99.2029 482.805 99.2704 483.057 99.4053C483.31 99.538 483.506 99.7425 483.645 100.019C483.786 100.293 483.857 100.642 483.857 101.066V104.201H483.099V101.117C483.099 100.725 482.997 100.422 482.794 100.208C482.593 99.992 482.313 99.8838 481.956 99.8838C481.707 99.8838 481.485 99.9363 481.288 100.041C481.093 100.146 480.938 100.299 480.825 100.501C480.714 100.702 480.658 100.946 480.658 101.233ZM485.244 104.201V99.2672H485.976V100.012H486.027C486.117 99.7682 486.28 99.5702 486.516 99.4181C486.751 99.2661 487.017 99.1901 487.312 99.1901C487.368 99.1901 487.437 99.1912 487.521 99.1933C487.604 99.1954 487.668 99.1986 487.71 99.2029V99.9738C487.685 99.9674 487.626 99.9577 487.534 99.9449C487.444 99.9299 487.349 99.9224 487.248 99.9224C487.008 99.9224 486.794 99.9727 486.606 100.073C486.419 100.172 486.271 100.309 486.162 100.484C486.055 100.658 486.002 100.856 486.002 101.079V104.201H485.244ZM490.527 104.303C490.052 104.303 489.642 104.198 489.297 103.989C488.954 103.777 488.69 103.481 488.504 103.102C488.32 102.721 488.228 102.278 488.228 101.772C488.228 101.267 488.32 100.822 488.504 100.436C488.69 100.049 488.949 99.7468 489.281 99.5305C489.615 99.3121 490.005 99.2029 490.45 99.2029C490.707 99.2029 490.961 99.2458 491.211 99.3314C491.462 99.4171 491.69 99.5562 491.895 99.7489C492.101 99.9395 492.265 100.192 492.387 100.507C492.509 100.822 492.57 101.209 492.57 101.67V101.991H488.767V101.336H491.799C491.799 101.057 491.743 100.809 491.632 100.59C491.523 100.372 491.367 100.2 491.163 100.073C490.962 99.947 490.724 99.8838 490.45 99.8838C490.148 99.8838 489.887 99.9588 489.666 100.109C489.448 100.256 489.28 100.449 489.162 100.687C489.044 100.924 488.985 101.179 488.985 101.451V101.888C488.985 102.261 489.05 102.576 489.178 102.836C489.309 103.092 489.49 103.288 489.721 103.423C489.952 103.556 490.221 103.622 490.527 103.622C490.726 103.622 490.906 103.595 491.067 103.539C491.23 103.481 491.37 103.395 491.488 103.282C491.605 103.166 491.696 103.023 491.761 102.852L492.493 103.057C492.416 103.306 492.286 103.524 492.104 103.712C491.922 103.899 491.697 104.044 491.43 104.149C491.162 104.252 490.861 104.303 490.527 104.303ZM497.217 100.372L496.537 100.565C496.494 100.451 496.431 100.341 496.347 100.234C496.266 100.125 496.154 100.035 496.013 99.9641C495.872 99.8935 495.691 99.8581 495.47 99.8581C495.168 99.8581 494.917 99.9277 494.715 100.067C494.516 100.204 494.417 100.378 494.417 100.59C494.417 100.779 494.485 100.928 494.622 101.037C494.759 101.146 494.973 101.237 495.265 101.31L495.997 101.49C496.438 101.597 496.767 101.761 496.983 101.981C497.199 102.2 497.307 102.481 497.307 102.826C497.307 103.109 497.226 103.361 497.063 103.584C496.903 103.807 496.678 103.982 496.389 104.111C496.1 104.239 495.764 104.303 495.38 104.303C494.877 104.303 494.461 104.194 494.131 103.976C493.801 103.757 493.592 103.438 493.505 103.019L494.224 102.839C494.293 103.104 494.422 103.303 494.613 103.436C494.805 103.569 495.057 103.635 495.367 103.635C495.721 103.635 496.001 103.56 496.209 103.41C496.419 103.258 496.524 103.076 496.524 102.864C496.524 102.693 496.464 102.55 496.344 102.434C496.224 102.316 496.04 102.228 495.791 102.171L494.969 101.978C494.517 101.871 494.185 101.705 493.973 101.48C493.764 101.253 493.659 100.969 493.659 100.629C493.659 100.351 493.737 100.104 493.893 99.8903C494.052 99.6761 494.267 99.5081 494.539 99.386C494.813 99.264 495.123 99.2029 495.47 99.2029C495.958 99.2029 496.342 99.31 496.62 99.5241C496.901 99.7382 497.1 100.021 497.217 100.372ZM499.206 101.233V104.201H498.448V97.6227H499.206V100.038H499.271C499.386 99.7832 499.56 99.5809 499.791 99.431C500.024 99.2789 500.335 99.2029 500.722 99.2029C501.059 99.2029 501.353 99.2704 501.606 99.4053C501.858 99.538 502.054 99.7425 502.193 100.019C502.335 100.293 502.405 100.642 502.405 101.066V104.201H501.647V101.117C501.647 100.725 501.546 100.422 501.342 100.208C501.141 99.992 500.862 99.8838 500.504 99.8838C500.256 99.8838 500.033 99.9363 499.836 100.041C499.641 100.146 499.487 100.299 499.373 100.501C499.262 100.702 499.206 100.946 499.206 101.233ZM505.796 104.303C505.351 104.303 504.96 104.197 504.624 103.985C504.29 103.773 504.029 103.477 503.84 103.096C503.654 102.715 503.561 102.269 503.561 101.76C503.561 101.246 503.654 100.797 503.84 100.414C504.029 100.031 504.29 99.7329 504.624 99.5209C504.96 99.3089 505.351 99.2029 505.796 99.2029C506.242 99.2029 506.631 99.3089 506.965 99.5209C507.302 99.7329 507.563 100.031 507.749 100.414C507.938 100.797 508.032 101.246 508.032 101.76C508.032 102.269 507.938 102.715 507.749 103.096C507.563 103.477 507.302 103.773 506.965 103.985C506.631 104.197 506.242 104.303 505.796 104.303ZM505.796 103.622C506.135 103.622 506.413 103.536 506.631 103.362C506.85 103.189 507.011 102.961 507.116 102.678C507.221 102.396 507.274 102.089 507.274 101.76C507.274 101.43 507.221 101.123 507.116 100.838C507.011 100.553 506.85 100.323 506.631 100.147C506.413 99.9716 506.135 99.8838 505.796 99.8838C505.458 99.8838 505.18 99.9716 504.961 100.147C504.743 100.323 504.581 100.553 504.476 100.838C504.371 101.123 504.319 101.43 504.319 101.76C504.319 102.089 504.371 102.396 504.476 102.678C504.581 102.961 504.743 103.189 504.961 103.362C505.18 103.536 505.458 103.622 505.796 103.622ZM509.947 97.6227V104.201H509.189V97.6227H509.947ZM513.198 104.303C512.787 104.303 512.424 104.199 512.109 103.992C511.794 103.782 511.548 103.486 511.37 103.105C511.193 102.722 511.104 102.269 511.104 101.747C511.104 101.229 511.193 100.779 511.37 100.398C511.548 100.017 511.795 99.7222 512.112 99.5145C512.429 99.3068 512.795 99.2029 513.211 99.2029C513.532 99.2029 513.786 99.2565 513.972 99.3635C514.16 99.4684 514.304 99.5884 514.402 99.7232C514.503 99.856 514.581 99.9652 514.637 100.051H514.701V97.6227H515.459V104.201H514.727V103.443H514.637C514.581 103.532 514.502 103.646 514.399 103.783C514.296 103.918 514.15 104.039 513.959 104.146C513.769 104.251 513.515 104.303 513.198 104.303ZM513.301 103.622C513.605 103.622 513.862 103.543 514.072 103.385C514.281 103.224 514.441 103.003 514.55 102.72C514.659 102.435 514.714 102.106 514.714 101.734C514.714 101.366 514.66 101.043 514.553 100.767C514.446 100.489 514.288 100.272 514.078 100.118C513.868 99.962 513.609 99.8838 513.301 99.8838C512.98 99.8838 512.712 99.9663 512.498 100.131C512.286 100.294 512.126 100.516 512.019 100.796C511.914 101.074 511.862 101.387 511.862 101.734C511.862 102.085 511.915 102.404 512.022 102.691C512.132 102.976 512.292 103.203 512.504 103.372C512.718 103.539 512.984 103.622 513.301 103.622Z" fill="#A9A29D"/>
<path d="M492.927 58.1705L492.927 67.215" stroke="#A9A29D" stroke-width="0.753713" stroke-dasharray="1.51 1.51"/>
<circle cx="513.927" cy="55.1557" r="2.638" stroke="#FDFDFC" stroke-width="0.753713"/>
<circle cx="577.995" cy="55.156" r="2.638" stroke="#FDFDFC" stroke-width="0.753713"/>
<circle cx="577.994" cy="55.1556" r="4.14542" stroke="#FDFDFC" stroke-width="0.753713"/>
<rect x="535.137" y="0.888611" width="43.0594" height="44.0297" rx="3.01485" fill="#FAC515"/>
<path d="M548.651 15.0084C548.074 15.0084 547.561 14.9147 547.111 14.7273C546.664 14.5375 546.313 14.2789 546.058 13.9517C545.804 13.6244 545.676 13.2534 545.676 12.8388C545.676 12.519 545.749 12.2255 545.893 11.9582C546.041 11.6884 546.241 11.4648 546.493 11.2874C546.745 11.1076 547.028 10.9927 547.34 10.9427V10.8902C546.93 10.8078 546.598 10.6092 546.343 10.2944C546.088 9.97719 545.961 9.60872 545.961 9.18904C545.961 8.79184 546.077 8.43836 546.309 8.12859C546.542 7.81633 546.86 7.57151 547.265 7.39415C547.672 7.21429 548.134 7.12435 548.651 7.12435C549.168 7.12435 549.629 7.21429 550.034 7.39415C550.441 7.57401 550.761 7.82008 550.993 8.13234C551.226 8.4421 551.343 8.79434 551.346 9.18904C551.343 9.61121 551.213 9.97968 550.956 10.2944C550.699 10.6092 550.369 10.8078 549.967 10.8902V10.9427C550.274 10.9927 550.552 11.1076 550.802 11.2874C551.055 11.4648 551.254 11.6884 551.402 11.9582C551.552 12.2255 551.628 12.519 551.63 12.8388C551.628 13.2534 551.499 13.6244 551.244 13.9517C550.99 14.2789 550.637 14.5375 550.188 14.7273C549.741 14.9147 549.228 15.0084 548.651 15.0084ZM548.651 13.8168C548.909 13.8168 549.133 13.7706 549.326 13.6781C549.518 13.5832 549.668 13.4533 549.776 13.2884C549.885 13.121 549.94 12.9287 549.94 12.7114C549.94 12.489 549.884 12.2929 549.772 12.1231C549.659 11.9507 549.507 11.8158 549.315 11.7184C549.122 11.6184 548.901 11.5685 548.651 11.5685C548.404 11.5685 548.183 11.6184 547.988 11.7184C547.793 11.8158 547.64 11.9507 547.527 12.1231C547.417 12.2929 547.362 12.489 547.362 12.7114C547.362 12.9287 547.416 13.121 547.523 13.2884C547.631 13.4533 547.782 13.5832 547.977 13.6781C548.172 13.7706 548.397 13.8168 548.651 13.8168ZM548.651 10.3881C548.866 10.3881 549.057 10.3444 549.225 10.257C549.392 10.1695 549.523 10.0484 549.618 9.8935C549.713 9.73862 549.761 9.56 549.761 9.35766C549.761 9.15781 549.713 8.98294 549.618 8.83306C549.523 8.68067 549.393 8.56201 549.228 8.47708C549.064 8.38964 548.871 8.34593 548.651 8.34593C548.434 8.34593 548.242 8.38964 548.074 8.47708C547.907 8.56201 547.776 8.68067 547.681 8.83306C547.588 8.98294 547.542 9.15781 547.542 9.35766C547.542 9.56 547.59 9.73862 547.685 9.8935C547.78 10.0484 547.911 10.1695 548.078 10.257C548.245 10.3444 548.437 10.3881 548.651 10.3881ZM555.568 15.0084C555.038 15.0084 554.566 14.9109 554.151 14.7161C553.739 14.5212 553.412 14.2527 553.169 13.9104C552.927 13.5682 552.801 13.176 552.791 12.7338H554.365C554.382 13.0311 554.507 13.2722 554.74 13.457C554.972 13.6419 555.248 13.7343 555.568 13.7343C555.822 13.7343 556.047 13.6781 556.242 13.5657C556.439 13.4508 556.593 13.2922 556.703 13.0898C556.815 12.885 556.872 12.6502 556.872 12.3854C556.872 12.1156 556.814 11.8782 556.699 11.6734C556.587 11.4686 556.431 11.3087 556.231 11.1938C556.031 11.0788 555.802 11.0201 555.545 11.0176C555.32 11.0176 555.102 11.0639 554.889 11.1563C554.68 11.2487 554.516 11.3749 554.399 11.5348L552.956 11.2762L553.319 7.22927H558.011V8.55577H554.657L554.459 10.4781H554.503C554.638 10.2882 554.842 10.1308 555.114 10.0059C555.387 9.88101 555.691 9.81856 556.029 9.81856C556.491 9.81856 556.903 9.92722 557.265 10.1446C557.627 10.3619 557.913 10.6604 558.123 11.0401C558.333 11.4173 558.437 11.852 558.434 12.3441C558.437 12.8612 558.317 13.3209 558.075 13.7231C557.835 14.1228 557.499 14.4375 557.067 14.6674C556.637 14.8947 556.137 15.0084 555.568 15.0084ZM563.766 13.4645V13.0598C563.766 12.7526 563.831 12.4703 563.961 12.213C564.094 11.9532 564.285 11.7458 564.535 11.591C564.787 11.4336 565.094 11.3549 565.456 11.3549C565.824 11.3549 566.132 11.4323 566.382 11.5872C566.634 11.7421 566.824 11.9494 566.952 12.2092C567.081 12.4665 567.146 12.7501 567.146 13.0598V13.4645C567.146 13.7718 567.081 14.0553 566.952 14.3151C566.822 14.5724 566.631 14.7785 566.378 14.9334C566.126 15.0908 565.819 15.1695 565.456 15.1695C565.089 15.1695 564.781 15.0908 564.531 14.9334C564.281 14.7785 564.091 14.5724 563.961 14.3151C563.831 14.0553 563.766 13.7718 563.766 13.4645ZM564.857 13.0598V13.4645C564.857 13.6419 564.899 13.8093 564.984 13.9667C565.072 14.124 565.229 14.2027 565.456 14.2027C565.684 14.2027 565.839 14.1253 565.921 13.9704C566.006 13.8155 566.048 13.6469 566.048 13.4645V13.0598C566.048 12.8775 566.008 12.7076 565.929 12.5502C565.849 12.3929 565.691 12.3142 565.456 12.3142C565.232 12.3142 565.075 12.3929 564.988 12.5502C564.901 12.7076 564.857 12.8775 564.857 13.0598ZM559.828 9.07287V8.66818C559.828 8.35842 559.894 8.07488 560.027 7.81758C560.159 7.55777 560.35 7.35043 560.6 7.19555C560.852 7.04067 561.157 6.96323 561.514 6.96323C561.884 6.96323 562.194 7.04067 562.444 7.19555C562.693 7.35043 562.883 7.55777 563.013 7.81758C563.143 8.07488 563.208 8.35842 563.208 8.66818V9.07287C563.208 9.38264 563.142 9.66617 563.01 9.92348C562.88 10.1808 562.688 10.3869 562.436 10.5418C562.186 10.6941 561.879 10.7703 561.514 10.7703C561.15 10.7703 560.841 10.6929 560.589 10.538C560.339 10.3806 560.149 10.1745 560.019 9.91973C559.892 9.66243 559.828 9.38014 559.828 9.07287ZM560.926 8.66818V9.07287C560.926 9.25524 560.969 9.42386 561.053 9.57874C561.141 9.73362 561.295 9.81106 561.514 9.81106C561.744 9.81106 561.9 9.73362 561.983 9.57874C562.068 9.42386 562.11 9.25524 562.11 9.07287V8.66818C562.11 8.48582 562.07 8.31595 561.99 8.15857C561.91 8.00119 561.752 7.9225 561.514 7.9225C561.292 7.9225 561.138 8.00244 561.053 8.16232C560.969 8.32219 560.926 8.49082 560.926 8.66818ZM560.323 14.9034L565.599 7.22927H566.581L561.305 14.9034H560.323Z" fill="#44403C"/>
<path d="M547.955 25.6145C547.955 26.3168 547.827 26.9207 547.57 27.426C547.313 27.9292 546.961 28.3167 546.513 28.5887C546.068 28.8585 545.561 28.9934 544.994 28.9934C544.424 28.9934 543.916 28.8585 543.468 28.5887C543.023 28.3167 542.672 27.9281 542.415 27.4228C542.158 26.9175 542.029 26.3147 542.029 25.6145C542.029 24.9122 542.158 24.3094 542.415 23.8062C542.672 23.3009 543.023 22.9134 543.468 22.6436C543.916 22.3716 544.424 22.2357 544.994 22.2357C545.561 22.2357 546.068 22.3716 546.513 22.6436C546.961 22.9134 547.313 23.3009 547.57 23.8062C547.827 24.3094 547.955 24.9122 547.955 25.6145ZM546.972 25.6145C546.972 25.0792 546.886 24.6285 546.712 24.2623C546.541 23.894 546.305 23.6157 546.006 23.4272C545.708 23.2367 545.371 23.1414 544.994 23.1414C544.615 23.1414 544.277 23.2367 543.979 23.4272C543.681 23.6157 543.446 23.894 543.272 24.2623C543.101 24.6285 543.015 25.0792 543.015 25.6145C543.015 26.1498 543.101 26.6016 543.272 26.9699C543.446 27.3361 543.681 27.6144 543.979 27.805C544.277 27.9934 544.615 28.0876 544.994 28.0876C545.371 28.0876 545.708 27.9934 546.006 27.805C546.305 27.6144 546.541 27.3361 546.712 26.9699C546.886 26.6016 546.972 26.1498 546.972 25.6145ZM553.336 23.97L551.547 28.9034H550.519L548.727 23.97H549.758L551.007 27.7664H551.059L552.305 23.97H553.336ZM556.197 29.003C555.711 29.003 555.292 28.8992 554.941 28.6915C554.592 28.4816 554.322 28.1872 554.132 27.8082C553.943 27.4271 553.849 26.9806 553.849 26.4689C553.849 25.9635 553.943 25.5182 554.132 25.1327C554.322 24.7473 554.588 24.4465 554.928 24.2302C555.271 24.0139 555.671 23.9058 556.129 23.9058C556.408 23.9058 556.677 23.9518 556.939 24.0439C557.2 24.136 557.434 24.2805 557.642 24.4775C557.85 24.6745 558.014 24.9304 558.134 25.2452C558.253 25.5578 558.313 25.9378 558.313 26.3854V26.7258H554.392V26.0064H557.372C557.372 25.7537 557.321 25.5299 557.218 25.3351C557.115 25.1381 556.971 24.9829 556.785 24.8694C556.6 24.7559 556.384 24.6991 556.136 24.6991C555.866 24.6991 555.63 24.7655 555.429 24.8983C555.23 25.0289 555.076 25.2002 554.967 25.4122C554.86 25.622 554.806 25.85 554.806 26.0963V26.6584C554.806 26.9881 554.864 27.2686 554.979 27.4999C555.097 27.7311 555.261 27.9078 555.471 28.0298C555.681 28.1497 555.926 28.2097 556.206 28.2097C556.388 28.2097 556.554 28.184 556.704 28.1326C556.854 28.0791 556.984 27.9998 557.093 27.8949C557.202 27.79 557.286 27.6605 557.343 27.5063L558.252 27.6701C558.18 27.9377 558.049 28.1722 557.861 28.3735C557.674 28.5726 557.44 28.7279 557.157 28.8392C556.877 28.9484 556.556 29.003 556.197 29.003ZM559.379 28.9034V23.97H560.307V24.7537H560.359C560.448 24.4882 560.607 24.2795 560.834 24.1274C561.063 23.9733 561.322 23.8962 561.611 23.8962C561.671 23.8962 561.742 23.8983 561.823 23.9026C561.907 23.9069 561.972 23.9122 562.019 23.9187V24.8372C561.981 24.8265 561.912 24.8148 561.813 24.8019C561.715 24.7869 561.616 24.7794 561.518 24.7794C561.291 24.7794 561.089 24.8276 560.911 24.924C560.735 25.0182 560.596 25.1499 560.493 25.319C560.391 25.486 560.339 25.6766 560.339 25.8907V28.9034H559.379ZM564.242 29.0126C563.929 29.0126 563.646 28.9548 563.394 28.8392C563.141 28.7214 562.941 28.5512 562.793 28.3285C562.647 28.1058 562.575 27.8328 562.575 27.5095C562.575 27.2311 562.628 27.002 562.735 26.8222C562.842 26.6423 562.987 26.4999 563.169 26.395C563.351 26.2901 563.554 26.2108 563.779 26.1573C564.004 26.1038 564.233 26.0631 564.466 26.0353C564.762 26.001 565.002 25.9732 565.186 25.9518C565.37 25.9282 565.504 25.8907 565.587 25.8393C565.671 25.788 565.713 25.7044 565.713 25.5888V25.5663C565.713 25.2858 565.633 25.0685 565.475 24.9143C565.319 24.7602 565.085 24.6831 564.775 24.6831C564.451 24.6831 564.197 24.7548 564.01 24.8983C563.826 25.0396 563.699 25.197 563.628 25.3704L562.726 25.1649C562.833 24.8651 562.989 24.6231 563.195 24.439C563.402 24.2527 563.641 24.1178 563.911 24.0343C564.181 23.9486 564.464 23.9058 564.762 23.9058C564.959 23.9058 565.168 23.9294 565.388 23.9765C565.611 24.0214 565.819 24.1049 566.011 24.227C566.206 24.349 566.366 24.5236 566.49 24.7505C566.614 24.9754 566.676 25.2676 566.676 25.6274V28.9034H565.738V28.229H565.7C565.638 28.3531 565.545 28.4752 565.42 28.5951C565.296 28.715 565.137 28.8146 564.942 28.8938C564.747 28.973 564.514 29.0126 564.242 29.0126ZM564.45 28.2418C564.716 28.2418 564.943 28.1893 565.131 28.0844C565.322 27.9795 565.466 27.8425 565.565 27.6733C565.666 27.502 565.716 27.3189 565.716 27.1241V26.4881C565.682 26.5224 565.615 26.5545 565.517 26.5845C565.42 26.6123 565.31 26.637 565.186 26.6584C565.062 26.6776 564.941 26.6958 564.823 26.713C564.705 26.728 564.607 26.7408 564.527 26.7515C564.341 26.7751 564.171 26.8147 564.017 26.8703C563.865 26.926 563.743 27.0063 563.651 27.1112C563.561 27.214 563.516 27.3511 563.516 27.5223C563.516 27.76 563.604 27.9399 563.779 28.0619C563.955 28.1818 564.178 28.2418 564.45 28.2418ZM568.916 22.3256V28.9034H567.955V22.3256H568.916ZM571.168 22.3256V28.9034H570.208V22.3256H571.168ZM548.474 34.0536C548.44 33.7495 548.299 33.514 548.05 33.347C547.802 33.1778 547.489 33.0932 547.112 33.0932C546.843 33.0932 546.609 33.136 546.412 33.2217C546.215 33.3052 546.062 33.4208 545.953 33.5686C545.846 33.7142 545.792 33.8801 545.792 34.0664C545.792 34.2227 545.829 34.3576 545.902 34.4711C545.977 34.5846 546.074 34.6799 546.194 34.757C546.316 34.8319 546.447 34.8951 546.586 34.9464C546.725 34.9957 546.859 35.0364 546.987 35.0685L547.63 35.2355C547.839 35.2869 548.055 35.3565 548.275 35.4443C548.496 35.5321 548.7 35.6477 548.889 35.7912C549.077 35.9346 549.229 36.1123 549.345 36.3243C549.462 36.5363 549.521 36.79 549.521 37.0855C549.521 37.4581 549.425 37.7889 549.232 38.078C549.042 38.3671 548.764 38.5951 548.4 38.7621C548.039 38.9291 547.601 39.0126 547.087 39.0126C546.594 39.0126 546.168 38.9345 545.808 38.7782C545.449 38.6219 545.167 38.4003 544.964 38.1133C544.76 37.8243 544.648 37.4817 544.627 37.0855H545.622C545.641 37.3232 545.719 37.5213 545.853 37.6797C545.99 37.836 546.165 37.9527 546.377 38.0298C546.591 38.1048 546.826 38.1422 547.08 38.1422C547.361 38.1422 547.61 38.0983 547.829 38.0105C548.049 37.9206 548.223 37.7964 548.349 37.638C548.475 37.4774 548.539 37.29 548.539 37.0759C548.539 36.8811 548.483 36.7215 548.372 36.5973C548.262 36.4731 548.113 36.3704 547.925 36.289C547.739 36.2076 547.528 36.1359 547.292 36.0738L546.515 35.8618C545.988 35.7184 545.571 35.5075 545.262 35.2291C544.956 34.9507 544.803 34.5824 544.803 34.1242C544.803 33.7452 544.906 33.4144 545.111 33.1318C545.317 32.8491 545.595 32.6296 545.947 32.4733C546.298 32.3149 546.694 32.2357 547.135 32.2357C547.58 32.2357 547.973 32.3138 548.314 32.4701C548.656 32.6264 548.926 32.8416 549.123 33.1157C549.32 33.3876 549.423 33.7003 549.431 34.0536H548.474ZM552.708 39.003C552.231 39.003 551.82 38.8949 551.475 38.6786C551.132 38.4602 550.869 38.1594 550.685 37.7761C550.501 37.3928 550.409 36.9539 550.409 36.4592C550.409 35.9582 550.503 35.516 550.691 35.1327C550.88 34.7473 551.145 34.4465 551.488 34.2302C551.83 34.0139 552.234 33.9058 552.699 33.9058C553.073 33.9058 553.407 33.9754 553.701 34.1146C553.994 34.2516 554.231 34.4443 554.411 34.6927C554.593 34.9411 554.701 35.2312 554.735 35.5631H553.8C553.749 35.3319 553.631 35.1327 553.447 34.9657C553.265 34.7987 553.021 34.7152 552.715 34.7152C552.447 34.7152 552.213 34.7859 552.011 34.9272C551.812 35.0664 551.657 35.2655 551.546 35.5246C551.434 35.7815 551.379 36.0856 551.379 36.4367C551.379 36.7965 551.433 37.107 551.542 37.3682C551.652 37.6294 551.806 37.8318 552.005 37.9752C552.206 38.1187 552.443 38.1904 552.715 38.1904C552.897 38.1904 553.062 38.1572 553.209 38.0908C553.359 38.0223 553.485 37.9249 553.585 37.7986C553.688 37.6722 553.76 37.5202 553.8 37.3425H554.735C554.701 37.6615 554.597 37.9463 554.423 38.1968C554.25 38.4474 554.018 38.6444 553.726 38.7878C553.437 38.9313 553.098 39.003 552.708 39.003ZM557.84 39.003C557.378 39.003 556.974 38.897 556.629 38.685C556.284 38.4731 556.017 38.1765 555.826 37.7954C555.636 37.4142 555.54 36.9688 555.54 36.4592C555.54 35.9475 555.636 35.5 555.826 35.1167C556.017 34.7334 556.284 34.4358 556.629 34.2238C556.974 34.0118 557.378 33.9058 557.84 33.9058C558.303 33.9058 558.706 34.0118 559.051 34.2238C559.396 34.4358 559.663 34.7334 559.854 35.1167C560.044 35.5 560.14 35.9475 560.14 36.4592C560.14 36.9688 560.044 37.4142 559.854 37.7954C559.663 38.1765 559.396 38.4731 559.051 38.685C558.706 38.897 558.303 39.003 557.84 39.003ZM557.843 38.1968C558.143 38.1968 558.391 38.1176 558.588 37.9592C558.785 37.8007 558.931 37.5898 559.025 37.3264C559.122 37.0631 559.17 36.7729 559.17 36.456C559.17 36.1413 559.122 35.8522 559.025 35.5888C558.931 35.3233 558.785 35.1103 558.588 34.9497C558.391 34.7891 558.143 34.7088 557.843 34.7088C557.541 34.7088 557.291 34.7891 557.092 34.9497C556.895 35.1103 556.748 35.3233 556.652 35.5888C556.557 35.8522 556.51 36.1413 556.51 36.456C556.51 36.7729 556.557 37.0631 556.652 37.3264C556.748 37.5898 556.895 37.8007 557.092 37.9592C557.291 38.1176 557.541 38.1968 557.843 38.1968ZM561.212 38.9034V33.97H562.14V34.7537H562.191C562.281 34.4882 562.44 34.2795 562.667 34.1274C562.896 33.9733 563.155 33.8962 563.444 33.8962C563.504 33.8962 563.575 33.8983 563.656 33.9026C563.739 33.9069 563.805 33.9122 563.852 33.9187V34.8372C563.813 34.8265 563.745 34.8148 563.646 34.8019C563.548 34.7869 563.449 34.7794 563.351 34.7794C563.124 34.7794 562.921 34.8276 562.744 34.924C562.568 35.0182 562.429 35.1499 562.326 35.319C562.223 35.486 562.172 35.6766 562.172 35.8907V38.9034H561.212ZM566.632 39.003C566.146 39.003 565.728 38.8992 565.377 38.6915C565.028 38.4816 564.758 38.1872 564.567 37.8082C564.379 37.4271 564.285 36.9806 564.285 36.4689C564.285 35.9635 564.379 35.5182 564.567 35.1327C564.758 34.7473 565.023 34.4465 565.364 34.2302C565.706 34.0139 566.107 33.9058 566.565 33.9058C566.843 33.9058 567.113 33.9518 567.374 34.0439C567.636 34.136 567.87 34.2805 568.078 34.4775C568.285 34.6745 568.449 34.9304 568.569 35.2452C568.689 35.5578 568.749 35.9378 568.749 36.3854V36.7258H564.827V36.0064H567.808C567.808 35.7537 567.757 35.5299 567.654 35.3351C567.551 35.1381 567.407 34.9829 567.22 34.8694C567.036 34.7559 566.82 34.6991 566.571 34.6991C566.302 34.6991 566.066 34.7655 565.865 34.8983C565.666 35.0289 565.512 35.2002 565.402 35.4122C565.295 35.622 565.242 35.85 565.242 36.0963V36.6584C565.242 36.9881 565.3 37.2686 565.415 37.4999C565.533 37.7311 565.697 37.9078 565.907 38.0298C566.116 38.1497 566.362 38.2097 566.642 38.2097C566.824 38.2097 566.99 38.184 567.14 38.1326C567.29 38.0791 567.419 37.9998 567.529 37.8949C567.638 37.79 567.721 37.6605 567.779 37.5063L568.688 37.6701C568.615 37.9377 568.485 38.1722 568.296 38.3735C568.11 38.5726 567.875 38.7279 567.593 38.8392C567.312 38.9484 566.992 39.003 566.632 39.003Z" fill="#44403C"/>
<path d="M556.994 43.0964L556.994 50.6336" stroke="#A9A29D" stroke-width="0.753713" stroke-dasharray="1.51 1.51"/>
<defs>
<linearGradient id="paint0_linear_1898_7823" x1="609" y1="-4.74424e-05" x2="0" y2="1.23046e-05" gradientUnits="userSpaceOnUse">
<stop offset="0.484375" stop-color="#FF0000"/>
<stop offset="0.842899" stop-color="#FF9100"/>
<stop offset="0.919477" stop-color="#FFD600"/>
<stop offset="0.987624" stop-color="#05FF00" stop-opacity="0.88"/>
</linearGradient>
</defs>
</svg>
