<svg width="32" height="33" viewBox="0 0 32 33" fill="none" xmlns="http://www.w3.org/2000/svg">
<mask id="mask0_419_43519" style="mask-type:alpha" maskUnits="userSpaceOnUse" x="0" y="0" width="32" height="33">
<circle cx="16" cy="16.2744" r="16" fill="#F79009"/>
</mask>
<g mask="url(#mask0_419_43519)">
<path d="M0.146158 0.420572C-0.0487193 0.61545 -0.0487193 31.9334 0.146158 32.1283C0.341035 32.3231 31.659 32.3231 31.8538 32.1283C32.0487 31.9334 32.0487 0.61545 31.8538 0.420572C31.659 0.225697 0.341035 0.225697 0.146158 0.420572ZM8.52588 6.07201L9.00734 6.98908L9.97027 7.12664C10.4861 7.19543 10.9561 7.28713 10.9905 7.33298C11.0249 7.36737 10.7268 7.72274 10.3371 8.12396L9.60344 8.85761L9.741 9.74029C9.94734 11.1732 10.0047 11.1274 8.9271 10.5542L7.9871 10.0498L7.09296 10.4969C6.60004 10.7376 6.15296 10.9439 6.10711 10.9439C6.04979 10.9439 6.07272 10.4739 6.16443 9.88932L6.33638 8.83469L5.5798 8.10103C5.15565 7.68835 4.83468 7.33298 4.86907 7.31006C4.89199 7.27567 5.37346 7.19543 5.93516 7.12664L6.94394 6.98908L7.40247 6.04909C7.65467 5.52177 7.90686 5.12055 7.95271 5.13202C8.01003 5.14348 8.27369 5.56763 8.52588 6.07201ZM25.0561 8.82322V9.85493H18.6939H12.3317L12.2973 8.94932C12.2744 8.44493 12.2859 7.97493 12.3203 7.88323C12.3776 7.75713 13.4895 7.7342 18.7168 7.75713L25.0561 7.79152V8.82322ZM8.54881 14.1308C9.0532 15.0937 8.99588 15.0593 10.4861 15.2427L11.1625 15.323L10.3829 16.1025L9.59198 16.8934L9.72954 17.7876C9.94734 19.209 9.99319 19.1632 8.98442 18.6244C8.50296 18.3722 8.03296 18.1659 7.94125 18.1659C7.83808 18.1659 7.43686 18.3493 7.02418 18.5671C6.62296 18.7964 6.22175 18.9683 6.15296 18.9454C6.04979 18.9225 6.04979 18.6703 6.17589 17.8907L6.34784 16.859L5.56833 16.1369C5.14419 15.7356 4.81175 15.3803 4.83468 15.3573C4.8576 15.3344 5.31614 15.2542 5.85492 15.1854C6.38223 15.1166 6.86369 15.0249 6.90955 14.9905C6.96686 14.9676 7.21906 14.5205 7.47125 14.0161C7.72345 13.5117 7.96418 13.1335 8.01003 13.1793C8.05588 13.2252 8.29661 13.6493 8.54881 14.1308ZM25.0905 16.8132L25.1248 17.822H18.6939H12.2744V16.7903V15.7586L18.671 15.7815L25.0561 15.8159L25.0905 16.8132ZM8.52588 22.35L9.00734 23.2671L9.94734 23.3817C10.4632 23.4505 10.9217 23.5422 10.9676 23.588C11.0249 23.6339 10.7268 24.0007 10.3371 24.4019L9.60344 25.1356L9.741 26.0183C9.94734 27.4283 10.0047 27.371 8.9271 26.8207L7.9871 26.3278L7.09296 26.7749C6.60004 27.0156 6.15296 27.2219 6.10711 27.2219C6.04979 27.2219 6.07272 26.7519 6.16443 26.1788L6.33638 25.1241L5.55687 24.3446L4.78882 23.5651L5.17858 23.4963C5.39638 23.4619 5.87784 23.3932 6.25613 23.3473L6.94394 23.2671L7.40247 22.3271C7.65467 21.7998 7.90686 21.3985 7.95271 21.41C8.01003 21.4215 8.27369 21.8456 8.52588 22.35ZM25.0905 24.8376L25.1248 25.8463H18.6939H12.2744V24.8146V23.7829L18.671 23.8058L25.0561 23.8402L25.0905 24.8376Z" fill="#F79009"/>
</g>
</svg>
