<svg width="624" height="26" viewBox="0 0 624 26" fill="none" xmlns="http://www.w3.org/2000/svg">
<line x1="4.3397" y1="25.508" x2="623.578" y2="25.508" stroke="#E7E5E4" stroke-width="0.761421" stroke-linecap="round"/>
<path d="M3.95898 25.8883V0" stroke="#E7E5E4" stroke-width="0.761421"/>
<path d="M25.3398 25.8883V0" stroke="#E7E5E4" stroke-width="0.761421"/>
<path d="M46.7207 25.8883V0" stroke="#E7E5E4" stroke-width="0.761421"/>
<path d="M68.1018 25.8883V0" stroke="#E7E5E4" stroke-width="0.761421"/>
<path d="M89.4827 25.8883V0" stroke="#E7E5E4" stroke-width="0.761421"/>
<path d="M110.863 25.8883V0" stroke="#E7E5E4" stroke-width="0.761421"/>
<path d="M132.243 25.8883V0" stroke="#E7E5E4" stroke-width="0.761421"/>
<path d="M153.625 25.8883V0" stroke="#E7E5E4" stroke-width="0.761421"/>
<path d="M175.005 25.8883V0" stroke="#E7E5E4" stroke-width="0.761421"/>
<path d="M196.385 25.8883V0" stroke="#E7E5E4" stroke-width="0.761421"/>
<path d="M217.766 25.8883V0" stroke="#E7E5E4" stroke-width="0.761421"/>
<path d="M239.147 25.8883V0" stroke="#E7E5E4" stroke-width="0.761421"/>
<path d="M260.528 25.8883V0" stroke="#E7E5E4" stroke-width="0.761421"/>
<path d="M281.909 25.8883V0" stroke="#E7E5E4" stroke-width="0.761421"/>
<path d="M303.289 25.8883V0" stroke="#E7E5E4" stroke-width="0.761421"/>
<path d="M324.67 25.8883V0" stroke="#E7E5E4" stroke-width="0.761421"/>
<path d="M346.051 25.8883V0" stroke="#E7E5E4" stroke-width="0.761421"/>
<path d="M367.432 25.8883V0" stroke="#E7E5E4" stroke-width="0.761421"/>
<path d="M388.812 25.8883V0" stroke="#E7E5E4" stroke-width="0.761421"/>
<path d="M410.193 25.8883V0" stroke="#E7E5E4" stroke-width="0.761421"/>
<path d="M431.574 25.8883V0" stroke="#E7E5E4" stroke-width="0.761421"/>
<path d="M452.955 25.8883V0" stroke="#E7E5E4" stroke-width="0.761421"/>
<path d="M474.335 25.8883V0" stroke="#E7E5E4" stroke-width="0.761421"/>
<path d="M495.715 25.8883V0" stroke="#E7E5E4" stroke-width="0.761421"/>
<path d="M517.096 25.8883V0" stroke="#E7E5E4" stroke-width="0.761421"/>
<path d="M538.477 25.8883V0" stroke="#E7E5E4" stroke-width="0.761421"/>
<path d="M559.858 25.8883V0" stroke="#E7E5E4" stroke-width="0.761421"/>
<path d="M581.238 25.8883V0" stroke="#E7E5E4" stroke-width="0.761421"/>
<path d="M602.619 25.8883V0" stroke="#E7E5E4" stroke-width="0.761421"/>
<path d="M3.95898 0.380859H46.7204H68.1011H89.4818H153.624H175.005H196.385L217.766 6.85294L239.147 0.380859H431.573L452.954 12.9443L474.335 0.380859H559.857H581.238H602.619H624" stroke="#57534E" stroke-width="0.761421"/>
<ellipse cx="217.766" cy="6.8532" rx="4.75127" ry="4.56853" fill="#E04F16"/>
<ellipse cx="452.955" cy="12.9445" rx="4.75127" ry="4.56853" fill="#E04F16"/>
</svg>
