<svg width="16" height="20" viewBox="0 0 16 20" fill="none" xmlns="http://www.w3.org/2000/svg">
<path d="M9.66634 1.8913V5.33342C9.66634 5.80013 9.66634 6.03348 9.75717 6.21174C9.83706 6.36854 9.96455 6.49603 10.1213 6.57592C10.2996 6.66675 10.533 6.66675 10.9997 6.66675H14.4418M14.6663 8.3236V14.3334C14.6663 15.7335 14.6663 16.4336 14.3939 16.9684C14.1542 17.4388 13.7717 17.8212 13.3013 18.0609C12.7665 18.3334 12.0665 18.3334 10.6663 18.3334H5.33301C3.93288 18.3334 3.23281 18.3334 2.69803 18.0609C2.22763 17.8212 1.84517 17.4388 1.60549 16.9684C1.33301 16.4336 1.33301 15.7335 1.33301 14.3334V5.66675C1.33301 4.26662 1.33301 3.56655 1.60549 3.03177C1.84517 2.56137 2.22763 2.17892 2.69803 1.93923C3.23281 1.66675 3.93288 1.66675 5.33301 1.66675H8.00949C8.62096 1.66675 8.9267 1.66675 9.21442 1.73582C9.46951 1.79707 9.71337 1.89808 9.93705 2.03515C10.1893 2.18975 10.4055 2.40594 10.8379 2.83832L13.4948 5.49517C13.9271 5.92755 14.1433 6.14374 14.2979 6.39604C14.435 6.61972 14.536 6.86358 14.5973 7.11867C14.6663 7.40639 14.6663 7.71213 14.6663 8.3236Z" stroke="#525252" stroke-width="1.66667" stroke-linecap="round" stroke-linejoin="round"/>
</svg>
