<svg width="624" height="94" viewBox="0 0 624 94" fill="none" xmlns="http://www.w3.org/2000/svg">
<path d="M8.99291 67.0965V73.688H7.99517V68.0942H7.95655L6.37947 69.1241V68.1714L8.02414 67.0965H8.99291ZM3.49729 81.0965H4.48859V85.7697C4.48859 86.1924 4.40491 86.554 4.23755 86.8544C4.07233 87.1548 3.83953 87.3844 3.53913 87.5432C3.23873 87.6998 2.88684 87.7781 2.48346 87.7781C2.11225 87.7781 1.7786 87.7105 1.4825 87.5753C1.18854 87.4402 0.955731 87.2438 0.784076 86.9864C0.614568 86.7267 0.529813 86.4113 0.529813 86.0401H1.5179C1.5179 86.2225 1.55974 86.3802 1.64342 86.5132C1.72925 86.6463 1.84619 86.7503 1.99424 86.8254C2.14444 86.8984 2.31609 86.9349 2.5092 86.9349C2.71948 86.9349 2.89757 86.8909 3.04348 86.8029C3.19153 86.7128 3.30418 86.5808 3.38142 86.407C3.45867 86.2332 3.49729 86.0208 3.49729 85.7697V81.0965ZM7.29756 87.7974C6.98429 87.7974 6.70106 87.7395 6.44787 87.6236C6.19468 87.5056 5.99406 87.335 5.84601 87.1119C5.7001 86.8887 5.62715 86.6151 5.62715 86.2912C5.62715 86.0122 5.68079 85.7826 5.78807 85.6024C5.89536 85.4221 6.04019 85.2795 6.22257 85.1743C6.40495 85.0692 6.60879 84.9898 6.83409 84.9362C7.05939 84.8825 7.28898 84.8417 7.52285 84.8138C7.81896 84.7795 8.05927 84.7516 8.2438 84.7302C8.42833 84.7066 8.56244 84.669 8.64612 84.6175C8.7298 84.566 8.77164 84.4823 8.77164 84.3665V84.3439C8.77164 84.0629 8.69225 83.8451 8.53347 83.6906C8.37684 83.5361 8.14296 83.4589 7.83183 83.4589C7.50783 83.4589 7.2525 83.5307 7.06582 83.6745C6.8813 83.8161 6.75363 83.9738 6.68282 84.1476L5.77842 83.9416C5.8857 83.6412 6.04233 83.3988 6.24832 83.2142C6.45645 83.0276 6.69569 82.8924 6.96605 82.8087C7.23641 82.7229 7.52071 82.68 7.81896 82.68C8.01636 82.68 8.22556 82.7036 8.44657 82.7508C8.66972 82.7958 8.87785 82.8795 9.07096 83.0018C9.26622 83.1241 9.42607 83.299 9.55052 83.5264C9.67497 83.7517 9.7372 84.0446 9.7372 84.4051V87.688H8.79739V87.0121H8.75877C8.69654 87.1365 8.6032 87.2589 8.47876 87.379C8.35431 87.4992 8.19445 87.5989 7.9992 87.6783C7.80394 87.7577 7.57006 87.7974 7.29756 87.7974ZM7.50676 87.025C7.77283 87.025 8.00027 86.9724 8.18909 86.8673C8.38005 86.7621 8.52489 86.6248 8.62359 86.4553C8.72444 86.2836 8.77486 86.1002 8.77486 85.9049V85.2677C8.74053 85.302 8.67401 85.3342 8.57531 85.3642C8.47876 85.3921 8.36825 85.4168 8.2438 85.4382C8.11935 85.4576 7.99812 85.4758 7.88011 85.493C7.7621 85.508 7.6634 85.5209 7.58401 85.5316C7.39733 85.5552 7.22675 85.5949 7.07226 85.6507C6.91992 85.7065 6.79761 85.7869 6.70535 85.8921C6.61523 85.995 6.57017 86.1324 6.57017 86.304C6.57017 86.5422 6.65815 86.7224 6.83409 86.8447C7.01004 86.9649 7.23426 87.025 7.50676 87.025ZM11.9813 84.7527V87.688H11.019V82.7443H11.9427V83.549H12.0038C12.1176 83.2872 12.2957 83.0769 12.5381 82.9181C12.7827 82.7594 13.0906 82.68 13.4618 82.68C13.7987 82.68 14.0937 82.7508 14.3469 82.8924C14.6001 83.0319 14.7964 83.24 14.9359 83.5168C15.0754 83.7936 15.1451 84.1358 15.1451 84.5435V87.688H14.1828V84.6594C14.1828 84.301 14.0894 84.021 13.9028 83.8193C13.7161 83.6155 13.4597 83.5136 13.1335 83.5136C12.9104 83.5136 12.7119 83.5618 12.5381 83.6584C12.3665 83.755 12.2302 83.8966 12.1294 84.0832C12.0307 84.2678 11.9813 84.4909 11.9813 84.7527Z" fill="#A9A29D"/>
<path d="M292.434 67.0965V73.688H291.436V68.0942H291.397L289.82 69.1241V68.1714L291.465 67.0965H292.434ZM296.393 73.7781C295.989 73.7781 295.626 73.7009 295.305 73.5464C294.985 73.3897 294.73 73.1752 294.539 72.9027C294.348 72.6302 294.246 72.319 294.233 71.9693H295.198C295.222 72.2525 295.348 72.4853 295.575 72.6677C295.802 72.8501 296.075 72.9413 296.393 72.9413C296.646 72.9413 296.87 72.8834 297.065 72.7675C297.263 72.6495 297.417 72.4875 297.529 72.2815C297.642 72.0755 297.699 71.8406 297.699 71.5766C297.699 71.3084 297.641 71.0692 297.525 70.8589C297.41 70.6486 297.25 70.4834 297.046 70.3633C296.844 70.2431 296.612 70.1819 296.351 70.1798C296.151 70.1798 295.95 70.2141 295.749 70.2828C295.547 70.3515 295.384 70.4416 295.26 70.5531L294.349 70.418L294.719 67.0965H298.343V67.9494H295.546L295.337 69.7936H295.375C295.504 69.6691 295.675 69.5651 295.887 69.4814C296.102 69.3977 296.331 69.3559 296.576 69.3559C296.977 69.3559 297.334 69.4513 297.648 69.6423C297.963 69.8333 298.211 70.094 298.391 70.4244C298.574 70.7527 298.664 71.1303 298.662 71.5573C298.664 71.9843 298.567 72.3652 298.372 72.6999C298.179 73.0346 297.911 73.2985 297.567 73.4917C297.226 73.6826 296.835 73.7781 296.393 73.7781ZM289.748 81.0965H290.74V85.7697C290.74 86.1924 290.656 86.554 290.489 86.8544C290.323 87.1548 290.091 87.3844 289.79 87.5432C289.49 87.6998 289.138 87.7781 288.734 87.7781C288.363 87.7781 288.03 87.7105 287.733 87.5753C287.44 87.4402 287.207 87.2438 287.035 86.9864C286.866 86.7267 286.781 86.4113 286.781 86.0401H287.769C287.769 86.2225 287.811 86.3802 287.894 86.5132C287.98 86.6463 288.097 86.7503 288.245 86.8254C288.395 86.8984 288.567 86.9349 288.76 86.9349C288.97 86.9349 289.149 86.8909 289.294 86.8029C289.443 86.7128 289.555 86.5808 289.632 86.407C289.71 86.2332 289.748 86.0208 289.748 85.7697V81.0965ZM293.549 87.7974C293.235 87.7974 292.952 87.7395 292.699 87.6236C292.446 87.5056 292.245 87.335 292.097 87.1119C291.951 86.8887 291.878 86.6151 291.878 86.2912C291.878 86.0122 291.932 85.7826 292.039 85.6024C292.146 85.4221 292.291 85.2795 292.474 85.1743C292.656 85.0692 292.86 84.9898 293.085 84.9362C293.31 84.8825 293.54 84.8417 293.774 84.8138C294.07 84.7795 294.31 84.7516 294.495 84.7302C294.679 84.7066 294.813 84.669 294.897 84.6175C294.981 84.566 295.023 84.4823 295.023 84.3665V84.3439C295.023 84.0629 294.943 83.8451 294.784 83.6906C294.628 83.5361 294.394 83.4589 294.083 83.4589C293.759 83.4589 293.503 83.5307 293.317 83.6745C293.132 83.8161 293.005 83.9738 292.934 84.1476L292.029 83.9416C292.137 83.6412 292.293 83.3988 292.499 83.2142C292.707 83.0276 292.947 82.8924 293.217 82.8087C293.487 82.7229 293.772 82.68 294.07 82.68C294.267 82.68 294.477 82.7036 294.698 82.7508C294.921 82.7958 295.129 82.8795 295.322 83.0018C295.517 83.1241 295.677 83.299 295.801 83.5264C295.926 83.7517 295.988 84.0446 295.988 84.4051V87.688H295.048V87.0121H295.01C294.948 87.1365 294.854 87.2589 294.73 87.379C294.605 87.4992 294.445 87.5989 294.25 87.6783C294.055 87.7577 293.821 87.7974 293.549 87.7974ZM293.758 87.025C294.024 87.025 294.251 86.9724 294.44 86.8673C294.631 86.7621 294.776 86.6248 294.875 86.4553C294.975 86.2836 295.026 86.1002 295.026 85.9049V85.2677C294.992 85.302 294.925 85.3342 294.826 85.3642C294.73 85.3921 294.619 85.4168 294.495 85.4382C294.37 85.4576 294.249 85.4758 294.131 85.493C294.013 85.508 293.914 85.5209 293.835 85.5316C293.648 85.5552 293.478 85.5949 293.323 85.6507C293.171 85.7065 293.049 85.7869 292.956 85.8921C292.866 85.995 292.821 86.1324 292.821 86.304C292.821 86.5422 292.909 86.7224 293.085 86.8447C293.261 86.9649 293.485 87.025 293.758 87.025ZM298.232 84.7527V87.688H297.27V82.7443H298.194V83.549H298.255C298.369 83.2872 298.547 83.0769 298.789 82.9181C299.034 82.7594 299.342 82.68 299.713 82.68C300.05 82.68 300.345 82.7508 300.598 82.8924C300.851 83.0319 301.047 83.24 301.187 83.5168C301.326 83.7936 301.396 84.1358 301.396 84.5435V87.688H300.434V84.6594C300.434 84.301 300.34 84.021 300.154 83.8193C299.967 83.6155 299.711 83.5136 299.385 83.5136C299.161 83.5136 298.963 83.5618 298.789 83.6584C298.617 83.755 298.481 83.8966 298.38 84.0832C298.282 84.2678 298.232 84.4909 298.232 84.7527Z" fill="#A9A29D"/>
<path d="M89.5699 73.7781C89.1665 73.7781 88.8039 73.7009 88.482 73.5464C88.1623 73.3897 87.907 73.1752 87.716 72.9027C87.5251 72.6302 87.4232 72.319 87.4103 71.9693H88.3758C88.3994 72.2525 88.525 72.4853 88.7524 72.6677C88.9798 72.8501 89.2523 72.9413 89.5699 72.9413C89.8231 72.9413 90.0473 72.8834 90.2426 72.7675C90.44 72.6495 90.5945 72.4875 90.706 72.2815C90.8198 72.0755 90.8766 71.8406 90.8766 71.5766C90.8766 71.3084 90.8187 71.0692 90.7028 70.8589C90.587 70.6486 90.4271 70.4834 90.2233 70.3633C90.0216 70.2431 89.7898 70.1819 89.5281 70.1798C89.3285 70.1798 89.1279 70.2141 88.9262 70.2828C88.7245 70.3515 88.5614 70.4416 88.437 70.5531L87.5261 70.418L87.8963 67.0965H91.5203V67.9494H88.7234L88.5142 69.7936H88.5529C88.6816 69.6691 88.8522 69.5651 89.0646 69.4814C89.2792 69.3977 89.5088 69.3559 89.7534 69.3559C90.1546 69.3559 90.5119 69.4513 90.8251 69.6423C91.1405 69.8333 91.3884 70.094 91.5686 70.4244C91.751 70.7527 91.8411 71.1303 91.839 71.5573C91.8411 71.9843 91.7446 72.3652 91.5493 72.6999C91.3562 73.0346 91.088 73.2985 90.7447 73.4917C90.4035 73.6826 90.0119 73.7781 89.5699 73.7781ZM85.0676 81.0965H86.0589V85.7697C86.0589 86.1924 85.9752 86.554 85.8079 86.8544C85.6426 87.1548 85.4098 87.3844 85.1094 87.5432C84.809 87.6998 84.4572 87.7781 84.0538 87.7781C83.6826 87.7781 83.3489 87.7105 83.0528 87.5753C82.7588 87.4402 82.526 87.2438 82.3544 86.9864C82.1849 86.7267 82.1001 86.4113 82.1001 86.0401H83.0882C83.0882 86.2225 83.1301 86.3802 83.2137 86.5132C83.2996 86.6463 83.4165 86.7503 83.5646 86.8254C83.7148 86.8984 83.8864 86.9349 84.0795 86.9349C84.2898 86.9349 84.4679 86.8909 84.6138 86.8029C84.7618 86.7128 84.8745 86.5808 84.9517 86.407C85.029 86.2332 85.0676 86.0208 85.0676 85.7697V81.0965ZM88.8679 87.7974C88.5546 87.7974 88.2714 87.7395 88.0182 87.6236C87.765 87.5056 87.5644 87.335 87.4163 87.1119C87.2704 86.8887 87.1975 86.6151 87.1975 86.2912C87.1975 86.0122 87.2511 85.7826 87.3584 85.6024C87.4657 85.4221 87.6105 85.2795 87.7929 85.1743C87.9753 85.0692 88.1791 84.9898 88.4044 84.9362C88.6297 84.8825 88.8593 84.8417 89.0932 84.8138C89.3893 84.7795 89.6296 84.7516 89.8141 84.7302C89.9986 84.7066 90.1327 84.669 90.2164 84.6175C90.3001 84.566 90.342 84.4823 90.342 84.3665V84.3439C90.342 84.0629 90.2626 83.8451 90.1038 83.6906C89.9471 83.5361 89.7133 83.4589 89.4021 83.4589C89.0781 83.4589 88.8228 83.5307 88.6361 83.6745C88.4516 83.8161 88.3239 83.9738 88.2531 84.1476L87.3487 83.9416C87.456 83.6412 87.6126 83.3988 87.8186 83.2142C88.0268 83.0276 88.266 82.8924 88.5364 82.8087C88.8067 82.7229 89.091 82.68 89.3893 82.68C89.5867 82.68 89.7959 82.7036 90.0169 82.7508C90.24 82.7958 90.4482 82.8795 90.6413 83.0018C90.8365 83.1241 90.9964 83.299 91.1208 83.5264C91.2453 83.7517 91.3075 84.0446 91.3075 84.4051V87.688H90.3677V87.0121H90.3291C90.2669 87.1365 90.1735 87.2589 90.0491 87.379C89.9246 87.4992 89.7648 87.5989 89.5695 87.6783C89.3743 87.7577 89.1404 87.7974 88.8679 87.7974ZM89.0771 87.025C89.3431 87.025 89.5706 86.9724 89.7594 86.8673C89.9504 86.7621 90.0952 86.6248 90.1939 86.4553C90.2947 86.2836 90.3452 86.1002 90.3452 85.9049V85.2677C90.3108 85.302 90.2443 85.3342 90.1456 85.3642C90.0491 85.3921 89.9386 85.4168 89.8141 85.4382C89.6897 85.4576 89.5684 85.4758 89.4504 85.493C89.3324 85.508 89.2337 85.5209 89.1543 85.5316C88.9676 85.5552 88.7971 85.5949 88.6426 85.6507C88.4902 85.7065 88.3679 85.7869 88.2757 85.8921C88.1855 85.995 88.1405 86.1324 88.1405 86.304C88.1405 86.5422 88.2285 86.7224 88.4044 86.8447C88.5803 86.9649 88.8046 87.025 89.0771 87.025ZM93.5516 84.7527V87.688H92.5893V82.7443H93.513V83.549H93.5742C93.6879 83.2872 93.866 83.0769 94.1084 82.9181C94.353 82.7594 94.6609 82.68 95.0321 82.68C95.369 82.68 95.664 82.7508 95.9172 82.8924C96.1704 83.0319 96.3668 83.24 96.5062 83.5168C96.6457 83.7936 96.7154 84.1358 96.7154 84.5435V87.688H95.7531V84.6594C95.7531 84.301 95.6598 84.021 95.4731 83.8193C95.2864 83.6155 95.03 83.5136 94.7039 83.5136C94.4807 83.5136 94.2822 83.5618 94.1084 83.6584C93.9368 83.755 93.8005 83.8966 93.6997 84.0832C93.601 84.2678 93.5516 84.4909 93.5516 84.7527Z" fill="#A9A29D"/>
<path d="M391.143 73.688V72.967L393.374 70.6561C393.612 70.4051 393.808 70.1852 393.963 69.9963C394.12 69.8054 394.236 69.6241 394.314 69.4524C394.391 69.2808 394.43 69.0984 394.43 68.9053C394.43 68.6864 394.378 68.4976 394.275 68.3388C394.172 68.1779 394.032 68.0545 393.853 67.9687C393.675 67.8807 393.475 67.8367 393.252 67.8367C393.016 67.8367 392.81 67.885 392.634 67.9816C392.458 68.0781 392.323 68.2144 392.228 68.3903C392.134 68.5662 392.087 68.7722 392.087 69.0083H391.137C391.137 68.607 391.229 68.2562 391.414 67.9558C391.598 67.6554 391.852 67.4226 392.173 67.2574C392.495 67.09 392.861 67.0063 393.271 67.0063C393.685 67.0063 394.05 67.0889 394.365 67.2542C394.683 67.4172 394.931 67.6404 395.109 67.9236C395.287 68.2047 395.376 68.5223 395.376 68.8763C395.376 69.1209 395.33 69.3602 395.237 69.594C395.147 69.8279 394.99 70.0886 394.764 70.3761C394.539 70.6615 394.226 71.008 393.825 71.4157L392.515 72.7868V72.8351H395.482V73.688H391.143ZM398.997 73.7974C398.488 73.7953 398.054 73.6612 397.693 73.3951C397.333 73.129 397.057 72.7417 396.866 72.2332C396.675 71.7247 396.58 71.1121 396.58 70.3954C396.58 69.6809 396.675 69.0705 396.866 68.5641C397.059 68.0577 397.336 67.6715 397.696 67.4054C398.059 67.1394 398.492 67.0063 398.997 67.0063C399.501 67.0063 399.933 67.1404 400.294 67.4087C400.654 67.6747 400.93 68.0609 401.121 68.5673C401.314 69.0716 401.411 69.6809 401.411 70.3954C401.411 71.1142 401.315 71.7279 401.124 72.2364C400.933 72.7428 400.657 73.1301 400.297 73.3983C399.936 73.6644 399.503 73.7974 398.997 73.7974ZM398.997 72.9381C399.443 72.9381 399.792 72.7203 400.043 72.2847C400.296 71.8491 400.422 71.2194 400.422 70.3954C400.422 69.8483 400.365 69.3859 400.249 69.0083C400.135 68.6285 399.971 68.341 399.756 68.1457C399.544 67.9483 399.291 67.8496 398.997 67.8496C398.553 67.8496 398.204 68.0685 397.951 68.5062C397.697 68.9439 397.57 69.5736 397.568 70.3954C397.568 70.9447 397.625 71.4093 397.738 71.7891C397.854 72.1667 398.018 72.4531 398.231 72.6484C398.443 72.8415 398.698 72.9381 398.997 72.9381ZM391.711 81.0965H392.702V85.7697C392.702 86.1924 392.619 86.554 392.451 86.8544C392.286 87.1548 392.053 87.3844 391.753 87.5432C391.453 87.6998 391.101 87.7781 390.697 87.7781C390.326 87.7781 389.992 87.7105 389.696 87.5753C389.402 87.4402 389.17 87.2438 388.998 86.9864C388.828 86.7267 388.744 86.4113 388.744 86.0401H389.732C389.732 86.2225 389.774 86.3802 389.857 86.5132C389.943 86.6463 390.06 86.7503 390.208 86.8254C390.358 86.8984 390.53 86.9349 390.723 86.9349C390.933 86.9349 391.111 86.8909 391.257 86.8029C391.405 86.7128 391.518 86.5808 391.595 86.407C391.673 86.2332 391.711 86.0208 391.711 85.7697V81.0965ZM395.511 87.7974C395.198 87.7974 394.915 87.7395 394.662 87.6236C394.409 87.5056 394.208 87.335 394.06 87.1119C393.914 86.8887 393.841 86.6151 393.841 86.2912C393.841 86.0122 393.895 85.7826 394.002 85.6024C394.109 85.4221 394.254 85.2795 394.436 85.1743C394.619 85.0692 394.823 84.9898 395.048 84.9362C395.273 84.8825 395.503 84.8417 395.737 84.8138C396.033 84.7795 396.273 84.7516 396.458 84.7302C396.642 84.7066 396.776 84.669 396.86 84.6175C396.944 84.566 396.986 84.4823 396.986 84.3665V84.3439C396.986 84.0629 396.906 83.8451 396.747 83.6906C396.591 83.5361 396.357 83.4589 396.046 83.4589C395.722 83.4589 395.466 83.5307 395.28 83.6745C395.095 83.8161 394.967 83.9738 394.897 84.1476L393.992 83.9416C394.1 83.6412 394.256 83.3988 394.462 83.2142C394.67 83.0276 394.91 82.8924 395.18 82.8087C395.45 82.7229 395.735 82.68 396.033 82.68C396.23 82.68 396.439 82.7036 396.66 82.7508C396.884 82.7958 397.092 82.8795 397.285 83.0018C397.48 83.1241 397.64 83.299 397.764 83.5264C397.889 83.7517 397.951 84.0446 397.951 84.4051V87.688H397.011V87.0121H396.973C396.91 87.1365 396.817 87.2589 396.693 87.379C396.568 87.4992 396.408 87.5989 396.213 87.6783C396.018 87.7577 395.784 87.7974 395.511 87.7974ZM395.721 87.025C395.987 87.025 396.214 86.9724 396.403 86.8673C396.594 86.7621 396.739 86.6248 396.837 86.4553C396.938 86.2836 396.989 86.1002 396.989 85.9049V85.2677C396.954 85.302 396.888 85.3342 396.789 85.3642C396.693 85.3921 396.582 85.4168 396.458 85.4382C396.333 85.4576 396.212 85.4758 396.094 85.493C395.976 85.508 395.877 85.5209 395.798 85.5316C395.611 85.5552 395.441 85.5949 395.286 85.6507C395.134 85.7065 395.011 85.7869 394.919 85.8921C394.829 85.995 394.784 86.1324 394.784 86.304C394.784 86.5422 394.872 86.7224 395.048 86.8447C395.224 86.9649 395.448 87.025 395.721 87.025ZM400.195 84.7527V87.688H399.233V82.7443H400.157V83.549H400.218C400.331 83.2872 400.51 83.0769 400.752 82.9181C400.997 82.7594 401.304 82.68 401.676 82.68C402.013 82.68 402.308 82.7508 402.561 82.8924C402.814 83.0319 403.01 83.24 403.15 83.5168C403.289 83.7936 403.359 84.1358 403.359 84.5435V87.688H402.397V84.6594C402.397 84.301 402.303 84.021 402.117 83.8193C401.93 83.6155 401.674 83.5136 401.347 83.5136C401.124 83.5136 400.926 83.5618 400.752 83.6584C400.58 83.755 400.444 83.8966 400.343 84.0832C400.245 84.2678 400.195 84.4909 400.195 84.7527Z" fill="#A9A29D"/>
<path d="M190.356 67.0965V73.688H189.358V68.0942H189.319L187.742 69.1241V68.1714L189.387 67.0965H190.356ZM194.434 73.7974C193.925 73.7953 193.491 73.6612 193.13 73.3951C192.77 73.129 192.494 72.7417 192.303 72.2332C192.112 71.7247 192.017 71.1121 192.017 70.3954C192.017 69.6809 192.112 69.0705 192.303 68.5641C192.496 68.0577 192.773 67.6715 193.133 67.4054C193.496 67.1394 193.929 67.0063 194.434 67.0063C194.938 67.0063 195.37 67.1404 195.731 67.4087C196.091 67.6747 196.367 68.0609 196.558 68.5673C196.751 69.0716 196.848 69.6809 196.848 70.3954C196.848 71.1142 196.752 71.7279 196.561 72.2364C196.37 72.7428 196.094 73.1301 195.734 73.3983C195.373 73.6644 194.94 73.7974 194.434 73.7974ZM194.434 72.9381C194.88 72.9381 195.229 72.7203 195.48 72.2847C195.733 71.8491 195.859 71.2194 195.859 70.3954C195.859 69.8483 195.802 69.3859 195.686 69.0083C195.572 68.6285 195.408 68.341 195.193 68.1457C194.981 67.9483 194.728 67.8496 194.434 67.8496C193.989 67.8496 193.641 68.0685 193.388 68.5062C193.134 68.9439 193.007 69.5736 193.005 70.3954C193.005 70.9447 193.061 71.4093 193.175 71.7891C193.291 72.1667 193.455 72.4531 193.668 72.6484C193.88 72.8415 194.135 72.9381 194.434 72.9381ZM187.785 81.0965H188.777V85.7697C188.777 86.1924 188.693 86.554 188.526 86.8544C188.36 87.1548 188.128 87.3844 187.827 87.5432C187.527 87.6998 187.175 87.7781 186.772 87.7781C186.4 87.7781 186.067 87.7105 185.771 87.5753C185.477 87.4402 185.244 87.2438 185.072 86.9864C184.903 86.7267 184.818 86.4113 184.818 86.0401H185.806C185.806 86.2225 185.848 86.3802 185.932 86.5132C186.017 86.6463 186.134 86.7503 186.282 86.8254C186.433 86.8984 186.604 86.9349 186.797 86.9349C187.008 86.9349 187.186 86.8909 187.332 86.8029C187.48 86.7128 187.592 86.5808 187.67 86.407C187.747 86.2332 187.785 86.0208 187.785 85.7697V81.0965ZM191.586 87.7974C191.272 87.7974 190.989 87.7395 190.736 87.6236C190.483 87.5056 190.282 87.335 190.134 87.1119C189.988 86.8887 189.915 86.6151 189.915 86.2912C189.915 86.0122 189.969 85.7826 190.076 85.6024C190.183 85.4221 190.328 85.2795 190.511 85.1743C190.693 85.0692 190.897 84.9898 191.122 84.9362C191.347 84.8825 191.577 84.8417 191.811 84.8138C192.107 84.7795 192.347 84.7516 192.532 84.7302C192.716 84.7066 192.851 84.669 192.934 84.6175C193.018 84.566 193.06 84.4823 193.06 84.3665V84.3439C193.06 84.0629 192.98 83.8451 192.822 83.6906C192.665 83.5361 192.431 83.4589 192.12 83.4589C191.796 83.4589 191.541 83.5307 191.354 83.6745C191.169 83.8161 191.042 83.9738 190.971 84.1476L190.067 83.9416C190.174 83.6412 190.33 83.3988 190.536 83.2142C190.745 83.0276 190.984 82.8924 191.254 82.8087C191.524 82.7229 191.809 82.68 192.107 82.68C192.304 82.68 192.514 82.7036 192.735 82.7508C192.958 82.7958 193.166 82.8795 193.359 83.0018C193.554 83.1241 193.714 83.299 193.839 83.5264C193.963 83.7517 194.025 84.0446 194.025 84.4051V87.688H193.085V87.0121H193.047C192.985 87.1365 192.891 87.2589 192.767 87.379C192.642 87.4992 192.483 87.5989 192.287 87.6783C192.092 87.7577 191.858 87.7974 191.586 87.7974ZM191.795 87.025C192.061 87.025 192.288 86.9724 192.477 86.8673C192.668 86.7621 192.813 86.6248 192.912 86.4553C193.013 86.2836 193.063 86.1002 193.063 85.9049V85.2677C193.029 85.302 192.962 85.3342 192.863 85.3642C192.767 85.3921 192.656 85.4168 192.532 85.4382C192.407 85.4576 192.286 85.4758 192.168 85.493C192.05 85.508 191.951 85.5209 191.872 85.5316C191.685 85.5552 191.515 85.5949 191.36 85.6507C191.208 85.7065 191.086 85.7869 190.993 85.8921C190.903 85.995 190.858 86.1324 190.858 86.304C190.858 86.5422 190.946 86.7224 191.122 86.8447C191.298 86.9649 191.522 87.025 191.795 87.025ZM196.269 84.7527V87.688H195.307V82.7443H196.231V83.549H196.292C196.406 83.2872 196.584 83.0769 196.826 82.9181C197.071 82.7594 197.379 82.68 197.75 82.68C198.087 82.68 198.382 82.7508 198.635 82.8924C198.888 83.0319 199.085 83.24 199.224 83.5168C199.363 83.7936 199.433 84.1358 199.433 84.5435V87.688H198.471V84.6594C198.471 84.301 198.378 84.021 198.191 83.8193C198.004 83.6155 197.748 83.5136 197.422 83.5136C197.198 83.5136 197 83.5618 196.826 83.6584C196.655 83.755 196.518 83.8966 196.417 84.0832C196.319 84.2678 196.269 84.4909 196.269 84.7527Z" fill="#A9A29D"/>
<path d="M493.221 73.688V72.967L495.452 70.6561C495.69 70.4051 495.886 70.1852 496.041 69.9963C496.198 69.8054 496.314 69.6241 496.392 69.4524C496.469 69.2808 496.508 69.0984 496.508 68.9053C496.508 68.6864 496.456 68.4976 496.353 68.3388C496.25 68.1779 496.11 68.0545 495.931 67.9687C495.753 67.8807 495.553 67.8367 495.33 67.8367C495.094 67.8367 494.888 67.885 494.712 67.9816C494.536 68.0781 494.4 68.2144 494.306 68.3903C494.212 68.5662 494.164 68.7722 494.164 69.0083H493.215C493.215 68.607 493.307 68.2562 493.492 67.9558C493.676 67.6554 493.93 67.4226 494.251 67.2574C494.573 67.09 494.939 67.0063 495.349 67.0063C495.763 67.0063 496.128 67.0889 496.443 67.2542C496.761 67.4172 497.009 67.6404 497.187 67.9236C497.365 68.2047 497.454 68.5223 497.454 68.8763C497.454 69.1209 497.408 69.3602 497.315 69.594C497.225 69.8279 497.068 70.0886 496.842 70.3761C496.617 70.6615 496.304 71.008 495.902 71.4157L494.593 72.7868V72.8351H497.56V73.688H493.221ZM500.956 73.7781C500.552 73.7781 500.19 73.7009 499.868 73.5464C499.548 73.3897 499.293 73.1752 499.102 72.9027C498.911 72.6302 498.809 72.319 498.796 71.9693H499.761C499.785 72.2525 499.911 72.4853 500.138 72.6677C500.365 72.8501 500.638 72.9413 500.956 72.9413C501.209 72.9413 501.433 72.8834 501.628 72.7675C501.826 72.6495 501.98 72.4875 502.092 72.2815C502.205 72.0755 502.262 71.8406 502.262 71.5766C502.262 71.3084 502.204 71.0692 502.088 70.8589C501.973 70.6486 501.813 70.4834 501.609 70.3633C501.407 70.2431 501.175 70.1819 500.914 70.1798C500.714 70.1798 500.514 70.2141 500.312 70.2828C500.11 70.3515 499.947 70.4416 499.823 70.5531L498.912 70.418L499.282 67.0965H502.906V67.9494H500.109L499.9 69.7936H499.938C500.067 69.6691 500.238 69.5651 500.45 69.4814C500.665 69.3977 500.894 69.3559 501.139 69.3559C501.54 69.3559 501.898 69.4513 502.211 69.6423C502.526 69.8333 502.774 70.094 502.954 70.4244C503.137 70.7527 503.227 71.1303 503.225 71.5573C503.227 71.9843 503.13 72.3652 502.935 72.6999C502.742 73.0346 502.474 73.2985 502.13 73.4917C501.789 73.6826 501.398 73.7781 500.956 73.7781ZM493.674 81.0965H494.665V85.7697C494.665 86.1924 494.582 86.554 494.414 86.8544C494.249 87.1548 494.016 87.3844 493.716 87.5432C493.415 87.6998 493.064 87.7781 492.66 87.7781C492.289 87.7781 491.955 87.7105 491.659 87.5753C491.365 87.4402 491.132 87.2438 490.961 86.9864C490.791 86.7267 490.707 86.4113 490.707 86.0401H491.695C491.695 86.2225 491.736 86.3802 491.82 86.5132C491.906 86.6463 492.023 86.7503 492.171 86.8254C492.321 86.8984 492.493 86.9349 492.686 86.9349C492.896 86.9349 493.074 86.8909 493.22 86.8029C493.368 86.7128 493.481 86.5808 493.558 86.407C493.635 86.2332 493.674 86.0208 493.674 85.7697V81.0965ZM497.474 87.7974C497.161 87.7974 496.878 87.7395 496.625 87.6236C496.371 87.5056 496.171 87.335 496.023 87.1119C495.877 86.8887 495.804 86.6151 495.804 86.2912C495.804 86.0122 495.858 85.7826 495.965 85.6024C496.072 85.4221 496.217 85.2795 496.399 85.1743C496.582 85.0692 496.786 84.9898 497.011 84.9362C497.236 84.8825 497.466 84.8417 497.7 84.8138C497.996 84.7795 498.236 84.7516 498.421 84.7302C498.605 84.7066 498.739 84.669 498.823 84.6175C498.907 84.566 498.948 84.4823 498.948 84.3665V84.3439C498.948 84.0629 498.869 83.8451 498.71 83.6906C498.554 83.5361 498.32 83.4589 498.009 83.4589C497.685 83.4589 497.429 83.5307 497.243 83.6745C497.058 83.8161 496.93 83.9738 496.86 84.1476L495.955 83.9416C496.062 83.6412 496.219 83.3988 496.425 83.2142C496.633 83.0276 496.872 82.8924 497.143 82.8087C497.413 82.7229 497.697 82.68 497.996 82.68C498.193 82.68 498.402 82.7036 498.623 82.7508C498.846 82.7958 499.055 82.8795 499.248 83.0018C499.443 83.1241 499.603 83.299 499.727 83.5264C499.852 83.7517 499.914 84.0446 499.914 84.4051V87.688H498.974V87.0121H498.936C498.873 87.1365 498.78 87.2589 498.656 87.379C498.531 87.4992 498.371 87.5989 498.176 87.6783C497.981 87.7577 497.747 87.7974 497.474 87.7974ZM497.684 87.025C497.95 87.025 498.177 86.9724 498.366 86.8673C498.557 86.7621 498.702 86.6248 498.8 86.4553C498.901 86.2836 498.952 86.1002 498.952 85.9049V85.2677C498.917 85.302 498.851 85.3342 498.752 85.3642C498.656 85.3921 498.545 85.4168 498.421 85.4382C498.296 85.4576 498.175 85.4758 498.057 85.493C497.939 85.508 497.84 85.5209 497.761 85.5316C497.574 85.5552 497.404 85.5949 497.249 85.6507C497.097 85.7065 496.974 85.7869 496.882 85.8921C496.792 85.995 496.747 86.1324 496.747 86.304C496.747 86.5422 496.835 86.7224 497.011 86.8447C497.187 86.9649 497.411 87.025 497.684 87.025ZM502.158 84.7527V87.688H501.196V82.7443H502.119V83.549H502.181C502.294 83.2872 502.472 83.0769 502.715 82.9181C502.959 82.7594 503.267 82.68 503.639 82.68C503.975 82.68 504.27 82.7508 504.524 82.8924C504.777 83.0319 504.973 83.24 505.113 83.5168C505.252 83.7936 505.322 84.1358 505.322 84.5435V87.688H504.36V84.6594C504.36 84.301 504.266 84.021 504.08 83.8193C503.893 83.6155 503.636 83.5136 503.31 83.5136C503.087 83.5136 502.889 83.5618 502.715 83.6584C502.543 83.755 502.407 83.8966 502.306 84.0832C502.207 84.2678 502.158 84.4909 502.158 84.7527Z" fill="#A9A29D"/>
<path d="M597.221 73.7781C596.779 73.7781 596.385 73.7019 596.037 73.5496C595.692 73.3972 595.418 73.1859 595.216 72.9155C595.017 72.643 594.91 72.3276 594.894 71.9693H595.905C595.918 72.1646 595.983 72.3341 596.101 72.4778C596.222 72.6194 596.378 72.7289 596.571 72.8061C596.764 72.8834 596.979 72.922 597.215 72.922C597.475 72.922 597.704 72.8769 597.904 72.7868C598.106 72.6967 598.263 72.5712 598.377 72.4102C598.491 72.2472 598.548 72.0594 598.548 71.847C598.548 71.626 598.491 71.4318 598.377 71.2644C598.265 71.0949 598.101 70.9619 597.885 70.8653C597.67 70.7688 597.41 70.7205 597.106 70.7205H596.549V69.9094H597.106C597.35 69.9094 597.565 69.8655 597.749 69.7775C597.936 69.6895 598.082 69.5672 598.187 69.4106C598.292 69.2518 598.345 69.0662 598.345 68.8538C598.345 68.6499 598.299 68.4729 598.206 68.3227C598.116 68.1704 597.987 68.0513 597.82 67.9655C597.655 67.8796 597.46 67.8367 597.234 67.8367C597.02 67.8367 596.819 67.8764 596.632 67.9558C596.448 68.033 596.298 68.1446 596.182 68.2905C596.066 68.4343 596.004 68.607 595.995 68.8087H595.033C595.044 68.4525 595.149 68.1393 595.348 67.8689C595.55 67.5985 595.816 67.3872 596.146 67.2349C596.477 67.0825 596.844 67.0063 597.247 67.0063C597.67 67.0063 598.035 67.0889 598.342 67.2542C598.651 67.4172 598.889 67.635 599.056 67.9075C599.226 68.18 599.309 68.4783 599.307 68.8023C599.309 69.1713 599.206 69.4846 598.998 69.7421C598.792 69.9996 598.517 70.1723 598.174 70.2603V70.3118C598.612 70.3783 598.951 70.5521 599.191 70.8332C599.434 71.1142 599.554 71.4629 599.552 71.8792C599.554 72.2418 599.453 72.5669 599.249 72.8544C599.047 73.1419 598.772 73.3683 598.422 73.5335C598.072 73.6966 597.672 73.7781 597.221 73.7781ZM603.063 73.7974C602.555 73.7953 602.12 73.6612 601.76 73.3951C601.399 73.129 601.123 72.7417 600.932 72.2332C600.741 71.7247 600.646 71.1121 600.646 70.3954C600.646 69.6809 600.741 69.0705 600.932 68.5641C601.126 68.0577 601.402 67.6715 601.763 67.4054C602.125 67.1394 602.559 67.0063 603.063 67.0063C603.567 67.0063 604 67.1404 604.36 67.4087C604.721 67.6747 604.996 68.0609 605.187 68.5673C605.38 69.0716 605.477 69.6809 605.477 70.3954C605.477 71.1142 605.382 71.7279 605.191 72.2364C605 72.7428 604.724 73.1301 604.363 73.3983C604.003 73.6644 603.569 73.7974 603.063 73.7974ZM603.063 72.9381C603.509 72.9381 603.858 72.7203 604.109 72.2847C604.362 71.8491 604.489 71.2194 604.489 70.3954C604.489 69.8483 604.431 69.3859 604.315 69.0083C604.201 68.6285 604.037 68.341 603.823 68.1457C603.61 67.9483 603.357 67.8496 603.063 67.8496C602.619 67.8496 602.27 68.0685 602.017 68.5062C601.764 68.9439 601.636 69.5736 601.634 70.3954C601.634 70.9447 601.691 71.4093 601.805 71.7891C601.921 72.1667 602.085 72.4531 602.297 72.6484C602.51 72.8415 602.765 72.9381 603.063 72.9381ZM595.636 81.0965H596.627V85.7697C596.627 86.1924 596.544 86.554 596.376 86.8544C596.211 87.1548 595.978 87.3844 595.678 87.5432C595.377 87.6998 595.026 87.7781 594.622 87.7781C594.251 87.7781 593.917 87.7105 593.621 87.5753C593.327 87.4402 593.094 87.2438 592.923 86.9864C592.753 86.7267 592.668 86.4113 592.668 86.0401H593.657C593.657 86.2225 593.698 86.3802 593.782 86.5132C593.868 86.6463 593.985 86.7503 594.133 86.8254C594.283 86.8984 594.455 86.9349 594.648 86.9349C594.858 86.9349 595.036 86.8909 595.182 86.8029C595.33 86.7128 595.443 86.5808 595.52 86.407C595.597 86.2332 595.636 86.0208 595.636 85.7697V81.0965ZM599.436 87.7974C599.123 87.7974 598.84 87.7395 598.587 87.6236C598.333 87.5056 598.133 87.335 597.985 87.1119C597.839 86.8887 597.766 86.6151 597.766 86.2912C597.766 86.0122 597.819 85.7826 597.927 85.6024C598.034 85.4221 598.179 85.2795 598.361 85.1743C598.544 85.0692 598.747 84.9898 598.973 84.9362C599.198 84.8825 599.428 84.8417 599.662 84.8138C599.958 84.7795 600.198 84.7516 600.382 84.7302C600.567 84.7066 600.701 84.669 600.785 84.6175C600.868 84.566 600.91 84.4823 600.91 84.3665V84.3439C600.91 84.0629 600.831 83.8451 600.672 83.6906C600.516 83.5361 600.282 83.4589 599.971 83.4589C599.647 83.4589 599.391 83.5307 599.204 83.6745C599.02 83.8161 598.892 83.9738 598.821 84.1476L597.917 83.9416C598.024 83.6412 598.181 83.3988 598.387 83.2142C598.595 83.0276 598.834 82.8924 599.105 82.8087C599.375 82.7229 599.659 82.68 599.958 82.68C600.155 82.68 600.364 82.7036 600.585 82.7508C600.808 82.7958 601.017 82.8795 601.21 83.0018C601.405 83.1241 601.565 83.299 601.689 83.5264C601.814 83.7517 601.876 84.0446 601.876 84.4051V87.688H600.936V87.0121H600.897C600.835 87.1365 600.742 87.2589 600.617 87.379C600.493 87.4992 600.333 87.5989 600.138 87.6783C599.943 87.7577 599.709 87.7974 599.436 87.7974ZM599.645 87.025C599.911 87.025 600.139 86.9724 600.328 86.8673C600.519 86.7621 600.664 86.6248 600.762 86.4553C600.863 86.2836 600.914 86.1002 600.914 85.9049V85.2677C600.879 85.302 600.813 85.3342 600.714 85.3642C600.617 85.3921 600.507 85.4168 600.382 85.4382C600.258 85.4576 600.137 85.4758 600.019 85.493C599.901 85.508 599.802 85.5209 599.723 85.5316C599.536 85.5552 599.365 85.5949 599.211 85.6507C599.059 85.7065 598.936 85.7869 598.844 85.8921C598.754 85.995 598.709 86.1324 598.709 86.304C598.709 86.5422 598.797 86.7224 598.973 86.8447C599.149 86.9649 599.373 87.025 599.645 87.025ZM604.12 84.7527V87.688H603.158V82.7443H604.081V83.549H604.143C604.256 83.2872 604.434 83.0769 604.677 82.9181C604.921 82.7594 605.229 82.68 605.601 82.68C605.937 82.68 606.232 82.7508 606.486 82.8924C606.739 83.0319 606.935 83.24 607.075 83.5168C607.214 83.7936 607.284 84.1358 607.284 84.5435V87.688H606.321V84.6594C606.321 84.301 606.228 84.021 606.041 83.8193C605.855 83.6155 605.598 83.5136 605.272 83.5136C605.049 83.5136 604.851 83.5618 604.677 83.6584C604.505 83.755 604.369 83.8966 604.268 84.0832C604.169 84.2678 604.12 84.4909 604.12 84.7527Z" fill="#A9A29D"/>
<path d="M9.06339 1C9.06339 0.582871 8.72523 0.24472 8.30811 0.24472C7.89098 0.24472 7.55283 0.582871 7.55283 1H9.06339ZM9.06339 57.646V1H7.55283V57.646H9.06339Z" fill="#D7D3D0"/>
<path d="M29.456 1C29.456 0.582871 29.1178 0.24472 28.7007 0.24472C28.2836 0.24472 27.9454 0.582871 27.9454 1H29.456ZM29.456 57.646V1H27.9454V57.646H29.456Z" fill="#D7D3D0"/>
<path d="M7.55288 58.4014L600.447 58.4014" stroke="#D7D3D0" stroke-width="1.51056"/>
<path d="M49.8485 1C49.8485 0.582871 49.5104 0.24472 49.0933 0.24472C48.6761 0.24472 48.338 0.582871 48.338 1H49.8485ZM49.8485 57.646V1H48.338V57.646H49.8485Z" fill="#D7D3D0"/>
<path d="M70.2411 1C70.2411 0.582871 69.903 0.24472 69.4858 0.24472C69.0687 0.24472 68.7306 0.582871 68.7306 1H70.2411ZM70.2411 57.646V1H68.7306V57.646H70.2411Z" fill="#D7D3D0"/>
<path d="M90.6337 1C90.6337 0.582871 90.2955 0.24472 89.8784 0.24472C89.4613 0.24472 89.1231 0.582871 89.1231 1H90.6337ZM90.6337 57.646V1H89.1231V57.646H90.6337Z" fill="#D7D3D0"/>
<path d="M172.204 1C172.204 0.582871 171.865 0.24472 171.448 0.24472C171.031 0.24472 170.693 0.582871 170.693 1H172.204ZM172.204 57.646V1H170.693V57.646H172.204Z" fill="#D7D3D0"/>
<path d="M192.596 1C192.596 0.582871 192.258 0.24472 191.841 0.24472C191.424 0.24472 191.086 0.582871 191.086 1H192.596ZM192.596 57.646V1H191.086V57.646H192.596Z" fill="#D7D3D0"/>
<path d="M212.989 1C212.989 0.582871 212.651 0.24472 212.233 0.24472C211.816 0.24472 211.478 0.582871 211.478 1H212.989ZM212.989 57.646V1H211.478V57.646H212.989Z" fill="#D7D3D0"/>
<path d="M233.381 1C233.381 0.582871 233.043 0.24472 232.626 0.24472C232.209 0.24472 231.871 0.582871 231.871 1H233.381ZM233.381 57.646V1H231.871V57.646H233.381Z" fill="#D7D3D0"/>
<path d="M253.774 1C253.774 0.582871 253.436 0.24472 253.019 0.24472C252.601 0.24472 252.263 0.582871 252.263 1H253.774ZM253.774 57.646V1H252.263V57.646H253.774Z" fill="#D7D3D0"/>
<path d="M274.166 1C274.166 0.582871 273.828 0.24472 273.411 0.24472C272.994 0.24472 272.656 0.582871 272.656 1H274.166ZM274.166 57.646V1H272.656V57.646H274.166Z" fill="#D7D3D0"/>
<path d="M294.559 1C294.559 0.582871 294.221 0.24472 293.804 0.24472C293.387 0.24472 293.048 0.582871 293.048 1H294.559ZM294.559 57.646V1H293.048V57.646H294.559Z" fill="#D7D3D0"/>
<path d="M314.952 1C314.952 0.582871 314.613 0.24472 314.196 0.24472C313.779 0.24472 313.441 0.582871 313.441 1H314.952ZM314.952 57.646V1H313.441V57.646H314.952Z" fill="#D7D3D0"/>
<path d="M335.344 1C335.344 0.582871 335.006 0.24472 334.589 0.24472C334.172 0.24472 333.834 0.582871 333.834 1H335.344ZM335.344 57.646V1H333.834V57.646H335.344Z" fill="#D7D3D0"/>
<path d="M355.737 1C355.737 0.582871 355.399 0.24472 354.981 0.24472C354.564 0.24472 354.226 0.582871 354.226 1H355.737ZM355.737 57.646V1H354.226V57.646H355.737Z" fill="#D7D3D0"/>
<path d="M376.129 1C376.129 0.582871 375.791 0.24472 375.374 0.24472C374.957 0.24472 374.619 0.582871 374.619 1H376.129ZM376.129 57.646V1H374.619V57.646H376.129Z" fill="#D7D3D0"/>
<path d="M396.522 1C396.522 0.582871 396.184 0.24472 395.767 0.24472C395.349 0.24472 395.011 0.582871 395.011 1H396.522ZM396.522 57.646V1H395.011V57.646H396.522Z" fill="#D7D3D0"/>
<path d="M416.914 1C416.914 0.582871 416.576 0.24472 416.159 0.24472C415.742 0.24472 415.404 0.582871 415.404 1H416.914ZM416.914 57.646V1H415.404V57.646H416.914Z" fill="#D7D3D0"/>
<path d="M437.307 1C437.307 0.582871 436.969 0.24472 436.552 0.24472C436.135 0.24472 435.796 0.582871 435.796 1H437.307ZM437.307 57.646V1H435.796V57.646H437.307Z" fill="#D7D3D0"/>
<path d="M457.7 1C457.7 0.582871 457.361 0.24472 456.944 0.24472C456.527 0.24472 456.189 0.582871 456.189 1H457.7ZM457.7 57.646V1H456.189V57.646H457.7Z" fill="#D7D3D0"/>
<path d="M478.092 1C478.092 0.582871 477.754 0.24472 477.336 0.24472C476.919 0.24472 476.581 0.582871 476.581 1H478.092ZM478.092 57.646V1H476.581V57.646H478.092Z" fill="#D7D3D0"/>
<path d="M498.484 1C498.484 0.582871 498.146 0.24472 497.729 0.24472C497.312 0.24472 496.974 0.582871 496.974 1H498.484ZM498.484 57.646V1H496.974V57.646H498.484Z" fill="#D7D3D0"/>
<path d="M518.877 1C518.877 0.582871 518.539 0.24472 518.122 0.24472C517.704 0.24472 517.366 0.582871 517.366 1H518.877ZM518.877 57.646V1H517.366V57.646H518.877Z" fill="#D7D3D0"/>
<path d="M539.269 1C539.269 0.582871 538.931 0.24472 538.514 0.24472C538.097 0.24472 537.759 0.582871 537.759 1H539.269ZM539.269 57.646V1H537.759V57.646H539.269Z" fill="#D7D3D0"/>
<path d="M559.662 1C559.662 0.582871 559.324 0.24472 558.907 0.24472C558.49 0.24472 558.151 0.582871 558.151 1H559.662ZM559.662 57.646V1H558.151V57.646H559.662Z" fill="#D7D3D0"/>
<path d="M580.055 1C580.055 0.582871 579.716 0.24472 579.299 0.24472C578.882 0.24472 578.544 0.582871 578.544 1H580.055ZM580.055 57.646V1H578.544V57.646H580.055Z" fill="#D7D3D0"/>
<path d="M600.447 1C600.447 0.582871 600.109 0.24472 599.692 0.24472C599.275 0.24472 598.937 0.582871 598.937 1H600.447ZM600.447 57.646V1H598.937V57.646H600.447Z" fill="#D7D3D0"/>
<rect x="90.6333" y="25.9243" width="80.0596" height="31.7217" fill="#E04F16"/>
<rect x="580.055" y="25.9243" width="18.882" height="31.7217" fill="#E04F16"/>
</svg>
