<svg width="9" height="14" viewBox="0 0 9 14" fill="none" xmlns="http://www.w3.org/2000/svg">
<path opacity="0.4" d="M3.34943 9.86701V9.79031C3.35795 8.97638 3.44318 8.32866 3.60511 7.84712C3.76705 7.36559 3.99716 6.97567 4.29545 6.67738C4.59375 6.37908 4.9517 6.10423 5.36932 5.8528C5.62074 5.6994 5.84659 5.51829 6.04688 5.30948C6.24716 5.09641 6.40483 4.85138 6.51989 4.5744C6.6392 4.29741 6.69886 3.99059 6.69886 3.65394C6.69886 3.23633 6.60085 2.87411 6.40483 2.56729C6.20881 2.26048 5.94673 2.02397 5.61861 1.85778C5.29048 1.69158 4.92614 1.60849 4.52557 1.60849C4.17614 1.60849 3.83949 1.68093 3.51562 1.82582C3.19176 1.9707 2.92116 2.19869 2.70384 2.50977C2.48651 2.82084 2.3608 3.2278 2.3267 3.73065H0.715909C0.75 3.00621 0.9375 2.38619 1.27841 1.87056C1.62358 1.35494 2.07741 0.96076 2.63991 0.688032C3.20668 0.415305 3.83523 0.278941 4.52557 0.278941C5.27557 0.278941 5.92756 0.428089 6.48153 0.726384C7.03977 1.02468 7.47017 1.43377 7.77273 1.95366C8.07955 2.47354 8.23295 3.06587 8.23295 3.73065C8.23295 4.1994 8.16051 4.6234 8.01562 5.00266C7.875 5.38192 7.67045 5.7207 7.40199 6.019C7.13778 6.31729 6.81818 6.5815 6.44318 6.81161C6.06818 7.04599 5.76776 7.29315 5.5419 7.55309C5.31605 7.80877 5.15199 8.11346 5.04972 8.46715C4.94744 8.82085 4.89205 9.2619 4.88352 9.79031V9.86701H3.34943ZM4.16761 13.6511C3.85227 13.6511 3.58168 13.5382 3.35582 13.3123C3.12997 13.0865 3.01705 12.8159 3.01705 12.5005C3.01705 12.1852 3.12997 11.9146 3.35582 11.6887C3.58168 11.4629 3.85227 11.35 4.16761 11.35C4.48295 11.35 4.75355 11.4629 4.9794 11.6887C5.20526 11.9146 5.31818 12.1852 5.31818 12.5005C5.31818 12.7093 5.26492 12.9011 5.15838 13.0758C5.05611 13.2505 4.91761 13.3912 4.7429 13.4977C4.57244 13.6 4.38068 13.6511 4.16761 13.6511Z" fill="#E5E5E5"/>
</svg>
