<svg width="17" height="16" viewBox="0 0 17 16" fill="none" xmlns="http://www.w3.org/2000/svg">
<g id="Frame" clip-path="url(#clip0_3_12626)">
<g id="Group 9399">
<path id="Vector" d="M9.07739 1.99996L15.4281 13C15.4866 13.1013 15.5174 13.2163 15.5174 13.3333C15.5174 13.4503 15.4866 13.5653 15.4281 13.6666C15.3695 13.768 15.2854 13.8521 15.1841 13.9106C15.0827 13.9692 14.9677 14 14.8507 14H2.14939C2.03237 14 1.91741 13.9692 1.81606 13.9106C1.71472 13.8521 1.63056 13.768 1.57205 13.6666C1.51354 13.5653 1.48274 13.4503 1.48274 13.3333C1.48274 13.2163 1.51355 13.1013 1.57206 13L7.92272 1.99996C7.98124 1.89862 8.0654 1.81447 8.16674 1.75596C8.26808 1.69746 8.38304 1.66666 8.50006 1.66666C8.61708 1.66666 8.73203 1.69746 8.83338 1.75596C8.93472 1.81447 9.01888 1.89862 9.07739 1.99996ZM7.83339 10.6666V12H9.16672V10.6666H7.83339ZM7.83339 5.99996V9.33329H9.16672V5.99996H7.83339Z" fill="#4EB310"/>
<g id="Group 9398">
<rect id="Rectangle 1520" x="7.83333" y="6" width="1.33333" height="3.33333" fill="white"/>
<rect id="Rectangle 1521" x="7.83333" y="10.6667" width="1.33333" height="1.33333" fill="white"/>
</g>
</g>
</g>
<defs>
<clipPath id="clip0_3_12626">
<rect width="16" height="16" fill="white" transform="translate(0.5)"/>
</clipPath>
</defs>
</svg>
