<svg width="629" height="93" viewBox="0 0 629 93" fill="none" xmlns="http://www.w3.org/2000/svg">
<line x1="0.381675" y1="35.2389" x2="628.618" y2="35.2389" stroke="#A9A29D" stroke-width="0.763349" stroke-linecap="round"/>
<circle cx="11.4502" cy="35.6246" r="11.4502" fill="#66C61C"/>
<circle cx="57.2513" cy="35.6253" r="3.81675" fill="#A9A29D"/>
<circle cx="293.889" cy="35.6253" r="3.81675" fill="#A9A29D"/>
<circle cx="95.4193" cy="35.6253" r="3.81675" fill="#A9A29D"/>
<circle cx="332.057" cy="35.6253" r="3.81675" fill="#A9A29D"/>
<circle cx="133.586" cy="35.6253" r="3.81675" fill="#A9A29D"/>
<circle cx="370.225" cy="35.6253" r="3.81675" fill="#A9A29D"/>
<circle cx="171.754" cy="35.6253" r="3.81675" fill="#A9A29D"/>
<circle cx="477.094" cy="35.6253" r="3.81675" fill="#A9A29D"/>
<circle cx="515.26" cy="35.6253" r="3.81675" fill="#A9A29D"/>
<circle cx="209.921" cy="35.6253" r="3.81675" fill="#A9A29D"/>
<circle cx="251.906" cy="35.6257" r="7.6335" fill="#66C61C"/>
<circle cx="423.659" cy="35.6257" r="19.0837" fill="#66C61C"/>
<circle cx="564.878" cy="35.6244" r="15.267" fill="#E04F16"/>
<circle cx="618.313" cy="35.6257" r="7.6335" fill="#E04F16"/>
<path d="M12.7191 58.047V64.709H11.9124V58.8928H11.8733L10.2469 59.9727V59.153L11.9124 58.047H12.7191ZM7.4266 72.047H8.23333V76.8093C8.23333 77.2343 8.15526 77.5954 7.99912 77.8925C7.84298 78.1896 7.62286 78.4151 7.33878 78.5691C7.05469 78.7231 6.71964 78.8001 6.33363 78.8001C5.9693 78.8001 5.64509 78.7339 5.36101 78.6016C5.07692 78.4672 4.85355 78.2763 4.69091 78.0291C4.52826 77.7819 4.44694 77.4881 4.44694 77.1476H5.24065C5.24065 77.3363 5.28727 77.5011 5.38052 77.642C5.47594 77.7808 5.60606 77.8893 5.77087 77.9673C5.93569 78.0454 6.12327 78.0844 6.33363 78.0844C6.56567 78.0844 6.76301 78.0356 6.92566 77.938C7.0883 77.8405 7.21191 77.6973 7.29649 77.5087C7.38323 77.3178 7.4266 77.0847 7.4266 76.8093V72.047ZM11.2162 78.8261C10.8996 78.8261 10.6123 78.7665 10.3542 78.6472C10.0962 78.5257 9.89123 78.3512 9.73942 78.1235C9.58762 77.8936 9.51172 77.616 9.51172 77.2907C9.51172 77.0045 9.5681 76.7724 9.68087 76.5946C9.79364 76.4146 9.94436 76.2736 10.133 76.1717C10.3217 76.0698 10.5299 75.9939 10.7576 75.944C10.9875 75.892 11.2184 75.8508 11.4505 75.8204C11.7541 75.7814 12.0002 75.7521 12.1889 75.7326C12.3797 75.7109 12.5185 75.6751 12.6052 75.6252C12.6941 75.5753 12.7386 75.4886 12.7386 75.365V75.339C12.7386 75.018 12.6508 74.7686 12.4751 74.5908C12.3016 74.413 12.0381 74.3241 11.6847 74.3241C11.3182 74.3241 11.0308 74.4043 10.8226 74.5648C10.6145 74.7253 10.4681 74.8966 10.3835 75.0787L9.65485 74.8185C9.78496 74.5149 9.95845 74.2785 10.1753 74.1094C10.3943 73.9381 10.6329 73.8188 10.891 73.7516C11.1512 73.6822 11.4071 73.6475 11.6586 73.6475C11.8191 73.6475 12.0034 73.667 12.2116 73.706C12.422 73.7429 12.6248 73.8199 12.8199 73.937C13.0173 74.0541 13.181 74.2308 13.3111 74.4672C13.4412 74.7036 13.5063 75.0202 13.5063 75.417V78.709H12.7386V78.0324H12.6996C12.6475 78.1408 12.5608 78.2568 12.4393 78.3804C12.3179 78.5041 12.1563 78.6092 11.9547 78.696C11.753 78.7827 11.5068 78.8261 11.2162 78.8261ZM11.3333 78.1365C11.637 78.1365 11.8928 78.0768 12.101 77.9576C12.3114 77.8383 12.4697 77.6843 12.576 77.4956C12.6844 77.307 12.7386 77.1086 12.7386 76.9004V76.1977C12.7061 76.2368 12.6345 76.2726 12.5239 76.3051C12.4155 76.3354 12.2897 76.3626 12.1466 76.3864C12.0056 76.4081 11.8679 76.4276 11.7335 76.445C11.6012 76.4601 11.4938 76.4732 11.4114 76.484C11.2119 76.51 11.0254 76.5523 10.8519 76.6109C10.6806 76.6672 10.5418 76.7529 10.4355 76.8678C10.3315 76.9806 10.2794 77.1346 10.2794 77.3298C10.2794 77.5965 10.3781 77.7982 10.5754 77.9348C10.7749 78.0692 11.0276 78.1365 11.3333 78.1365ZM15.6752 75.7033V78.709H14.9075V73.7125H15.6491V74.4932H15.7142C15.8313 74.2395 16.0091 74.0356 16.2477 73.8817C16.4862 73.7255 16.7942 73.6475 17.1715 73.6475C17.5098 73.6475 17.8058 73.7169 18.0596 73.8556C18.3133 73.9923 18.5106 74.2005 18.6516 74.4802C18.7925 74.7578 18.863 75.1091 18.863 75.5341V78.709H18.0953V75.5862C18.0953 75.1937 17.9934 74.8879 17.7896 74.6689C17.5857 74.4477 17.306 74.3371 16.9503 74.3371C16.7053 74.3371 16.4862 74.3902 16.2932 74.4965C16.1024 74.6027 15.9517 74.7578 15.8411 74.9616C15.7305 75.1655 15.6752 75.4127 15.6752 75.7033Z" fill="#A9A29D"/>
<path d="M249.791 64.709L252.771 58.8147V58.7627H249.336V58.047H253.603V58.8017L250.637 64.709H249.791ZM247.12 72.047H247.927V76.8093C247.927 77.2343 247.849 77.5954 247.692 77.8925C247.536 78.1896 247.316 78.4151 247.032 78.5691C246.748 78.7231 246.413 78.8001 246.027 78.8001C245.663 78.8001 245.338 78.7339 245.054 78.6016C244.77 78.4672 244.547 78.2763 244.384 78.0291C244.222 77.7819 244.14 77.4881 244.14 77.1476H244.934C244.934 77.3363 244.981 77.5011 245.074 77.642C245.169 77.7808 245.299 77.8893 245.464 77.9673C245.629 78.0454 245.817 78.0844 246.027 78.0844C246.259 78.0844 246.456 78.0356 246.619 77.938C246.782 77.8405 246.905 77.6973 246.99 77.5087C247.077 77.3178 247.12 77.0847 247.12 76.8093V72.047ZM250.91 78.8261C250.593 78.8261 250.306 78.7665 250.048 78.6472C249.79 78.5257 249.585 78.3512 249.433 78.1235C249.281 77.8936 249.205 77.616 249.205 77.2907C249.205 77.0045 249.261 76.7724 249.374 76.5946C249.487 76.4146 249.638 76.2736 249.826 76.1717C250.015 76.0698 250.223 75.9939 250.451 75.944C250.681 75.892 250.912 75.8508 251.144 75.8204C251.447 75.7814 251.694 75.7521 251.882 75.7326C252.073 75.7109 252.212 75.6751 252.299 75.6252C252.388 75.5753 252.432 75.4886 252.432 75.365V75.339C252.432 75.018 252.344 74.7686 252.168 74.5908C251.995 74.413 251.732 74.3241 251.378 74.3241C251.012 74.3241 250.724 74.4043 250.516 74.5648C250.308 74.7253 250.161 74.8966 250.077 75.0787L249.348 74.8185C249.478 74.5149 249.652 74.2785 249.869 74.1094C250.088 73.9381 250.326 73.8188 250.584 73.7516C250.845 73.6822 251.1 73.6475 251.352 73.6475C251.512 73.6475 251.697 73.667 251.905 73.706C252.115 73.7429 252.318 73.8199 252.513 73.937C252.711 74.0541 252.874 74.2308 253.004 74.4672C253.135 74.7036 253.2 75.0202 253.2 75.417V78.709H252.432V78.0324H252.393C252.341 78.1408 252.254 78.2568 252.133 78.3804C252.011 78.5041 251.85 78.6092 251.648 78.696C251.446 78.7827 251.2 78.8261 250.91 78.8261ZM251.027 78.1365C251.33 78.1365 251.586 78.0768 251.794 77.9576C252.005 77.8383 252.163 77.6843 252.269 77.4956C252.378 77.307 252.432 77.1086 252.432 76.9004V76.1977C252.399 76.2368 252.328 76.2726 252.217 76.3051C252.109 76.3354 251.983 76.3626 251.84 76.3864C251.699 76.4081 251.561 76.4276 251.427 76.445C251.295 76.4601 251.187 76.4732 251.105 76.484C250.905 76.51 250.719 76.5523 250.545 76.6109C250.374 76.6672 250.235 76.7529 250.129 76.8678C250.025 76.9806 249.973 77.1346 249.973 77.3298C249.973 77.5965 250.071 77.7982 250.269 77.9348C250.468 78.0692 250.721 78.1365 251.027 78.1365ZM255.369 75.7033V78.709H254.601V73.7125H255.343V74.4932H255.408C255.525 74.2395 255.702 74.0356 255.941 73.8817C256.18 73.7255 256.488 73.6475 256.865 73.6475C257.203 73.6475 257.499 73.7169 257.753 73.8556C258.007 73.9923 258.204 74.2005 258.345 74.4802C258.486 74.7578 258.556 75.1091 258.556 75.5341V78.709H257.789V75.5862C257.789 75.1937 257.687 74.8879 257.483 74.6689C257.279 74.4477 256.999 74.3371 256.644 74.3371C256.399 74.3371 256.18 74.3902 255.987 74.4965C255.796 74.6027 255.645 74.7578 255.534 74.9616C255.424 75.1655 255.369 75.4127 255.369 75.7033Z" fill="#A9A29D"/>
<path d="M422.035 58.047V64.709H421.229V58.8928H421.19L419.563 59.9727V59.153L421.229 58.047H422.035ZM426.293 58.047V64.709H425.487V58.8928H425.448L423.821 59.9727V59.153L425.487 58.047H426.293ZM418.872 72.047H419.679V76.8093C419.679 77.2343 419.601 77.5954 419.444 77.8925C419.288 78.1896 419.068 78.4151 418.784 78.5691C418.5 78.7231 418.165 78.8001 417.779 78.8001C417.415 78.8001 417.09 78.7339 416.806 78.6016C416.522 78.4672 416.299 78.2763 416.136 78.0291C415.974 77.7819 415.892 77.4881 415.892 77.1476H416.686C416.686 77.3363 416.733 77.5011 416.826 77.642C416.921 77.7808 417.051 77.8893 417.216 77.9673C417.381 78.0454 417.569 78.0844 417.779 78.0844C418.011 78.0844 418.208 78.0356 418.371 77.938C418.534 77.8405 418.657 77.6973 418.742 77.5087C418.829 77.3178 418.872 77.0847 418.872 76.8093V72.047ZM422.662 78.8261C422.345 78.8261 422.058 78.7665 421.8 78.6472C421.541 78.5257 421.337 78.3512 421.185 78.1235C421.033 77.8936 420.957 77.616 420.957 77.2907C420.957 77.0045 421.013 76.7724 421.126 76.5946C421.239 76.4146 421.39 76.2736 421.578 76.1717C421.767 76.0698 421.975 75.9939 422.203 75.944C422.433 75.892 422.664 75.8508 422.896 75.8204C423.199 75.7814 423.446 75.7521 423.634 75.7326C423.825 75.7109 423.964 75.6751 424.051 75.6252C424.139 75.5753 424.184 75.4886 424.184 75.365V75.339C424.184 75.018 424.096 74.7686 423.92 74.5908C423.747 74.413 423.483 74.3241 423.13 74.3241C422.763 74.3241 422.476 74.4043 422.268 74.5648C422.06 74.7253 421.913 74.8966 421.829 75.0787L421.1 74.8185C421.23 74.5149 421.404 74.2785 421.621 74.1094C421.84 73.9381 422.078 73.8188 422.336 73.7516C422.596 73.6822 422.852 73.6475 423.104 73.6475C423.264 73.6475 423.449 73.667 423.657 73.706C423.867 73.7429 424.07 73.8199 424.265 73.937C424.463 74.0541 424.626 74.2308 424.756 74.4672C424.887 74.7036 424.952 75.0202 424.952 75.417V78.709H424.184V78.0324H424.145C424.093 78.1408 424.006 78.2568 423.885 78.3804C423.763 78.5041 423.602 78.6092 423.4 78.696C423.198 78.7827 422.952 78.8261 422.662 78.8261ZM422.779 78.1365C423.082 78.1365 423.338 78.0768 423.546 77.9576C423.757 77.8383 423.915 77.6843 424.021 77.4956C424.13 77.307 424.184 77.1086 424.184 76.9004V76.1977C424.151 76.2368 424.08 76.2726 423.969 76.3051C423.861 76.3354 423.735 76.3626 423.592 76.3864C423.451 76.4081 423.313 76.4276 423.179 76.445C423.046 76.4601 422.939 76.4732 422.857 76.484C422.657 76.51 422.471 76.5523 422.297 76.6109C422.126 76.6672 421.987 76.7529 421.881 76.8678C421.777 76.9806 421.725 77.1346 421.725 77.3298C421.725 77.5965 421.823 77.7982 422.021 77.9348C422.22 78.0692 422.473 78.1365 422.779 78.1365ZM427.12 75.7033V78.709H426.353V73.7125H427.094V74.4932H427.16C427.277 74.2395 427.454 74.0356 427.693 73.8817C427.932 73.7255 428.239 73.6475 428.617 73.6475C428.955 73.6475 429.251 73.7169 429.505 73.8556C429.759 73.9923 429.956 74.2005 430.097 74.4802C430.238 74.7578 430.308 75.1091 430.308 75.5341V78.709H429.541V75.5862C429.541 75.1937 429.439 74.8879 429.235 74.6689C429.031 74.4477 428.751 74.3371 428.396 74.3371C428.151 74.3371 427.932 74.3902 427.739 74.4965C427.548 74.6027 427.397 74.7578 427.286 74.9616C427.176 75.1655 427.12 75.4127 427.12 75.7033Z" fill="#A9A29D"/>
<path d="M562.447 58.047V64.709H561.64V58.8928H561.601L559.974 59.9727V59.153L561.64 58.047H562.447ZM564.206 63.3428V62.6792L567.134 58.047H567.615V59.0749H567.29L565.078 62.5751V62.6271H569.021V63.3428H564.206ZM567.342 64.709V63.1411V62.8321V58.047H568.11V64.709H567.342ZM560.093 72.047H560.899V76.8093C560.899 77.2343 560.821 77.5954 560.665 77.8925C560.509 78.1896 560.289 78.4151 560.005 78.5691C559.721 78.7231 559.386 78.8001 559 78.8001C558.635 78.8001 558.311 78.7339 558.027 78.6016C557.743 78.4672 557.52 78.2763 557.357 78.0291C557.194 77.7819 557.113 77.4881 557.113 77.1476H557.907C557.907 77.3363 557.953 77.5011 558.047 77.642C558.142 77.7808 558.272 77.8893 558.437 77.9673C558.602 78.0454 558.789 78.0844 559 78.0844C559.232 78.0844 559.429 78.0356 559.592 77.938C559.754 77.8405 559.878 77.6973 559.963 77.5087C560.049 77.3178 560.093 77.0847 560.093 76.8093V72.047ZM563.882 78.8261C563.566 78.8261 563.278 78.7665 563.02 78.6472C562.762 78.5257 562.557 78.3512 562.405 78.1235C562.254 77.8936 562.178 77.616 562.178 77.2907C562.178 77.0045 562.234 76.7724 562.347 76.5946C562.46 76.4146 562.61 76.2736 562.799 76.1717C562.988 76.0698 563.196 75.9939 563.424 75.944C563.653 75.892 563.884 75.8508 564.116 75.8204C564.42 75.7814 564.666 75.7521 564.855 75.7326C565.046 75.7109 565.185 75.6751 565.271 75.6252C565.36 75.5753 565.405 75.4886 565.405 75.365V75.339C565.405 75.018 565.317 74.7686 565.141 74.5908C564.968 74.413 564.704 74.3241 564.351 74.3241C563.984 74.3241 563.697 74.4043 563.489 74.5648C563.28 74.7253 563.134 74.8966 563.05 75.0787L562.321 74.8185C562.451 74.5149 562.624 74.2785 562.841 74.1094C563.06 73.9381 563.299 73.8188 563.557 73.7516C563.817 73.6822 564.073 73.6475 564.325 73.6475C564.485 73.6475 564.669 73.667 564.878 73.706C565.088 73.7429 565.291 73.8199 565.486 73.937C565.683 74.0541 565.847 74.2308 565.977 74.4672C566.107 74.7036 566.172 75.0202 566.172 75.417V78.709H565.405V78.0324H565.366C565.314 78.1408 565.227 78.2568 565.105 78.3804C564.984 78.5041 564.822 78.6092 564.621 78.696C564.419 78.7827 564.173 78.8261 563.882 78.8261ZM563.999 78.1365C564.303 78.1365 564.559 78.0768 564.767 77.9576C564.977 77.8383 565.136 77.6843 565.242 77.4956C565.35 77.307 565.405 77.1086 565.405 76.9004V76.1977C565.372 76.2368 565.301 76.2726 565.19 76.3051C565.081 76.3354 564.956 76.3626 564.813 76.3864C564.672 76.4081 564.534 76.4276 564.399 76.445C564.267 76.4601 564.16 76.4732 564.077 76.484C563.878 76.51 563.691 76.5523 563.518 76.6109C563.347 76.6672 563.208 76.7529 563.102 76.8678C562.997 76.9806 562.945 77.1346 562.945 77.3298C562.945 77.5965 563.044 77.7982 563.241 77.9348C563.441 78.0692 563.694 78.1365 563.999 78.1365ZM568.341 75.7033V78.709H567.573V73.7125H568.315V74.4932H568.38C568.497 74.2395 568.675 74.0356 568.914 73.8817C569.152 73.7255 569.46 73.6475 569.838 73.6475C570.176 73.6475 570.472 73.7169 570.726 73.8556C570.979 73.9923 571.177 74.2005 571.318 74.4802C571.459 74.7578 571.529 75.1091 571.529 75.5341V78.709H570.761V75.5862C570.761 75.1937 570.659 74.8879 570.456 74.6689C570.252 74.4477 569.972 74.3371 569.616 74.3371C569.371 74.3371 569.152 74.3902 568.959 74.4965C568.768 74.6027 568.618 74.7578 568.507 74.9616C568.396 75.1655 568.341 75.4127 568.341 75.7033Z" fill="#A9A29D"/>
</svg>
