<svg width="629" height="93" viewBox="0 0 629 93" fill="none" xmlns="http://www.w3.org/2000/svg">
<line x1="0.504618" y1="41.8831" x2="628.283" y2="41.8831" stroke="#D7D3D0" stroke-width="1.00924" stroke-linecap="round"/>
<line x1="0.504618" y1="75.1878" x2="628.283" y2="75.1878" stroke="#D7D3D0" stroke-width="1.00924" stroke-linecap="round"/>
<rect x="255.722" y="16.52" width="9.16019" height="75.9915" fill="#66C61C"/>
<rect x="275.568" y="38.3262" width="9.16019" height="54.1853" fill="#FDB022"/>
<rect x="513.734" y="38.3262" width="9.16019" height="54.1853" fill="#FDB022"/>
<rect x="57.252" y="36.3428" width="9.16019" height="56.1677" fill="#FDB022"/>
<rect x="295.416" y="38.3262" width="9.16019" height="54.1853" fill="#FDB022"/>
<rect x="533.581" y="38.3262" width="9.16019" height="54.1853" fill="#FDB022"/>
<rect x="77.0986" y="37.6655" width="9.16019" height="54.8461" fill="#FDB022"/>
<rect x="315.263" y="38.3262" width="9.16019" height="54.1853" fill="#FDB022"/>
<rect x="553.428" y="38.3262" width="9.16019" height="54.1853" fill="#FDB022"/>
<rect x="96.9453" y="36.3428" width="9.16019" height="56.1677" fill="#FDB022"/>
<rect x="335.11" y="38.3262" width="9.16019" height="54.1853" fill="#FDB022"/>
<rect x="573.275" y="38.3262" width="9.16019" height="54.1853" fill="#FDB022"/>
<rect x="116.792" y="38.9878" width="9.16019" height="53.5245" fill="#FDB022"/>
<rect x="354.957" y="40.9688" width="9.16019" height="51.5421" fill="#FDB022"/>
<rect x="593.122" y="77.313" width="9.16019" height="15.1983" fill="#E04F16"/>
<rect x="136.639" y="40.9688" width="9.16019" height="51.5421" fill="#FDB022"/>
<rect x="374.805" y="40.3086" width="9.16019" height="52.2029" fill="#FDB022"/>
<rect x="156.486" y="40.9688" width="9.16019" height="51.5421" fill="#FDB022"/>
<rect x="394.651" y="42.9512" width="9.16019" height="49.5597" fill="#FDB022"/>
<rect x="176.333" y="40.9688" width="9.16019" height="51.5421" fill="#FDB022"/>
<rect x="414.498" y="42.9512" width="9.16019" height="49.5597" fill="#FDB022"/>
<rect x="196.181" y="40.9688" width="9.16019" height="51.5421" fill="#FDB022"/>
<rect x="434.346" y="42.9512" width="9.16019" height="49.5597" fill="#FDB022"/>
<rect x="216.027" y="43.6128" width="9.16019" height="48.8989" fill="#FDB022"/>
<rect x="454.192" y="45.5952" width="9.16019" height="46.9165" fill="#FDB022"/>
<rect x="612.97" y="48.2378" width="9.16019" height="44.2733" fill="#FDB022"/>
<rect x="235.875" y="47.5771" width="9.16019" height="44.9341" fill="#FDB022"/>
<rect x="474.04" y="55.5063" width="9.16019" height="37.0046" fill="#FDB022"/>
<rect x="493.887" y="37.6655" width="9.16019" height="54.8461" fill="#FDB022"/>
<path opacity="0.5" d="M629 39H48V75H629V39Z" fill="#D7D3D0"/>
</svg>
